<?xml version="1.0" standalone="no"?>
<!DOCTYPE svg PUBLIC "-//W3C//DTD SVG 20010904//EN"
 "http://www.w3.org/TR/2001/REC-SVG-20010904/DTD/svg10.dtd">
<svg version="1.0" xmlns="http://www.w3.org/2000/svg"
 width="572.000000pt" height="572.000000pt" viewBox="0 0 572.000000 572.000000"
 preserveAspectRatio="xMidYMid meet">
<metadata>
Created by potrace 1.11, written by Peter Selinger 2001-2013
</metadata>
<g transform="translate(0.000000,572.000000) scale(0.100000,-0.100000)"
fill="#000000" stroke="none">
<path d="M2433 5466 c-8 -13 -77 -97 -98 -120 -6 -6 -103 -121 -215 -256 -113
-135 -217 -258 -231 -275 -15 -16 -68 -79 -119 -140 -50 -60 -99 -119 -108
-130 -10 -11 -100 -119 -202 -240 -101 -121 -218 -260 -260 -310 -42 -49 -105
-128 -141 -175 -35 -47 -67 -87 -70 -90 -3 -3 -26 -34 -51 -70 -314 -452 -496
-802 -603 -1165 -79 -268 -99 -423 -104 -783 l-3 -281 37 -15 c33 -14 157 -16
1051 -16 732 0 1015 -3 1020 -11 3 -6 8 -235 10 -508 2 -273 4 -511 4 -528 0
-61 14 -63 515 -63 299 0 444 3 447 10 2 6 13 12 25 12 14 2 20 8 18 20 -2 10
0 20 6 23 5 4 5 14 -1 26 -8 14 -7 19 2 19 10 0 10 2 -1 9 -9 6 -10 10 -2 16
9 5 9 10 1 20 -8 10 -7 14 2 18 10 4 10 6 -1 6 -11 1 -11 4 -1 16 10 12 10 15
0 15 -9 0 -10 3 -1 13 8 10 7 17 -1 25 -9 9 -9 12 1 12 10 0 11 3 2 14 -9 11
-9 15 1 19 10 4 10 6 -1 6 -11 1 -11 4 -1 16 10 12 10 15 0 15 -9 0 -10 3 -1
13 8 10 7 17 -1 25 -9 9 -9 12 1 12 10 0 11 3 2 14 -9 11 -9 15 1 19 10 4 10
6 -1 6 -11 1 -11 4 -1 16 10 12 10 15 0 15 -9 0 -10 3 -1 13 8 10 7 17 -1 25
-9 9 -9 12 1 12 11 0 11 3 1 15 -10 12 -10 15 1 15 12 0 12 2 0 9 -9 6 -10 10
-2 16 9 5 9 10 0 21 -9 11 -8 14 2 14 10 0 10 3 1 12 -7 7 -8 17 -1 30 7 13 6
18 -2 18 -8 0 -9 4 0 13 8 10 7 17 -1 25 -9 9 -9 12 1 12 10 0 11 3 2 14 -9
11 -9 15 1 19 10 4 10 6 -1 6 -11 1 -11 4 -1 16 10 12 10 15 0 15 -9 0 -10 3
-1 13 8 10 7 17 -1 25 -9 9 -9 12 1 12 11 0 11 3 1 15 -10 12 -10 15 1 15 12
0 12 2 0 9 -9 6 -10 10 -2 16 9 5 9 10 0 21 -9 11 -8 14 2 14 10 0 10 3 2 11
-7 7 -8 21 -5 33 9 27 9 47 -1 64 -5 7 -3 12 4 12 8 0 9 4 0 13 -8 10 -7 17 1
25 9 9 9 12 0 12 -6 0 -9 7 -6 15 5 13 134 15 1020 15 901 0 1018 2 1054 16
l39 16 0 186 c0 103 1 192 2 197 0 6 0 28 -1 50 -2 22 -3 54 -3 70 0 17 -5 33
-11 37 -8 5 -7 8 1 8 11 0 9 42 -3 61 -2 4 1 11 6 14 7 5 5 11 -6 19 -13 10
-14 15 -4 21 10 6 9 9 -1 16 -12 7 -12 9 0 9 11 0 11 3 1 15 -7 8 -9 15 -5 15
4 0 1 8 -6 17 -12 14 -12 16 0 8 10 -6 12 -4 6 5 -4 7 -9 23 -11 34 -2 12 -6
32 -9 46 -4 14 -8 40 -9 57 -2 18 -9 40 -16 48 -10 12 -10 15 1 15 9 0 10 3 4
8 -11 8 -18 27 -19 55 0 9 -4 17 -9 17 -5 0 -7 7 -4 15 4 8 2 17 -4 20 -5 4
-7 10 -4 15 3 5 1 11 -5 15 -6 4 -8 11 -5 16 4 5 1 9 -5 9 -6 0 -8 5 -5 10 3
6 3 16 -2 23 -4 6 -8 17 -9 22 -7 41 -119 301 -183 425 -127 247 -354 600
-503 785 -5 6 -21 26 -36 47 -21 28 -274 332 -452 541 -10 12 -48 58 -85 102
-37 44 -77 91 -89 105 -12 14 -68 81 -126 150 -58 69 -112 134 -122 145 -9 11
-103 124 -209 250 -106 127 -207 245 -224 263 -16 19 -33 40 -38 47 -11 20
-823 20 -834 1z m998 -1531 c30 -33 73 -83 96 -110 23 -28 51 -61 63 -75 26
-30 108 -124 133 -154 10 -11 42 -48 70 -80 78 -88 147 -183 271 -371 126
-192 116 -177 190 -307 99 -173 204 -410 219 -495 l7 -33 -562 0 c-309 0 -558
3 -555 7 4 3 2 12 -4 20 -9 10 -8 13 1 13 10 0 10 3 0 15 -10 12 -10 15 1 16
11 0 11 2 1 6 -10 4 -10 8 -1 19 9 11 8 14 -2 14 -10 0 -10 3 -1 12 8 8 9 15
1 25 -9 10 -8 13 1 13 10 0 10 3 0 15 -10 12 -10 15 1 16 11 0 11 2 1 6 -10 4
-10 8 -1 19 9 11 8 14 -2 14 -10 0 -10 3 -1 12 8 8 9 15 1 25 -9 10 -8 13 1
13 10 0 10 3 0 15 -10 12 -10 15 1 16 11 0 11 2 1 6 -10 4 -10 8 -1 19 9 11 8
14 -2 14 -10 0 -10 3 -1 12 8 8 9 15 1 25 -9 10 -8 13 1 13 10 0 10 3 0 15
-10 12 -10 15 1 15 12 0 12 2 0 9 -9 6 -10 10 -2 16 9 5 9 10 0 21 -9 11 -8
14 2 14 10 0 10 3 1 12 -7 7 -8 17 -1 30 7 13 6 18 -3 18 -9 0 -9 3 0 12 8 8
9 15 1 25 -9 10 -8 13 1 13 10 0 10 3 0 15 -10 12 -10 15 1 16 11 0 11 2 1 6
-10 4 -10 8 -1 19 9 11 8 14 -2 14 -10 0 -10 3 -1 12 8 8 9 15 1 25 -9 10 -8
13 1 13 10 0 10 3 0 15 -10 12 -10 15 1 15 12 0 12 2 0 9 -9 6 -10 10 -2 16 9
5 9 10 0 21 -9 11 -8 14 2 14 10 0 10 3 1 12 -7 7 -8 17 -1 30 7 13 6 18 -3
18 -9 0 -9 3 0 12 8 8 9 15 1 25 -9 10 -8 13 1 13 10 0 10 3 0 15 -10 12 -10
15 1 16 11 0 11 2 1 6 -10 4 -10 8 -1 19 9 11 8 14 -2 14 -10 0 -10 3 -1 12 8
8 9 15 1 25 -9 10 -8 13 1 13 10 0 10 3 0 15 -10 12 -10 15 1 15 12 0 12 2 0
9 -9 6 -10 10 -2 16 9 5 9 10 0 21 -9 11 -8 14 2 14 10 0 10 3 1 12 -7 7 -8
17 -1 30 7 13 6 18 -3 18 -9 0 -9 3 0 12 8 8 9 15 1 25 -9 10 -8 13 1 13 10 0
10 3 0 15 -10 12 -10 15 1 16 11 0 11 2 1 6 -10 4 -10 8 -1 19 9 11 8 14 -2
14 -10 0 -10 3 -1 12 8 8 9 15 1 25 -9 10 -8 13 1 13 10 0 10 3 0 15 -10 12
-10 15 1 15 12 0 12 2 0 9 -9 6 -10 10 -2 16 9 5 9 10 0 21 -9 11 -9 14 1 14
9 0 9 4 2 13 -5 6 -6 21 -2 32 4 11 3 28 -2 38 -6 12 -5 17 4 17 9 0 9 3 -2
10 -12 8 -12 10 -1 10 11 0 11 3 1 15 -10 12 -10 15 1 16 11 0 11 2 1 6 -10 4
-10 8 -1 19 6 8 7 14 2 14 -5 0 -9 10 -7 23 1 12 3 26 3 32 1 5 4 5 10 0 4 -6
32 -37 62 -70z m-1089 -27 c2 -70 1 -1363 -2 -1565 l0 -33 -561 0 -561 0 7 33
c22 100 218 520 270 577 8 9 15 19 15 22 0 18 273 425 327 488 12 14 65 77
119 140 54 63 102 120 108 126 6 6 67 77 136 157 69 81 128 146 132 147 4 0 8
-42 10 -92z"/>
</g>
</svg>
