<svg xmlns="http://www.w3.org/2000/svg" width="1440" height="900"><path d="M720,620L790,687L949,460Z" fill="#c6c2d2" stroke="#c6c2d2" stroke-width="1.51"/><path d="M949,460L766,359L720,620Z" fill="#c9bdcc" stroke="#c9bdcc" stroke-width="1.51"/><path d="M790,687L1092,778L949,460Z" fill="#c3c7d9" stroke="#c3c7d9" stroke-width="1.51"/><path d="M713,935L889,822L790,687Z" fill="#c1cadd" stroke="#c1cadd" stroke-width="1.51"/><path d="M949,460L916,262L766,359Z" fill="#c2c1cd" stroke="#c2c1cd" stroke-width="1.51"/><path d="M720,620L713,935L790,687Z" fill="#c4c6d8" stroke="#c4c6d8" stroke-width="1.51"/><path d="M766,359L547,609L720,620Z" fill="#c7becc" stroke="#c7becc" stroke-width="1.51"/><path d="M889,822L1092,778L790,687Z" fill="#c0cbde" stroke="#c0cbde" stroke-width="1.51"/><path d="M949,460L1194,411L916,262Z" fill="#c1c4d2" stroke="#c1c4d2" stroke-width="1.51"/><path d="M1092,778L1209,465L949,460Z" fill="#c3c8da" stroke="#c3c8da" stroke-width="1.51"/><path d="M1209,465L1194,411L949,460Z" fill="#c4c4d5" stroke="#c4c4d5" stroke-width="1.51"/><path d="M766,359L564,300L547,609Z" fill="#c4bdc8" stroke="#c4bdc8" stroke-width="1.51"/><path d="M591,220L564,300L766,359Z" fill="#bbc1c9" stroke="#bbc1c9" stroke-width="1.51"/><path d="M547,609L469,688L720,620Z" fill="#c0c4d2" stroke="#c0c4d2" stroke-width="1.51"/><path d="M327,479L469,688L547,609Z" fill="#bac5d0" stroke="#bac5d0" stroke-width="1.51"/><path d="M469,688L713,935L720,620Z" fill="#bfc7d8" stroke="#bfc7d8" stroke-width="1.51"/><path d="M889,822L940,980L1092,778Z" fill="#bdd0e5" stroke="#bdd0e5" stroke-width="1.51"/><path d="M623,158L591,220L766,359Z" fill="#b8c2c9" stroke="#b8c2c9" stroke-width="1.51"/><path d="M1194,411L996,168L916,262Z" fill="#b9c7d3" stroke="#b9c7d3" stroke-width="1.51"/><path d="M623,158L766,359L916,262Z" fill="#bbc1cb" stroke="#bbc1cb" stroke-width="1.51"/><path d="M713,935L940,980L889,822Z" fill="#becfe3" stroke="#becfe3" stroke-width="1.51"/><path d="M1194,411L1123,151L996,168Z" fill="#b5cad6" stroke="#b5cad6" stroke-width="1.51"/><path d="M1209,465L1275,406L1194,411Z" fill="#c2c7d8" stroke="#c2c7d8" stroke-width="1.51"/><path d="M1327,554L1275,406L1209,465Z" fill="#c2c9db" stroke="#c2c9db" stroke-width="1.51"/><path d="M730,-32L623,158L916,262Z" fill="#b1c5cb" stroke="#b1c5cb" stroke-width="1.51"/><path d="M1092,778L1297,721L1209,465Z" fill="#bfcee2" stroke="#bfcee2" stroke-width="1.51"/><path d="M1276,927L1297,721L1092,778Z" fill="#bad4eb" stroke="#bad4eb" stroke-width="1.51"/><path d="M1297,721L1327,554L1209,465Z" fill="#bfcde0" stroke="#bfcde0" stroke-width="1.51"/><path d="M996,168L730,-32L916,262Z" fill="#afc8cf" stroke="#afc8cf" stroke-width="1.51"/><path d="M1287,157L1123,151L1194,411Z" fill="#b3ccd9" stroke="#b3ccd9" stroke-width="1.51"/><path d="M469,688L463,899L713,935Z" fill="#b9ccdd" stroke="#b9ccdd" stroke-width="1.51"/><path d="M1071,1099L1128,1053L940,980Z" fill="#bad4ea" stroke="#bad4ea" stroke-width="1.51"/><path d="M358,361L564,300L314,166Z" fill="#aec6ca" stroke="#aec6ca" stroke-width="1.51"/><path d="M358,361L547,609L564,300Z" fill="#bdc0c9" stroke="#bdc0c9" stroke-width="1.51"/><path d="M358,361L327,479L547,609Z" fill="#bbc2cb" stroke="#bbc2cb" stroke-width="1.51"/><path d="M469,688L381,826L463,899Z" fill="#b4cddb" stroke="#b4cddb" stroke-width="1.51"/><path d="M314,166L564,300L591,220Z" fill="#aec6ca" stroke="#aec6ca" stroke-width="1.51"/><path d="M327,479L381,826L469,688Z" fill="#b5c9d4" stroke="#b5c9d4" stroke-width="1.51"/><path d="M1297,721L1577,598L1327,554Z" fill="#bcd2e7" stroke="#bcd2e7" stroke-width="1.51"/><path d="M1128,1053L1276,927L1092,778Z" fill="#b8d7ee" stroke="#b8d7ee" stroke-width="1.51"/><path d="M940,980L1128,1053L1092,778Z" fill="#bad4ea" stroke="#bad4ea" stroke-width="1.51"/><path d="M1071,1099L906,1269L1007,1251Z" fill="#bbd2e8" stroke="#bbd2e8" stroke-width="1.51"/><path d="M798,1281L940,980L713,935Z" fill="#bfcee2" stroke="#bfcee2" stroke-width="1.51"/><path d="M1275,406L1287,157L1194,411Z" fill="#b9cbda" stroke="#b9cbda" stroke-width="1.51"/><path d="M1620,261L1287,157L1275,406Z" fill="#b2d0df" stroke="#b2d0df" stroke-width="1.51"/><path d="M1043,-18L730,-32L996,168Z" fill="#a6cbd1" stroke="#a6cbd1" stroke-width="1.51"/><path d="M623,158L314,166L591,220Z" fill="#abc6cb" stroke="#abc6cb" stroke-width="1.51"/><path d="M1043,-18L996,168L1123,151Z" fill="#aacdd5" stroke="#aacdd5" stroke-width="1.51"/><path d="M463,899L586,1104L713,935Z" fill="#b9cee0" stroke="#b9cee0" stroke-width="1.51"/><path d="M225,1070L586,1104L463,899Z" fill="#b0d1e0" stroke="#b0d1e0" stroke-width="1.51"/><path d="M1352,-82L1043,-18L1123,151Z" fill="#9fd2d9" stroke="#9fd2d9" stroke-width="1.51"/><path d="M441,-154L314,166L623,158Z" fill="#9dcbcb" stroke="#9dcbcb" stroke-width="1.51"/><path d="M358,361L156,437L327,479Z" fill="#b4c4ca" stroke="#b4c4ca" stroke-width="1.51"/><path d="M1043,-18L952,-119L730,-32Z" fill="#a3ccd1" stroke="#a3ccd1" stroke-width="1.51"/><path d="M1125,-242L952,-119L1043,-18Z" fill="#a0cfd5" stroke="#a0cfd5" stroke-width="1.51"/><path d="M381,826L267,928L463,899Z" fill="#aed1e0" stroke="#aed1e0" stroke-width="1.51"/><path d="M160,845L267,928L381,826Z" fill="#a9d3df" stroke="#a9d3df" stroke-width="1.51"/><path d="M160,845L381,826L327,479Z" fill="#afcdd8" stroke="#afcdd8" stroke-width="1.51"/><path d="M1276,927L1449,920L1297,721Z" fill="#b6d9f1" stroke="#b6d9f1" stroke-width="1.51"/><path d="M1128,1053L1306,1078L1276,927Z" fill="#b6d8f0" stroke="#b6d8f0" stroke-width="1.51"/><path d="M1216,1310L1306,1078L1128,1053Z" fill="#b7d8ef" stroke="#b7d8ef" stroke-width="1.51"/><path d="M183,185L156,437L358,361Z" fill="#a9c7cb" stroke="#a9c7cb" stroke-width="1.51"/><path d="M561,1267L678,1239L586,1104Z" fill="#bacde0" stroke="#bacde0" stroke-width="1.51"/><path d="M586,1104L678,1239L713,935Z" fill="#bdccdf" stroke="#bdccdf" stroke-width="1.51"/><path d="M1071,1099L1216,1310L1128,1053Z" fill="#b8d6ed" stroke="#b8d6ed" stroke-width="1.51"/><path d="M1306,1078L1449,920L1276,927Z" fill="#b4dbf4" stroke="#b4dbf4" stroke-width="1.51"/><path d="M1327,554L1649,341L1275,406Z" fill="#bfccde" stroke="#bfccde" stroke-width="1.51"/><path d="M1449,920L1500,820L1297,721Z" fill="#b5daf2" stroke="#b5daf2" stroke-width="1.51"/><path d="M906,1269L1071,1099L940,980Z" fill="#bbd2e7" stroke="#bbd2e7" stroke-width="1.51"/><path d="M798,1281L906,1269L940,980Z" fill="#bdd0e4" stroke="#bdd0e4" stroke-width="1.51"/><path d="M678,1239L798,1281L713,935Z" fill="#c0cce0" stroke="#c0cce0" stroke-width="1.51"/><path d="M1500,820L1577,598L1297,721Z" fill="#b8d6ed" stroke="#b8d6ed" stroke-width="1.51"/><path d="M49,593L160,845L327,479Z" fill="#abccd4" stroke="#abccd4" stroke-width="1.51"/><path d="M251,-33L183,185L314,166Z" fill="#96cdcc" stroke="#96cdcc" stroke-width="1.51"/><path d="M314,166L183,185L358,361Z" fill="#a4c9cb" stroke="#a4c9cb" stroke-width="1.51"/><path d="M225,1070L561,1267L586,1104Z" fill="#b2d0e0" stroke="#b2d0e0" stroke-width="1.51"/><path d="M678,1239L561,1267L798,1281Z" fill="#becddf" stroke="#becddf" stroke-width="1.51"/><path d="M225,1070L463,899L267,928Z" fill="#aad3e1" stroke="#aad3e1" stroke-width="1.51"/><path d="M730,-32L441,-154L623,158Z" fill="#a0cacb" stroke="#a0cacb" stroke-width="1.51"/><path d="M952,-119L816,-224L730,-32Z" fill="#a5cbce" stroke="#a5cbce" stroke-width="1.51"/><path d="M-72,429L49,593L156,437Z" fill="#a9c9cd" stroke="#a9c9cd" stroke-width="1.51"/><path d="M156,437L49,593L327,479Z" fill="#afc6cd" stroke="#afc6cd" stroke-width="1.51"/><path d="M202,1068L267,928L160,845Z" fill="#a4d5e1" stroke="#a4d5e1" stroke-width="1.51"/><path d="M202,1068L225,1070L267,928Z" fill="#a5d5e1" stroke="#a5d5e1" stroke-width="1.51"/><path d="M952,-119L907,-259L816,-224Z" fill="#a4ccd0" stroke="#a4ccd0" stroke-width="1.51"/><path d="M1287,157L1352,-82L1123,151Z" fill="#a3d2dc" stroke="#a3d2dc" stroke-width="1.51"/><path d="M1600,184L1352,-82L1287,157Z" fill="#a0d6e1" stroke="#a0d6e1" stroke-width="1.51"/><path d="M1125,-242L907,-259L952,-119Z" fill="#a2ced4" stroke="#a2ced4" stroke-width="1.51"/><path d="M490,-192L730,-32L816,-224Z" fill="#a4c9cb" stroke="#a4c9cb" stroke-width="1.51"/><path d="M490,-192L441,-154L730,-32Z" fill="#9ecbcb" stroke="#9ecbcb" stroke-width="1.51"/><path d="M225,1070L293,1412L561,1267Z" fill="#add2e1" stroke="#add2e1" stroke-width="1.51"/><path d="M24,903L202,1068L160,845Z" fill="#9fd7e2" stroke="#9fd7e2" stroke-width="1.51"/><path d="M1649,341L1620,261L1275,406Z" fill="#b6cfe0" stroke="#b6cfe0" stroke-width="1.51"/><path d="M183,-297L490,-192L816,-224Z" fill="#9acccc" stroke="#9acccc" stroke-width="1.51"/><path d="M1577,598L1649,341L1327,554Z" fill="#bfcee2" stroke="#bfcee2" stroke-width="1.51"/><path d="M1007,1251L1216,1310L1071,1099Z" fill="#b9d5eb" stroke="#b9d5eb" stroke-width="1.51"/><path d="M1734,921L1685,851L1449,920Z" fill="#b2ddf7" stroke="#b2ddf7" stroke-width="1.51"/><path d="M906,1269L1216,1310L1007,1251Z" fill="#bad4ea" stroke="#bad4ea" stroke-width="1.51"/><path d="M1348,1366L1216,1310L906,1269Z" fill="#b8d6ed" stroke="#b8d6ed" stroke-width="1.51"/><path d="M1348,1366L906,1269L798,1281Z" fill="#bbd3e9" stroke="#bbd3e9" stroke-width="1.51"/><path d="M145,-48L251,-33L253,-242Z" fill="#88d1cd" stroke="#88d1cd" stroke-width="1.51"/><path d="M441,-154L251,-33L314,166Z" fill="#90cfcc" stroke="#90cfcc" stroke-width="1.51"/><path d="M-37,188L-72,429L156,437Z" fill="#9fcacb" stroke="#9fcacb" stroke-width="1.51"/><path d="M1739,109L1600,184L1620,261Z" fill="#a9d3e1" stroke="#a9d3e1" stroke-width="1.51"/><path d="M1620,261L1600,184L1287,157Z" fill="#abd3e1" stroke="#abd3e1" stroke-width="1.51"/><path d="M1352,-82L1125,-242L1043,-18Z" fill="#9ed2d9" stroke="#9ed2d9" stroke-width="1.51"/><path d="M1577,598L1721,593L1649,341Z" fill="#bfcee2" stroke="#bfcee2" stroke-width="1.51"/><path d="M1685,851L1721,593L1577,598Z" fill="#bad5eb" stroke="#bad5eb" stroke-width="1.51"/><path d="M1685,851L1577,598L1500,820Z" fill="#b7d8ef" stroke="#b7d8ef" stroke-width="1.51"/><path d="M1685,851L1500,820L1449,920Z" fill="#b4dcf5" stroke="#b4dcf5" stroke-width="1.51"/><path d="M1659,1108L1449,920L1626,1174Z" fill="#b2ddf7" stroke="#b2ddf7" stroke-width="1.51"/><path d="M49,593L24,903L160,845Z" fill="#a0d3db" stroke="#a0d3db" stroke-width="1.51"/><path d="M253,-242L251,-33L441,-154Z" fill="#8fcfcc" stroke="#8fcfcc" stroke-width="1.51"/><path d="M251,-33L145,-48L183,185Z" fill="#8bd0cd" stroke="#8bd0cd" stroke-width="1.51"/><path d="M-37,188L156,437L183,185Z" fill="#9dcbcb" stroke="#9dcbcb" stroke-width="1.51"/><path d="M49,593L-118,828L24,903Z" fill="#9cd4dc" stroke="#9cd4dc" stroke-width="1.51"/><path d="M1216,1310L1348,1366L1306,1078Z" fill="#b5daf2" stroke="#b5daf2" stroke-width="1.51"/><path d="M293,1412L1348,1366L798,1281Z" fill="#bfcee2" stroke="#bfcee2" stroke-width="1.51"/><path d="M145,-48L-37,188L183,185Z" fill="#8cd0cd" stroke="#8cd0cd" stroke-width="1.51"/><path d="M1685,851L2019,697L1721,593Z" fill="#b8d6ed" stroke="#b8d6ed" stroke-width="1.51"/><path d="M1659,1108L1734,921L1449,920Z" fill="#b2ddf7" stroke="#b2ddf7" stroke-width="1.51"/><path d="M1732,9L1529,-119L1600,184Z" fill="#99d8e2" stroke="#99d8e2" stroke-width="1.51"/><path d="M1600,184L1529,-119L1352,-82Z" fill="#97d9e2" stroke="#97d9e2" stroke-width="1.51"/><path d="M1352,-82L1381,-299L1125,-242Z" fill="#9bd5dd" stroke="#9bd5dd" stroke-width="1.51"/><path d="M1739,109L1620,261L1879,173Z" fill="#a9d3e1" stroke="#a9d3e1" stroke-width="1.51"/><path d="M1626,1174L1449,920L1306,1078Z" fill="#b2ddf7" stroke="#b2ddf7" stroke-width="1.51"/><path d="M1348,1366L1626,1174L1306,1078Z" fill="#b3ddf6" stroke="#b3ddf6" stroke-width="1.51"/><path d="M145,-48L-125,-4L-37,188Z" fill="#7fd3cd" stroke="#7fd3cd" stroke-width="1.51"/><path d="M490,-192L253,-242L441,-154Z" fill="#94cdcc" stroke="#94cdcc" stroke-width="1.51"/><path d="M183,-297L253,-242L490,-192Z" fill="#8fcfcc" stroke="#8fcfcc" stroke-width="1.51"/><path d="M1895,368L1649,341L1721,593Z" fill="#bfccdf" stroke="#bfccdf" stroke-width="1.51"/><path d="M1879,173L1620,261L1649,341Z" fill="#b0d1e1" stroke="#b0d1e1" stroke-width="1.51"/><path d="M-167,591L-118,828L49,593Z" fill="#a0d0d6" stroke="#a0d0d6" stroke-width="1.51"/><path d="M57,1312L225,1070L202,1068Z" fill="#a1d6e2" stroke="#a1d6e2" stroke-width="1.51"/><path d="M1484,-232L1352,-82L1529,-119Z" fill="#97d9e2" stroke="#97d9e2" stroke-width="1.51"/><path d="M1484,-232L1381,-299L1352,-82Z" fill="#98d8e1" stroke="#98d8e1" stroke-width="1.51"/><path d="M1125,-242L1381,-299L907,-259Z" fill="#9ed1d8" stroke="#9ed1d8" stroke-width="1.51"/><path d="M907,-259L183,-297L816,-224Z" fill="#a2c9cb" stroke="#a2c9cb" stroke-width="1.51"/><path d="M-301,423L-167,591L-72,429Z" fill="#a6c9cc" stroke="#a6c9cc" stroke-width="1.51"/><path d="M-72,429L-167,591L49,593Z" fill="#a4cbcf" stroke="#a4cbcf" stroke-width="1.51"/><path d="M1644,-261L1484,-232L1529,-119Z" fill="#97d9e2" stroke="#97d9e2" stroke-width="1.51"/><path d="M561,1267L293,1412L798,1281Z" fill="#b7cfe0" stroke="#b7cfe0" stroke-width="1.51"/><path d="M57,1312L293,1412L225,1070Z" fill="#a3d6e1" stroke="#a3d6e1" stroke-width="1.51"/><path d="M57,1312L202,1068L-97,1171Z" fill="#9ad8e2" stroke="#9ad8e2" stroke-width="1.51"/><path d="M1739,109L1732,9L1600,184Z" fill="#a1d6e2" stroke="#a1d6e2" stroke-width="1.51"/><path d="M2010,482L1895,368L1721,593Z" fill="#bfcde1" stroke="#bfcde1" stroke-width="1.51"/><path d="M1739,109L1879,173L1732,9Z" fill="#a1d6e2" stroke="#a1d6e2" stroke-width="1.51"/><path d="M253,-242L183,-297L145,-48Z" fill="#87d1cd" stroke="#87d1cd" stroke-width="1.51"/><path d="M1381,-299L183,-297L907,-259Z" fill="#a5cace" stroke="#a5cace" stroke-width="1.51"/><path d="M-97,1171L202,1068L24,903Z" fill="#99d8e2" stroke="#99d8e2" stroke-width="1.51"/><path d="M-118,828L-163,987L24,903Z" fill="#97d9e2" stroke="#97d9e2" stroke-width="1.51"/><path d="M-212,984L-163,987L-118,828Z" fill="#97d9e2" stroke="#97d9e2" stroke-width="1.51"/><path d="M1895,368L1879,173L1649,341Z" fill="#b3d0e0" stroke="#b3d0e0" stroke-width="1.51"/><path d="M-167,591L-249,719L-118,828Z" fill="#9ed1d8" stroke="#9ed1d8" stroke-width="1.51"/><path d="M-366,641L-249,719L-167,591Z" fill="#a0cfd5" stroke="#a0cfd5" stroke-width="1.51"/><path d="M-143,-204L-125,-4L145,-48Z" fill="#79d4ce" stroke="#79d4ce" stroke-width="1.51"/><path d="M-253,186L-301,423L-72,429Z" fill="#9ecbcb" stroke="#9ecbcb" stroke-width="1.51"/><path d="M-163,987L-97,1171L24,903Z" fill="#97d9e2" stroke="#97d9e2" stroke-width="1.51"/><path d="M-163,987L-236,1191L-97,1171Z" fill="#97d9e2" stroke="#97d9e2" stroke-width="1.51"/><path d="M-249,719L-212,984L-118,828Z" fill="#99d7df" stroke="#99d7df" stroke-width="1.51"/><path d="M1915,-171L1644,-261L1732,9Z" fill="#97d9e2" stroke="#97d9e2" stroke-width="1.51"/><path d="M1732,9L1644,-261L1529,-119Z" fill="#97d9e2" stroke="#97d9e2" stroke-width="1.51"/><path d="M1484,-232L1644,-261L1381,-299Z" fill="#97d9e2" stroke="#97d9e2" stroke-width="1.51"/><path d="M1734,921L1928,942L1685,851Z" fill="#b2ddf7" stroke="#b2ddf7" stroke-width="1.51"/><path d="M1659,1108L1928,942L1734,921Z" fill="#b2ddf7" stroke="#b2ddf7" stroke-width="1.51"/><path d="M1626,1174L1731,1283L1659,1108Z" fill="#b2ddf7" stroke="#b2ddf7" stroke-width="1.51"/><path d="M1624,1423L1731,1283L1626,1174Z" fill="#b2ddf7" stroke="#b2ddf7" stroke-width="1.51"/><path d="M1731,1283L1928,942L1659,1108Z" fill="#b2ddf7" stroke="#b2ddf7" stroke-width="1.51"/><path d="M-253,186L-72,429L-37,188Z" fill="#96cdcc" stroke="#96cdcc" stroke-width="1.51"/><path d="M-249,719L-366,641L-212,984Z" fill="#9cd4dc" stroke="#9cd4dc" stroke-width="1.51"/><path d="M-125,-4L-253,186L-37,188Z" fill="#87d1cd" stroke="#87d1cd" stroke-width="1.51"/><path d="M293,1412L1624,1423L1348,1366Z" fill="#bad5eb" stroke="#bad5eb" stroke-width="1.51"/><path d="M1348,1366L1624,1423L1626,1174Z" fill="#b2ddf7" stroke="#b2ddf7" stroke-width="1.51"/><path d="M-221,1319L-49,1303L-97,1171Z" fill="#97d9e2" stroke="#97d9e2" stroke-width="1.51"/><path d="M-97,1171L-49,1303L57,1312Z" fill="#97d9e2" stroke="#97d9e2" stroke-width="1.51"/><path d="M57,1312L-49,1303L293,1412Z" fill="#9dd7e2" stroke="#9dd7e2" stroke-width="1.51"/><path d="M1895,368L2010,482L1879,173Z" fill="#b7cfe0" stroke="#b7cfe0" stroke-width="1.51"/><path d="M2019,697L2010,482L1721,593Z" fill="#bcd1e7" stroke="#bcd1e7" stroke-width="1.51"/><path d="M1928,942L2019,697L1685,851Z" fill="#b5dbf3" stroke="#b5dbf3" stroke-width="1.51"/><path d="M-382,-342L-366,641L-301,423Z" fill="#94cecc" stroke="#94cecc" stroke-width="1.51"/><path d="M-301,423L-366,641L-167,591Z" fill="#a4ccd0" stroke="#a4ccd0" stroke-width="1.51"/><path d="M-125,-4L-261,-88L-253,186Z" fill="#7dd3ce" stroke="#7dd3ce" stroke-width="1.51"/><path d="M183,-297L-143,-204L145,-48Z" fill="#7ed3cd" stroke="#7ed3cd" stroke-width="1.51"/><path d="M-366,641L-236,1191L-212,984Z" fill="#97d9e2" stroke="#97d9e2" stroke-width="1.51"/><path d="M-212,984L-236,1191L-163,987Z" fill="#97d9e2" stroke="#97d9e2" stroke-width="1.51"/><path d="M1879,173L1977,-2L1732,9Z" fill="#9dd7e2" stroke="#9dd7e2" stroke-width="1.51"/><path d="M2010,482L1977,-2L1879,173Z" fill="#acd2e1" stroke="#acd2e1" stroke-width="1.51"/><path d="M-143,-204L-261,-88L-125,-4Z" fill="#79d4ce" stroke="#79d4ce" stroke-width="1.51"/><path d="M-253,186L-382,-342L-301,423Z" fill="#83d2cd" stroke="#83d2cd" stroke-width="1.51"/><path d="M1977,-2L1915,-171L1732,9Z" fill="#97d9e2" stroke="#97d9e2" stroke-width="1.51"/><path d="M-236,1191L-221,1319L-97,1171Z" fill="#97d9e2" stroke="#97d9e2" stroke-width="1.51"/><path d="M-49,1303L-221,1319L293,1412Z" fill="#97d9e2" stroke="#97d9e2" stroke-width="1.51"/><path d="M-366,641L-221,1319L-236,1191Z" fill="#97d9e2" stroke="#97d9e2" stroke-width="1.51"/><path d="M1928,942L2027,1246L2019,697Z" fill="#b2ddf7" stroke="#b2ddf7" stroke-width="1.51"/><path d="M1731,1283L2027,1246L1928,942Z" fill="#b2ddf7" stroke="#b2ddf7" stroke-width="1.51"/><path d="M1624,1423L1843,1422L1731,1283Z" fill="#b2ddf7" stroke="#b2ddf7" stroke-width="1.51"/><path d="M1843,1422L2027,1246L1731,1283Z" fill="#b2ddf7" stroke="#b2ddf7" stroke-width="1.51"/><path d="M-143,-204L-382,-342L-261,-88Z" fill="#79d4ce" stroke="#79d4ce" stroke-width="1.51"/><path d="M-261,-88L-382,-342L-253,186Z" fill="#79d4ce" stroke="#79d4ce" stroke-width="1.51"/><path d="M183,-297L-382,-342L-143,-204Z" fill="#79d4ce" stroke="#79d4ce" stroke-width="1.51"/><path d="M1381,-299L-382,-342L183,-297Z" fill="#94cecc" stroke="#94cecc" stroke-width="1.51"/></svg>