<svg xmlns="http://www.w3.org/2000/svg" width="1440" height="900"><path d="M746,415L599,262L634,421Z" fill="#c7bccb" stroke="#c7bccb" stroke-width="1.51"/><path d="M746,415L842,234L599,262Z" fill="#c6bdca" stroke="#c6bdca" stroke-width="1.51"/><path d="M842,234L695,127L599,262Z" fill="#c2bfce" stroke="#c2bfce" stroke-width="1.51"/><path d="M746,415L899,296L842,234Z" fill="#c9b5c2" stroke="#c9b5c2" stroke-width="1.51"/><path d="M842,234L729,104L695,127Z" fill="#c2bdcc" stroke="#c2bdcc" stroke-width="1.51"/><path d="M934,72L729,104L842,234Z" fill="#c4b8c5" stroke="#c4b8c5" stroke-width="1.51"/><path d="M599,262L414,429L634,421Z" fill="#c4becc" stroke="#c4becc" stroke-width="1.51"/><path d="M695,127L476,203L599,262Z" fill="#bfc1d0" stroke="#bfc1d0" stroke-width="1.51"/><path d="M403,36L476,203L507,-73Z" fill="#b8c5d5" stroke="#b8c5d5" stroke-width="1.51"/><path d="M476,203L414,429L599,262Z" fill="#c1c0cf" stroke="#c1c0cf" stroke-width="1.51"/><path d="M634,421L584,603L746,415Z" fill="#cab8c5" stroke="#cab8c5" stroke-width="1.51"/><path d="M746,415L1016,461L899,296Z" fill="#cdafbb" stroke="#cdafbb" stroke-width="1.51"/><path d="M414,429L584,603L634,421Z" fill="#c8b8c5" stroke="#c8b8c5" stroke-width="1.51"/><path d="M414,429L511,617L584,603Z" fill="#cbb1bd" stroke="#cbb1bd" stroke-width="1.51"/><path d="M899,296L934,72L842,234Z" fill="#c7b3bf" stroke="#c7b3bf" stroke-width="1.51"/><path d="M987,559L1016,461L746,415Z" fill="#d0a9b3" stroke="#d0a9b3" stroke-width="1.51"/><path d="M899,296L1102,214L934,72Z" fill="#caacb7" stroke="#caacb7" stroke-width="1.51"/><path d="M584,603L801,678L746,415Z" fill="#cfadb8" stroke="#cfadb8" stroke-width="1.51"/><path d="M769,728L801,678L584,603Z" fill="#d3a0a9" stroke="#d3a0a9" stroke-width="1.51"/><path d="M801,678L987,559L746,415Z" fill="#d2a6af" stroke="#d2a6af" stroke-width="1.51"/><path d="M507,-73L476,203L695,127Z" fill="#bbc3d3" stroke="#bbc3d3" stroke-width="1.51"/><path d="M934,72L849,-22L729,104Z" fill="#c1b9c7" stroke="#c1b9c7" stroke-width="1.51"/><path d="M288,206L307,490L414,429Z" fill="#c0c0d0" stroke="#c0c0d0" stroke-width="1.51"/><path d="M507,-73L695,127L694,-125Z" fill="#b9c4d4" stroke="#b9c4d4" stroke-width="1.51"/><path d="M801,678L1071,722L987,559Z" fill="#d69197" stroke="#d69197" stroke-width="1.51"/><path d="M626,771L769,728L584,603Z" fill="#d39ea6" stroke="#d39ea6" stroke-width="1.51"/><path d="M414,429L307,490L511,617Z" fill="#c7b7c3" stroke="#c7b7c3" stroke-width="1.51"/><path d="M288,206L414,429L476,203Z" fill="#bec2d1" stroke="#bec2d1" stroke-width="1.51"/><path d="M341,85L288,206L476,203Z" fill="#bac4d4" stroke="#bac4d4" stroke-width="1.51"/><path d="M403,36L341,85L476,203Z" fill="#b8c5d5" stroke="#b8c5d5" stroke-width="1.51"/><path d="M934,72L915,-121L849,-22Z" fill="#c2b6c3" stroke="#c2b6c3" stroke-width="1.51"/><path d="M1016,461L1102,214L899,296Z" fill="#cea8b2" stroke="#cea8b2" stroke-width="1.51"/><path d="M1269,417L1102,214L1016,461Z" fill="#d29ea6" stroke="#d29ea6" stroke-width="1.51"/><path d="M403,36L338,-56L341,85Z" fill="#b4c7d8" stroke="#b4c7d8" stroke-width="1.51"/><path d="M694,-125L695,127L729,104Z" fill="#bcc2d2" stroke="#bcc2d2" stroke-width="1.51"/><path d="M511,617L626,771L584,603Z" fill="#d0a3ac" stroke="#d0a3ac" stroke-width="1.51"/><path d="M402,776L626,771L511,617Z" fill="#d19da5" stroke="#d19da5" stroke-width="1.51"/><path d="M849,-22L694,-125L729,104Z" fill="#bdc0cf" stroke="#bdc0cf" stroke-width="1.51"/><path d="M694,-125L635,-168L507,-73Z" fill="#b9c4d4" stroke="#b9c4d4" stroke-width="1.51"/><path d="M752,-293L635,-168L694,-125Z" fill="#bbc3d3" stroke="#bbc3d3" stroke-width="1.51"/><path d="M849,-22L915,-121L694,-125Z" fill="#bfbcca" stroke="#bfbcca" stroke-width="1.51"/><path d="M1081,-52L915,-121L934,72Z" fill="#c4b1bc" stroke="#c4b1bc" stroke-width="1.51"/><path d="M1102,214L1107,35L934,72Z" fill="#caa9b3" stroke="#caa9b3" stroke-width="1.51"/><path d="M507,-73L338,-56L403,36Z" fill="#b4c6d7" stroke="#b4c6d7" stroke-width="1.51"/><path d="M67,156L112,285L288,206Z" fill="#b7c5d6" stroke="#b7c5d6" stroke-width="1.51"/><path d="M326,-217L338,-56L507,-73Z" fill="#b4c7d8" stroke="#b4c7d8" stroke-width="1.51"/><path d="M987,559L1167,517L1016,461Z" fill="#d49ba2" stroke="#d49ba2" stroke-width="1.51"/><path d="M1102,214L1261,29L1107,35Z" fill="#cba2aa" stroke="#cba2aa" stroke-width="1.51"/><path d="M1157,701L1167,517L987,559Z" fill="#d68d93" stroke="#d68d93" stroke-width="1.51"/><path d="M318,720L402,776L511,617Z" fill="#cfa0a9" stroke="#cfa0a9" stroke-width="1.51"/><path d="M207,640L318,720L307,490Z" fill="#c9acb7" stroke="#c9acb7" stroke-width="1.51"/><path d="M307,490L318,720L511,617Z" fill="#cbacb7" stroke="#cbacb7" stroke-width="1.51"/><path d="M769,728L902,822L801,678Z" fill="#d69096" stroke="#d69096" stroke-width="1.51"/><path d="M692,942L902,822L769,728Z" fill="#d7888d" stroke="#d7888d" stroke-width="1.51"/><path d="M692,942L769,728L626,771Z" fill="#d69096" stroke="#d69096" stroke-width="1.51"/><path d="M1107,35L1081,-52L934,72Z" fill="#c7abb6" stroke="#c7abb6" stroke-width="1.51"/><path d="M112,285L155,475L307,490Z" fill="#bec1d1" stroke="#bec1d1" stroke-width="1.51"/><path d="M112,285L307,490L288,206Z" fill="#bcc3d2" stroke="#bcc3d2" stroke-width="1.51"/><path d="M902,822L1071,722L801,678Z" fill="#d7898e" stroke="#d7898e" stroke-width="1.51"/><path d="M155,475L207,640L307,490Z" fill="#c5b6c3" stroke="#c5b6c3" stroke-width="1.51"/><path d="M67,156L288,206L341,85Z" fill="#b6c6d7" stroke="#b6c6d7" stroke-width="1.51"/><path d="M1337,687L1269,417L1167,517Z" fill="#d7888d" stroke="#d7888d" stroke-width="1.51"/><path d="M1167,517L1269,417L1016,461Z" fill="#d499a0" stroke="#d499a0" stroke-width="1.51"/><path d="M1107,35L1261,29L1081,-52Z" fill="#c9a4ad" stroke="#c9a4ad" stroke-width="1.51"/><path d="M1071,722L1157,701L987,559Z" fill="#d7888c" stroke="#d7888c" stroke-width="1.51"/><path d="M1125,1004L1157,701L1071,722Z" fill="#d87175" stroke="#d87175" stroke-width="1.51"/><path d="M458,938L692,942L626,771Z" fill="#d5898e" stroke="#d5898e" stroke-width="1.51"/><path d="M902,822L946,910L1071,722Z" fill="#d87b80" stroke="#d87b80" stroke-width="1.51"/><path d="M915,-121L752,-293L694,-125Z" fill="#bebecd" stroke="#bebecd" stroke-width="1.51"/><path d="M635,-168L469,-259L507,-73Z" fill="#b7c5d6" stroke="#b7c5d6" stroke-width="1.51"/><path d="M914,-303L752,-293L915,-121Z" fill="#c0b9c6" stroke="#c0b9c6" stroke-width="1.51"/><path d="M752,-293L469,-259L635,-168Z" fill="#b9c4d4" stroke="#b9c4d4" stroke-width="1.51"/><path d="M153,-142L67,156L341,85Z" fill="#b0c9da" stroke="#b0c9da" stroke-width="1.51"/><path d="M793,1011L946,910L902,822Z" fill="#d8797d" stroke="#d8797d" stroke-width="1.51"/><path d="M-25,558L131,663L155,475Z" fill="#c4b4c1" stroke="#c4b4c1" stroke-width="1.51"/><path d="M153,-142L341,85L338,-56Z" fill="#b1c8d9" stroke="#b1c8d9" stroke-width="1.51"/><path d="M1269,417L1325,232L1102,214Z" fill="#d2989f" stroke="#d2989f" stroke-width="1.51"/><path d="M1192,-292L914,-303L915,-121Z" fill="#c5aeb9" stroke="#c5aeb9" stroke-width="1.51"/><path d="M1325,232L1261,29L1102,214Z" fill="#ce9ba2" stroke="#ce9ba2" stroke-width="1.51"/><path d="M402,776L458,938L626,771Z" fill="#d39097" stroke="#d39097" stroke-width="1.51"/><path d="M242,985L458,938L402,776Z" fill="#d38a8f" stroke="#d38a8f" stroke-width="1.51"/><path d="M207,640L177,811L318,720Z" fill="#cda1a9" stroke="#cda1a9" stroke-width="1.51"/><path d="M155,475L131,663L207,640Z" fill="#c6b0bc" stroke="#c6b0bc" stroke-width="1.51"/><path d="M-25,558L155,475L-138,400Z" fill="#bdc0cf" stroke="#bdc0cf" stroke-width="1.51"/><path d="M469,-259L326,-217L507,-73Z" fill="#b4c6d7" stroke="#b4c6d7" stroke-width="1.51"/><path d="M177,811L402,776L318,720Z" fill="#cf9aa2" stroke="#cf9aa2" stroke-width="1.51"/><path d="M1192,-292L915,-121L1081,-52Z" fill="#c7aab5" stroke="#c7aab5" stroke-width="1.51"/><path d="M67,156L16,247L112,285Z" fill="#b5c6d7" stroke="#b5c6d7" stroke-width="1.51"/><path d="M844,1087L793,1011L710,1108Z" fill="#d88085" stroke="#d88085" stroke-width="1.51"/><path d="M692,942L793,1011L902,822Z" fill="#d87f84" stroke="#d87f84" stroke-width="1.51"/><path d="M131,663L177,811L207,640Z" fill="#cba4ad" stroke="#cba4ad" stroke-width="1.51"/><path d="M326,-217L153,-142L338,-56Z" fill="#b1c8da" stroke="#b1c8da" stroke-width="1.51"/><path d="M67,156L-53,84L16,247Z" fill="#b1c8da" stroke="#b1c8da" stroke-width="1.51"/><path d="M1157,701L1337,687L1167,517Z" fill="#d87f84" stroke="#d87f84" stroke-width="1.51"/><path d="M1269,417L1467,272L1325,232Z" fill="#d38f94" stroke="#d38f94" stroke-width="1.51"/><path d="M1384,716L1337,687L1157,701Z" fill="#d87175" stroke="#d87175" stroke-width="1.51"/><path d="M1384,716L1157,701L1125,1004Z" fill="#d8696c" stroke="#d8696c" stroke-width="1.51"/><path d="M-138,400L155,475L112,285Z" fill="#bac3d4" stroke="#bac3d4" stroke-width="1.51"/><path d="M131,663L-35,843L177,811Z" fill="#cc9da4" stroke="#cc9da4" stroke-width="1.51"/><path d="M16,247L-138,400L112,285Z" fill="#b6c5d6" stroke="#b6c5d6" stroke-width="1.51"/><path d="M153,-142L-53,84L67,156Z" fill="#adcadc" stroke="#adcadc" stroke-width="1.51"/><path d="M793,1011L844,1087L946,910Z" fill="#d87a7e" stroke="#d87a7e" stroke-width="1.51"/><path d="M710,1108L793,1011L692,942Z" fill="#d78489" stroke="#d78489" stroke-width="1.51"/><path d="M458,938L710,1108L692,942Z" fill="#d6868b" stroke="#d6868b" stroke-width="1.51"/><path d="M399,1064L710,1108L458,938Z" fill="#d5888d" stroke="#d5888d" stroke-width="1.51"/><path d="M1566,55L1478,-94L1261,29Z" fill="#ce8f95" stroke="#ce8f95" stroke-width="1.51"/><path d="M1514,472L1467,272L1269,417Z" fill="#d5888d" stroke="#d5888d" stroke-width="1.51"/><path d="M242,985L399,1064L458,938Z" fill="#d28a8f" stroke="#d28a8f" stroke-width="1.51"/><path d="M1261,29L1249,-229L1081,-52Z" fill="#caa1a9" stroke="#caa1a9" stroke-width="1.51"/><path d="M1382,-137L1249,-229L1261,29Z" fill="#cc99a0" stroke="#cc99a0" stroke-width="1.51"/><path d="M177,811L242,985L402,776Z" fill="#d09096" stroke="#d09096" stroke-width="1.51"/><path d="M79,1027L242,985L177,811Z" fill="#d08d92" stroke="#d08d92" stroke-width="1.51"/><path d="M1249,-229L1192,-292L1081,-52Z" fill="#c9a2ab" stroke="#c9a2ab" stroke-width="1.51"/><path d="M1502,607L1514,472L1269,417Z" fill="#d78084" stroke="#d78084" stroke-width="1.51"/><path d="M1125,1004L1071,722L946,910Z" fill="#d86e71" stroke="#d86e71" stroke-width="1.51"/><path d="M844,1087L1125,1004L946,910Z" fill="#d87175" stroke="#d87175" stroke-width="1.51"/><path d="M153,-142L-134,0L-53,84Z" fill="#aacbde" stroke="#aacbde" stroke-width="1.51"/><path d="M326,-217L100,-250L153,-142Z" fill="#afc9db" stroke="#afc9db" stroke-width="1.51"/><path d="M8,-319L100,-250L326,-217Z" fill="#aecadc" stroke="#aecadc" stroke-width="1.51"/><path d="M8,-319L326,-217L469,-259Z" fill="#b1c8da" stroke="#b1c8da" stroke-width="1.51"/><path d="M-25,558L-35,843L131,663Z" fill="#c8a7b1" stroke="#c8a7b1" stroke-width="1.51"/><path d="M-155,323L-138,400L16,247Z" fill="#b7c5d6" stroke="#b7c5d6" stroke-width="1.51"/><path d="M1249,-229L1506,-276L1192,-292Z" fill="#cc989e" stroke="#cc989e" stroke-width="1.51"/><path d="M1478,-94L1382,-137L1261,29Z" fill="#cd949a" stroke="#cd949a" stroke-width="1.51"/><path d="M-184,143L-155,323L16,247Z" fill="#b3c7d8" stroke="#b3c7d8" stroke-width="1.51"/><path d="M1566,55L1261,29L1325,232Z" fill="#cf9197" stroke="#cf9197" stroke-width="1.51"/><path d="M1502,607L1269,417L1337,687Z" fill="#d87c80" stroke="#d87c80" stroke-width="1.51"/><path d="M1384,716L1502,607L1337,687Z" fill="#d86c6f" stroke="#d86c6f" stroke-width="1.51"/><path d="M1495,780L1502,607L1384,716Z" fill="#d86569" stroke="#d86569" stroke-width="1.51"/><path d="M-138,400L-173,523L-25,558Z" fill="#bebecd" stroke="#bebecd" stroke-width="1.51"/><path d="M-155,323L-173,523L-138,400Z" fill="#bac3d4" stroke="#bac3d4" stroke-width="1.51"/><path d="M-155,323L-213,645L-173,523Z" fill="#bebdcc" stroke="#bebdcc" stroke-width="1.51"/><path d="M-53,84L-184,143L16,247Z" fill="#b0c8da" stroke="#b0c8da" stroke-width="1.51"/><path d="M100,-250L-134,0L153,-142Z" fill="#abcbdd" stroke="#abcbdd" stroke-width="1.51"/><path d="M-213,645L-35,843L-25,558Z" fill="#c7a8b2" stroke="#c7a8b2" stroke-width="1.51"/><path d="M-134,0L-184,143L-53,84Z" fill="#adcadc" stroke="#adcadc" stroke-width="1.51"/><path d="M1382,-137L1506,-276L1249,-229Z" fill="#cd9399" stroke="#cd9399" stroke-width="1.51"/><path d="M1566,55L1325,232L1467,272Z" fill="#d28b90" stroke="#d28b90" stroke-width="1.51"/><path d="M79,1027L217,1097L242,985Z" fill="#d08d91" stroke="#d08d91" stroke-width="1.51"/><path d="M242,985L217,1097L399,1064Z" fill="#d28b90" stroke="#d28b90" stroke-width="1.51"/><path d="M399,1064L150,1202L710,1108Z" fill="#d3898e" stroke="#d3898e" stroke-width="1.51"/><path d="M-35,843L-18,912L177,811Z" fill="#cd949a" stroke="#cd949a" stroke-width="1.51"/><path d="M-181,822L-18,912L-35,843Z" fill="#cd949a" stroke="#cd949a" stroke-width="1.51"/><path d="M1652,431L1600,242L1467,272Z" fill="#d4888d" stroke="#d4888d" stroke-width="1.51"/><path d="M1652,431L1467,272L1514,472Z" fill="#d6868b" stroke="#d6868b" stroke-width="1.51"/><path d="M1600,242L1566,55L1467,272Z" fill="#d28b90" stroke="#d28b90" stroke-width="1.51"/><path d="M-18,912L79,1027L177,811Z" fill="#cf8e93" stroke="#cf8e93" stroke-width="1.51"/><path d="M1502,607L1652,431L1514,472Z" fill="#d87f83" stroke="#d87f83" stroke-width="1.51"/><path d="M1363,1030L1495,780L1384,716Z" fill="#d75459" stroke="#d75459" stroke-width="1.51"/><path d="M1125,1004L1363,1030L1384,716Z" fill="#d7565b" stroke="#d7565b" stroke-width="1.51"/><path d="M1147,1154L1262,1062L1125,1004Z" fill="#d86065" stroke="#d86065" stroke-width="1.51"/><path d="M1147,1154L1125,1004L1034,1219Z" fill="#d8676a" stroke="#d8676a" stroke-width="1.51"/><path d="M100,-250L8,-319L-134,0Z" fill="#aacbde" stroke="#aacbde" stroke-width="1.51"/><path d="M752,-293L8,-319L469,-259Z" fill="#b4c6d7" stroke="#b4c6d7" stroke-width="1.51"/><path d="M914,-303L8,-319L752,-293Z" fill="#b8c5d5" stroke="#b8c5d5" stroke-width="1.51"/><path d="M1034,1219L844,1087L710,1108Z" fill="#d87a7e" stroke="#d87a7e" stroke-width="1.51"/><path d="M1034,1219L1125,1004L844,1087Z" fill="#d86f73" stroke="#d86f73" stroke-width="1.51"/><path d="M-173,523L-213,645L-25,558Z" fill="#c2b4c1" stroke="#c2b4c1" stroke-width="1.51"/><path d="M-184,143L-213,645L-155,323Z" fill="#b8c4d5" stroke="#b8c4d5" stroke-width="1.51"/><path d="M-184,143L-213,-2L-213,645Z" fill="#b4c6d7" stroke="#b4c6d7" stroke-width="1.51"/><path d="M-134,0L-213,-2L-184,143Z" fill="#accadd" stroke="#accadd" stroke-width="1.51"/><path d="M-192,-290L-213,-2L-134,0Z" fill="#aacbde" stroke="#aacbde" stroke-width="1.51"/><path d="M150,1202L1034,1219L710,1108Z" fill="#d6868b" stroke="#d6868b" stroke-width="1.51"/><path d="M1600,242L1645,93L1566,55Z" fill="#d08c91" stroke="#d08c91" stroke-width="1.51"/><path d="M1698,645L1652,431L1502,607Z" fill="#d8777b" stroke="#d8777b" stroke-width="1.51"/><path d="M1567,931L1363,1030L1430,1099Z" fill="#d64850" stroke="#d64850" stroke-width="1.51"/><path d="M1430,1099L1363,1030L1262,1062Z" fill="#d75157" stroke="#d75157" stroke-width="1.51"/><path d="M1262,1062L1363,1030L1125,1004Z" fill="#d75a5f" stroke="#d75a5f" stroke-width="1.51"/><path d="M1566,55L1671,-93L1478,-94Z" fill="#ce8f94" stroke="#ce8f94" stroke-width="1.51"/><path d="M1803,155L1645,93L1600,242Z" fill="#d18b90" stroke="#d18b90" stroke-width="1.51"/><path d="M-213,645L-181,822L-35,843Z" fill="#ca9ea6" stroke="#ca9ea6" stroke-width="1.51"/><path d="M-18,912L0,1075L79,1027Z" fill="#ce8f94" stroke="#ce8f94" stroke-width="1.51"/><path d="M-272,964L0,1075L-18,912Z" fill="#ce8f94" stroke="#ce8f94" stroke-width="1.51"/><path d="M79,1027L150,1202L217,1097Z" fill="#d08d92" stroke="#d08d92" stroke-width="1.51"/><path d="M217,1097L150,1202L399,1064Z" fill="#d18b90" stroke="#d18b90" stroke-width="1.51"/><path d="M1611,-273L1506,-276L1478,-94Z" fill="#ce8f94" stroke="#ce8f94" stroke-width="1.51"/><path d="M1478,-94L1506,-276L1382,-137Z" fill="#ce8f94" stroke="#ce8f94" stroke-width="1.51"/><path d="M0,1075L150,1202L79,1027Z" fill="#cf8e93" stroke="#cf8e93" stroke-width="1.51"/><path d="M1675,721L1502,607L1495,780Z" fill="#d86569" stroke="#d86569" stroke-width="1.51"/><path d="M1675,721L1698,645L1502,607Z" fill="#d86b6e" stroke="#d86b6e" stroke-width="1.51"/><path d="M1652,431L1803,155L1600,242Z" fill="#d4898e" stroke="#d4898e" stroke-width="1.51"/><path d="M1567,931L1675,721L1495,780Z" fill="#d7565b" stroke="#d7565b" stroke-width="1.51"/><path d="M1363,1030L1567,931L1495,780Z" fill="#d64850" stroke="#d64850" stroke-width="1.51"/><path d="M1430,1099L1262,1062L1147,1154Z" fill="#d7575c" stroke="#d7575c" stroke-width="1.51"/><path d="M1645,93L1671,-93L1566,55Z" fill="#ce8e94" stroke="#ce8e94" stroke-width="1.51"/><path d="M1819,-117L1671,-93L1645,93Z" fill="#ce8f94" stroke="#ce8f94" stroke-width="1.51"/><path d="M8,-319L-192,-290L-134,0Z" fill="#aacbde" stroke="#aacbde" stroke-width="1.51"/><path d="M1034,1219L1430,1099L1147,1154Z" fill="#d85e62" stroke="#d85e62" stroke-width="1.51"/><path d="M1671,-93L1611,-273L1478,-94Z" fill="#ce8f94" stroke="#ce8f94" stroke-width="1.51"/><path d="M1506,-276L1819,-288L1192,-292Z" fill="#ce8f94" stroke="#ce8f94" stroke-width="1.51"/><path d="M1909,273L1803,155L1652,431Z" fill="#d4898e" stroke="#d4898e" stroke-width="1.51"/><path d="M1671,-93L1819,-288L1611,-273Z" fill="#ce8f94" stroke="#ce8f94" stroke-width="1.51"/><path d="M0,1075L-165,1199L150,1202Z" fill="#ce8f94" stroke="#ce8f94" stroke-width="1.51"/><path d="M-181,822L-272,964L-18,912Z" fill="#ce8f94" stroke="#ce8f94" stroke-width="1.51"/><path d="M-213,645L-272,964L-181,822Z" fill="#cc99a0" stroke="#cc99a0" stroke-width="1.51"/><path d="M-213,-2L-272,964L-213,645Z" fill="#c0b9c7" stroke="#c0b9c7" stroke-width="1.51"/><path d="M1698,645L1915,419L1652,431Z" fill="#d77f83" stroke="#d77f83" stroke-width="1.51"/><path d="M1675,721L1857,683L1698,645Z" fill="#d8676b" stroke="#d8676b" stroke-width="1.51"/><path d="M1567,931L1695,942L1675,721Z" fill="#d74e54" stroke="#d74e54" stroke-width="1.51"/><path d="M1597,1098L1695,942L1567,931Z" fill="#d64850" stroke="#d64850" stroke-width="1.51"/><path d="M1430,1099L1597,1098L1567,931Z" fill="#d64850" stroke="#d64850" stroke-width="1.51"/><path d="M1847,1177L1597,1098L1430,1099Z" fill="#d64850" stroke="#d64850" stroke-width="1.51"/><path d="M1803,155L1819,-117L1645,93Z" fill="#cf8e93" stroke="#cf8e93" stroke-width="1.51"/><path d="M-272,964L-165,1199L0,1075Z" fill="#ce8f94" stroke="#ce8f94" stroke-width="1.51"/><path d="M150,1202L-165,1199L1034,1219Z" fill="#d28a8f" stroke="#d28a8f" stroke-width="1.51"/><path d="M1899,794L1857,683L1675,721Z" fill="#d86165" stroke="#d86165" stroke-width="1.51"/><path d="M1803,155L1909,273L1819,-117Z" fill="#d08d92" stroke="#d08d92" stroke-width="1.51"/><path d="M1915,419L1909,273L1652,431Z" fill="#d6878c" stroke="#d6878c" stroke-width="1.51"/><path d="M1857,683L1915,419L1698,645Z" fill="#d87478" stroke="#d87478" stroke-width="1.51"/><path d="M1819,-117L1819,-288L1671,-93Z" fill="#ce8f94" stroke="#ce8f94" stroke-width="1.51"/><path d="M1611,-273L1819,-288L1506,-276Z" fill="#ce8f94" stroke="#ce8f94" stroke-width="1.51"/><path d="M1192,-292L1819,-288L914,-303Z" fill="#cc98a0" stroke="#cc98a0" stroke-width="1.51"/><path d="M914,-303L1819,-288L8,-319Z" fill="#c2b5c2" stroke="#c2b5c2" stroke-width="1.51"/><path d="M1909,273L1819,-288L1819,-117Z" fill="#ce8f94" stroke="#ce8f94" stroke-width="1.51"/><path d="M1857,683L1899,794L1915,419Z" fill="#d86e72" stroke="#d86e72" stroke-width="1.51"/><path d="M1695,942L1899,794L1675,721Z" fill="#d7545a" stroke="#d7545a" stroke-width="1.51"/><path d="M1597,1098L1805,978L1695,942Z" fill="#d64850" stroke="#d64850" stroke-width="1.51"/><path d="M1805,978L1899,794L1695,942Z" fill="#d64850" stroke="#d64850" stroke-width="1.51"/><path d="M1805,978L1847,1177L1899,794Z" fill="#d64850" stroke="#d64850" stroke-width="1.51"/><path d="M1597,1098L1847,1177L1805,978Z" fill="#d64850" stroke="#d64850" stroke-width="1.51"/><path d="M1034,1219L1847,1177L1430,1099Z" fill="#d64950" stroke="#d64950" stroke-width="1.51"/></svg>