<svg xmlns="http://www.w3.org/2000/svg" width="1440" height="900"><path d="M902,533L805,687L902,666Z" fill="#b3f4ee" stroke="#b3f4ee" stroke-width="1.51"/><path d="M902,533L650,533L805,687Z" fill="#b3f8ec" stroke="#b3f8ec" stroke-width="1.51"/><path d="M902,533L763,337L650,533Z" fill="#b3fdea" stroke="#b3fdea" stroke-width="1.51"/><path d="M1100,574L1007,414L902,533Z" fill="#b3f6ed" stroke="#b3f6ed" stroke-width="1.51"/><path d="M902,666L1100,574L902,533Z" fill="#b3f3ee" stroke="#b3f3ee" stroke-width="1.51"/><path d="M1007,414L763,337L902,533Z" fill="#b2faeb" stroke="#b2faeb" stroke-width="1.51"/><path d="M650,533L526,600L805,687Z" fill="#b1f8ec" stroke="#b1f8ec" stroke-width="1.51"/><path d="M405,332L526,600L650,533Z" fill="#adf8e9" stroke="#adf8e9" stroke-width="1.51"/><path d="M1007,414L830,215L763,337Z" fill="#acf6e9" stroke="#acf6e9" stroke-width="1.51"/><path d="M1100,574L1072,378L1007,414Z" fill="#b3f7ed" stroke="#b3f7ed" stroke-width="1.51"/><path d="M902,666L1094,829L1100,574Z" fill="#b3eff0" stroke="#b3eff0" stroke-width="1.51"/><path d="M805,687L1033,870L902,666Z" fill="#b3eff0" stroke="#b3eff0" stroke-width="1.51"/><path d="M982,989L1033,870L805,687Z" fill="#b3ebf1" stroke="#b3ebf1" stroke-width="1.51"/><path d="M1033,870L1094,829L902,666Z" fill="#b3ebf2" stroke="#b3ebf2" stroke-width="1.51"/><path d="M526,600L528,790L805,687Z" fill="#b0f3ed" stroke="#b0f3ed" stroke-width="1.51"/><path d="M1072,378L830,215L1007,414Z" fill="#adf4eb" stroke="#adf4eb" stroke-width="1.51"/><path d="M763,337L483,283L650,533Z" fill="#adf9e8" stroke="#adf9e8" stroke-width="1.51"/><path d="M1033,870L1067,1072L1094,829Z" fill="#b3e6f4" stroke="#b3e6f4" stroke-width="1.51"/><path d="M762,1031L982,989L805,687Z" fill="#b3ebf2" stroke="#b3ebf2" stroke-width="1.51"/><path d="M528,790L762,1031L805,687Z" fill="#b2f0ef" stroke="#b2f0ef" stroke-width="1.51"/><path d="M482,123L483,283L763,337Z" fill="#a4f1e7" stroke="#a4f1e7" stroke-width="1.51"/><path d="M526,600L358,590L528,790Z" fill="#abf0eb" stroke="#abf0eb" stroke-width="1.51"/><path d="M405,332L358,590L526,600Z" fill="#aaf4e9" stroke="#aaf4e9" stroke-width="1.51"/><path d="M1100,574L1301,464L1072,378Z" fill="#b3f3ee" stroke="#b3f3ee" stroke-width="1.51"/><path d="M1103,71L792,78L830,215Z" fill="#a1ebe9" stroke="#a1ebe9" stroke-width="1.51"/><path d="M1358,718L1301,464L1100,574Z" fill="#b3edf0" stroke="#b3edf0" stroke-width="1.51"/><path d="M528,790L520,978L762,1031Z" fill="#afebf0" stroke="#afebf0" stroke-width="1.51"/><path d="M280,958L520,978L528,790Z" fill="#aae6ef" stroke="#aae6ef" stroke-width="1.51"/><path d="M483,283L405,332L650,533Z" fill="#a9f6e8" stroke="#a9f6e8" stroke-width="1.51"/><path d="M830,215L482,123L763,337Z" fill="#a6f3e8" stroke="#a6f3e8" stroke-width="1.51"/><path d="M483,283L335,147L405,332Z" fill="#9eede7" stroke="#9eede7" stroke-width="1.51"/><path d="M1103,71L830,215L1072,378Z" fill="#a7eeea" stroke="#a7eeea" stroke-width="1.51"/><path d="M1094,829L1358,718L1100,574Z" fill="#b3eaf2" stroke="#b3eaf2" stroke-width="1.51"/><path d="M982,989L1067,1072L1033,870Z" fill="#b3e6f3" stroke="#b3e6f3" stroke-width="1.51"/><path d="M889,1224L1067,1072L982,989Z" fill="#b3e8f3" stroke="#b3e8f3" stroke-width="1.51"/><path d="M1384,878L1358,718L1094,829Z" fill="#b3e4f4" stroke="#b3e4f4" stroke-width="1.51"/><path d="M1301,464L1343,397L1072,378Z" fill="#b1f2ee" stroke="#b1f2ee" stroke-width="1.51"/><path d="M1510,573L1343,397L1301,464Z" fill="#b3eef0" stroke="#b3eef0" stroke-width="1.51"/><path d="M84,610L292,733L358,590Z" fill="#a3eaea" stroke="#a3eaea" stroke-width="1.51"/><path d="M358,590L292,733L528,790Z" fill="#a8eceb" stroke="#a8eceb" stroke-width="1.51"/><path d="M1256,152L1103,71L1072,378Z" fill="#a6eaeb" stroke="#a6eaeb" stroke-width="1.51"/><path d="M792,78L482,123L830,215Z" fill="#a2f0e7" stroke="#a2f0e7" stroke-width="1.51"/><path d="M1343,397L1256,152L1072,378Z" fill="#aceded" stroke="#aceded" stroke-width="1.51"/><path d="M1358,718L1510,573L1301,464Z" fill="#b3eaf2" stroke="#b3eaf2" stroke-width="1.51"/><path d="M1067,1072L1384,878L1094,829Z" fill="#b3e3f5" stroke="#b3e3f5" stroke-width="1.51"/><path d="M520,978L533,1137L762,1031Z" fill="#afebf0" stroke="#afebf0" stroke-width="1.51"/><path d="M762,1031L889,1224L982,989Z" fill="#b3eaf2" stroke="#b3eaf2" stroke-width="1.51"/><path d="M387,1089L533,1137L520,978Z" fill="#abe7ef" stroke="#abe7ef" stroke-width="1.51"/><path d="M792,78L770,-20L482,123Z" fill="#9dece7" stroke="#9dece7" stroke-width="1.51"/><path d="M851,-123L770,-20L792,78Z" fill="#9be8e7" stroke="#9be8e7" stroke-width="1.51"/><path d="M652,1208L889,1224L762,1031Z" fill="#b3edf1" stroke="#b3edf1" stroke-width="1.51"/><path d="M1067,1072L1278,1230L1384,878Z" fill="#b3e1f5" stroke="#b3e1f5" stroke-width="1.51"/><path d="M533,1137L652,1208L762,1031Z" fill="#b1ecf0" stroke="#b1ecf0" stroke-width="1.51"/><path d="M292,733L280,958L528,790Z" fill="#a7e7ee" stroke="#a7e7ee" stroke-width="1.51"/><path d="M533,1137L150,1177L652,1208Z" fill="#aae6ef" stroke="#aae6ef" stroke-width="1.51"/><path d="M280,958L387,1089L520,978Z" fill="#a8e5ef" stroke="#a8e5ef" stroke-width="1.51"/><path d="M1343,397L1462,300L1256,152Z" fill="#aae9ee" stroke="#aae9ee" stroke-width="1.51"/><path d="M1563,775L1510,573L1358,718Z" fill="#b3e5f4" stroke="#b3e5f4" stroke-width="1.51"/><path d="M482,123L335,147L483,283Z" fill="#9beae7" stroke="#9beae7" stroke-width="1.51"/><path d="M405,332L173,323L358,590Z" fill="#a4f2e8" stroke="#a4f2e8" stroke-width="1.51"/><path d="M266,-3L335,147L482,123Z" fill="#94e4e5" stroke="#94e4e5" stroke-width="1.51"/><path d="M1510,573L1462,300L1343,397Z" fill="#b2edf0" stroke="#b2edf0" stroke-width="1.51"/><path d="M1103,71L851,-123L792,78Z" fill="#9be6e8" stroke="#9be6e8" stroke-width="1.51"/><path d="M1256,152L1105,-62L1103,71Z" fill="#9ee3eb" stroke="#9ee3eb" stroke-width="1.51"/><path d="M1407,-99L1105,-62L1256,152Z" fill="#9bdeeb" stroke="#9bdeeb" stroke-width="1.51"/><path d="M335,147L173,323L405,332Z" fill="#9ceae7" stroke="#9ceae7" stroke-width="1.51"/><path d="M292,733L87,686L280,958Z" fill="#a2e4ec" stroke="#a2e4ec" stroke-width="1.51"/><path d="M770,-20L591,-110L482,123Z" fill="#97e7e6" stroke="#97e7e6" stroke-width="1.51"/><path d="M1105,-62L851,-123L1103,71Z" fill="#9be3e9" stroke="#9be3e9" stroke-width="1.51"/><path d="M1384,878L1563,775L1358,718Z" fill="#b3e1f6" stroke="#b3e1f6" stroke-width="1.51"/><path d="M1639,206L1465,69L1462,300Z" fill="#a5e2ef" stroke="#a5e2ef" stroke-width="1.51"/><path d="M1554,963L1563,775L1384,878Z" fill="#b2def7" stroke="#b2def7" stroke-width="1.51"/><path d="M699,-274L591,-110L770,-20Z" fill="#9ae9e6" stroke="#9ae9e6" stroke-width="1.51"/><path d="M173,323L84,610L358,590Z" fill="#a2eee8" stroke="#a2eee8" stroke-width="1.51"/><path d="M84,610L87,686L292,733Z" fill="#a0e7ea" stroke="#a0e7ea" stroke-width="1.51"/><path d="M889,1224L1278,1230L1067,1072Z" fill="#b3e5f4" stroke="#b3e5f4" stroke-width="1.51"/><path d="M1278,1230L1554,963L1384,878Z" fill="#b2def7" stroke="#b2def7" stroke-width="1.51"/><path d="M1639,206L1462,300L1784,283Z" fill="#a9e6ef" stroke="#a9e6ef" stroke-width="1.51"/><path d="M1462,300L1465,69L1256,152Z" fill="#a4e3ee" stroke="#a4e3ee" stroke-width="1.51"/><path d="M591,-110L266,-3L482,123Z" fill="#91e2e5" stroke="#91e2e5" stroke-width="1.51"/><path d="M335,147L59,178L173,323Z" fill="#95e5e6" stroke="#95e5e6" stroke-width="1.51"/><path d="M-110,484L-7,767L84,610Z" fill="#9be4e9" stroke="#9be4e9" stroke-width="1.51"/><path d="M84,610L-7,767L87,686Z" fill="#9de3ea" stroke="#9de3ea" stroke-width="1.51"/><path d="M87,686L-1,918L280,958Z" fill="#9fdfed" stroke="#9fdfed" stroke-width="1.51"/><path d="M280,958L150,1177L387,1089Z" fill="#a4e1ee" stroke="#a4e1ee" stroke-width="1.51"/><path d="M-46,423L84,610L173,323Z" fill="#9dece7" stroke="#9dece7" stroke-width="1.51"/><path d="M851,-123L699,-274L770,-20Z" fill="#9be9e7" stroke="#9be9e7" stroke-width="1.51"/><path d="M591,-110L310,-177L266,-3Z" fill="#8fe1e5" stroke="#8fe1e5" stroke-width="1.51"/><path d="M922,-320L699,-274L851,-123Z" fill="#9be8e7" stroke="#9be8e7" stroke-width="1.51"/><path d="M922,-320L851,-123L1105,-62Z" fill="#9be5e9" stroke="#9be5e9" stroke-width="1.51"/><path d="M266,-3L59,178L335,147Z" fill="#90e1e5" stroke="#90e1e5" stroke-width="1.51"/><path d="M1780,524L1462,300L1510,573Z" fill="#b3edf1" stroke="#b3edf1" stroke-width="1.51"/><path d="M1780,524L1510,573L1563,775Z" fill="#b3e7f3" stroke="#b3e7f3" stroke-width="1.51"/><path d="M1465,69L1407,-99L1256,152Z" fill="#9ddded" stroke="#9ddded" stroke-width="1.51"/><path d="M1714,-114L1465,-38L1465,69Z" fill="#9bdaed" stroke="#9bdaed" stroke-width="1.51"/><path d="M-7,767L-1,918L87,686Z" fill="#9cdeeb" stroke="#9cdeeb" stroke-width="1.51"/><path d="M387,1089L150,1177L533,1137Z" fill="#a7e4ef" stroke="#a7e4ef" stroke-width="1.51"/><path d="M27,1000L150,1177L280,958Z" fill="#a0deed" stroke="#a0deed" stroke-width="1.51"/><path d="M652,1208L-20,1226L889,1224Z" fill="#ace8ef" stroke="#ace8ef" stroke-width="1.51"/><path d="M59,178L-46,423L173,323Z" fill="#95e5e6" stroke="#95e5e6" stroke-width="1.51"/><path d="M-7,767L-244,726L-1,918Z" fill="#9bddeb" stroke="#9bddeb" stroke-width="1.51"/><path d="M1465,-38L1407,-99L1465,69Z" fill="#9bdaed" stroke="#9bdaed" stroke-width="1.51"/><path d="M-1,918L27,1000L280,958Z" fill="#9edded" stroke="#9edded" stroke-width="1.51"/><path d="M266,-3L195,-114L59,178Z" fill="#89dce4" stroke="#89dce4" stroke-width="1.51"/><path d="M699,-274L566,-280L591,-110Z" fill="#97e7e6" stroke="#97e7e6" stroke-width="1.51"/><path d="M1407,-99L1206,-245L1105,-62Z" fill="#9bdeeb" stroke="#9bdeeb" stroke-width="1.51"/><path d="M699,-274L922,-320L566,-280Z" fill="#9beae6" stroke="#9beae6" stroke-width="1.51"/><path d="M1206,-245L922,-320L1105,-62Z" fill="#9be2ea" stroke="#9be2ea" stroke-width="1.51"/><path d="M566,-280L310,-177L591,-110Z" fill="#93e4e5" stroke="#93e4e5" stroke-width="1.51"/><path d="M1785,763L1780,524L1563,775Z" fill="#b3e5f4" stroke="#b3e5f4" stroke-width="1.51"/><path d="M1767,990L1785,763L1563,775Z" fill="#b2dff6" stroke="#b2dff6" stroke-width="1.51"/><path d="M1610,1213L1655,1081L1554,963Z" fill="#b2ddf7" stroke="#b2ddf7" stroke-width="1.51"/><path d="M-223,262L-110,484L-46,423Z" fill="#98e7e6" stroke="#98e7e6" stroke-width="1.51"/><path d="M-46,423L-110,484L84,610Z" fill="#9be8e7" stroke="#9be8e7" stroke-width="1.51"/><path d="M310,-177L195,-114L266,-3Z" fill="#8bdde4" stroke="#8bdde4" stroke-width="1.51"/><path d="M59,178L-99,204L-46,423Z" fill="#91e2e5" stroke="#91e2e5" stroke-width="1.51"/><path d="M1767,990L1563,775L1554,963Z" fill="#b2ddf7" stroke="#b2ddf7" stroke-width="1.51"/><path d="M1206,-245L1552,-291L922,-320Z" fill="#9bdfeb" stroke="#9bdfeb" stroke-width="1.51"/><path d="M1407,-99L1340,-238L1206,-245Z" fill="#9bddec" stroke="#9bddec" stroke-width="1.51"/><path d="M1552,-291L1340,-238L1407,-99Z" fill="#9bdaed" stroke="#9bdaed" stroke-width="1.51"/><path d="M1552,-291L1407,-99L1465,-38Z" fill="#9bdaed" stroke="#9bdaed" stroke-width="1.51"/><path d="M1278,1230L1610,1213L1554,963Z" fill="#b2ddf7" stroke="#b2ddf7" stroke-width="1.51"/><path d="M1655,1081L1767,990L1554,963Z" fill="#b2ddf7" stroke="#b2ddf7" stroke-width="1.51"/><path d="M1639,206L1714,-114L1465,69Z" fill="#9ddced" stroke="#9ddced" stroke-width="1.51"/><path d="M1780,524L1784,283L1462,300Z" fill="#afebf0" stroke="#afebf0" stroke-width="1.51"/><path d="M1876,392L1784,283L1780,524Z" fill="#b1ecf0" stroke="#b1ecf0" stroke-width="1.51"/><path d="M1851,1113L1767,990L1655,1081Z" fill="#b2ddf7" stroke="#b2ddf7" stroke-width="1.51"/><path d="M-63,-81L-99,204L59,178Z" fill="#87dae4" stroke="#87dae4" stroke-width="1.51"/><path d="M1903,526L1780,524L1785,763Z" fill="#b3e8f3" stroke="#b3e8f3" stroke-width="1.51"/><path d="M1903,526L1876,392L1780,524Z" fill="#b3edf1" stroke="#b3edf1" stroke-width="1.51"/><path d="M150,1177L-20,1226L652,1208Z" fill="#a4e1ee" stroke="#a4e1ee" stroke-width="1.51"/><path d="M889,1224L-20,1226L1278,1230Z" fill="#b3eef0" stroke="#b3eef0" stroke-width="1.51"/><path d="M27,1000L-20,1226L150,1177Z" fill="#9cdbed" stroke="#9cdbed" stroke-width="1.51"/><path d="M-276,1082L-20,1226L27,1000Z" fill="#9bdaed" stroke="#9bdaed" stroke-width="1.51"/><path d="M-276,1082L27,1000L-1,918Z" fill="#9bdaed" stroke="#9bdaed" stroke-width="1.51"/><path d="M2011,718L1903,526L1785,763Z" fill="#b3e5f4" stroke="#b3e5f4" stroke-width="1.51"/><path d="M-110,484L-244,726L-7,767Z" fill="#9be2ea" stroke="#9be2ea" stroke-width="1.51"/><path d="M-277,524L-244,726L-110,484Z" fill="#9be5e8" stroke="#9be5e8" stroke-width="1.51"/><path d="M-99,204L-223,262L-46,423Z" fill="#92e3e5" stroke="#92e3e5" stroke-width="1.51"/><path d="M-213,177L-223,262L-99,204Z" fill="#8edfe5" stroke="#8edfe5" stroke-width="1.51"/><path d="M-223,262L-277,524L-110,484Z" fill="#99e9e6" stroke="#99e9e6" stroke-width="1.51"/><path d="M1767,990L1909,942L1785,763Z" fill="#b2ddf7" stroke="#b2ddf7" stroke-width="1.51"/><path d="M1851,1113L1909,942L1767,990Z" fill="#b2ddf7" stroke="#b2ddf7" stroke-width="1.51"/><path d="M195,-114L-63,-81L59,178Z" fill="#84d8e4" stroke="#84d8e4" stroke-width="1.51"/><path d="M3,-187L-63,-81L195,-114Z" fill="#83d7e3" stroke="#83d7e3" stroke-width="1.51"/><path d="M3,-187L195,-114L105,-317Z" fill="#85d9e4" stroke="#85d9e4" stroke-width="1.51"/><path d="M1969,172L1639,206L1784,283Z" fill="#a7e4ef" stroke="#a7e4ef" stroke-width="1.51"/><path d="M1919,-81L1714,-114L1639,206Z" fill="#9bdaed" stroke="#9bdaed" stroke-width="1.51"/><path d="M-223,262L-322,-100L-277,524Z" fill="#8ee0e5" stroke="#8ee0e5" stroke-width="1.51"/><path d="M-63,-81L-213,177L-99,204Z" fill="#87dae4" stroke="#87dae4" stroke-width="1.51"/><path d="M1610,1213L1851,1113L1655,1081Z" fill="#b2ddf7" stroke="#b2ddf7" stroke-width="1.51"/><path d="M1714,-114L1552,-291L1465,-38Z" fill="#9bdaed" stroke="#9bdaed" stroke-width="1.51"/><path d="M1340,-238L1552,-291L1206,-245Z" fill="#9adbec" stroke="#9adbec" stroke-width="1.51"/><path d="M105,-317L195,-114L310,-177Z" fill="#89dbe4" stroke="#89dbe4" stroke-width="1.51"/><path d="M566,-280L105,-317L310,-177Z" fill="#8ddfe5" stroke="#8ddfe5" stroke-width="1.51"/><path d="M922,-320L105,-317L566,-280Z" fill="#95e5e6" stroke="#95e5e6" stroke-width="1.51"/><path d="M1851,1113L2011,718L1909,942Z" fill="#b2ddf7" stroke="#b2ddf7" stroke-width="1.51"/><path d="M1909,942L2011,718L1785,763Z" fill="#b3e0f6" stroke="#b3e0f6" stroke-width="1.51"/><path d="M1903,526L1969,172L1876,392Z" fill="#afeaf0" stroke="#afeaf0" stroke-width="1.51"/><path d="M1876,392L1969,172L1784,283Z" fill="#aae7ef" stroke="#aae7ef" stroke-width="1.51"/><path d="M2011,718L1969,172L1903,526Z" fill="#b3edf1" stroke="#b3edf1" stroke-width="1.51"/><path d="M1714,-114L1680,-269L1552,-291Z" fill="#9bdaed" stroke="#9bdaed" stroke-width="1.51"/><path d="M1856,-285L1680,-269L1714,-114Z" fill="#9bdaed" stroke="#9bdaed" stroke-width="1.51"/><path d="M-366,880L-276,1082L-1,918Z" fill="#9bdaed" stroke="#9bdaed" stroke-width="1.51"/><path d="M-366,880L-1,918L-244,726Z" fill="#9adcec" stroke="#9adcec" stroke-width="1.51"/><path d="M-322,-100L-366,880L-277,524Z" fill="#9aeae6" stroke="#9aeae6" stroke-width="1.51"/><path d="M-277,524L-366,880L-244,726Z" fill="#9be0ea" stroke="#9be0ea" stroke-width="1.51"/><path d="M1969,172L1919,-81L1639,206Z" fill="#a0deed" stroke="#a0deed" stroke-width="1.51"/><path d="M105,-317L-237,-185L3,-187Z" fill="#81d6e3" stroke="#81d6e3" stroke-width="1.51"/><path d="M3,-187L-237,-185L-63,-81Z" fill="#81d6e3" stroke="#81d6e3" stroke-width="1.51"/><path d="M-63,-81L-322,-100L-213,177Z" fill="#81d6e3" stroke="#81d6e3" stroke-width="1.51"/><path d="M-213,177L-322,-100L-223,262Z" fill="#88dbe4" stroke="#88dbe4" stroke-width="1.51"/><path d="M1680,-269L1856,-285L1552,-291Z" fill="#9bdaed" stroke="#9bdaed" stroke-width="1.51"/><path d="M1552,-291L1856,-285L922,-320Z" fill="#9bdaed" stroke="#9bdaed" stroke-width="1.51"/><path d="M1919,-81L1856,-285L1714,-114Z" fill="#9bdaed" stroke="#9bdaed" stroke-width="1.51"/><path d="M-237,-185L-322,-100L-63,-81Z" fill="#81d6e3" stroke="#81d6e3" stroke-width="1.51"/></svg>