<svg xmlns="http://www.w3.org/2000/svg" width="1440" height="900"><path d="M829,517L775,304L588,405Z" fill="#78d2cc" stroke="#78d2cc" stroke-width="1.51"/><path d="M588,405L577,552L829,517Z" fill="#7dd2cc" stroke="#7dd2cc" stroke-width="1.51"/><path d="M775,304L663,119L588,405Z" fill="#6fcdc7" stroke="#6fcdc7" stroke-width="1.51"/><path d="M987,155L847,177L775,304Z" fill="#79cac5" stroke="#79cac5" stroke-width="1.51"/><path d="M577,552L671,715L829,517Z" fill="#89d0cc" stroke="#89d0cc" stroke-width="1.51"/><path d="M847,177L663,119L775,304Z" fill="#70cbc5" stroke="#70cbc5" stroke-width="1.51"/><path d="M588,405L339,626L577,552Z" fill="#7ccec8" stroke="#7ccec8" stroke-width="1.51"/><path d="M577,552L424,755L671,715Z" fill="#8dcbc9" stroke="#8dcbc9" stroke-width="1.51"/><path d="M663,119L406,273L588,405Z" fill="#6bcac3" stroke="#6bcac3" stroke-width="1.51"/><path d="M671,715L866,754L829,517Z" fill="#95cdcc" stroke="#95cdcc" stroke-width="1.51"/><path d="M1112,292L987,155L775,304Z" fill="#81c9c6" stroke="#81c9c6" stroke-width="1.51"/><path d="M1112,292L775,304L829,517Z" fill="#83cfca" stroke="#83cfca" stroke-width="1.51"/><path d="M847,177L754,-42L663,119Z" fill="#6ac7c1" stroke="#6ac7c1" stroke-width="1.51"/><path d="M866,754L1085,570L829,517Z" fill="#99cccc" stroke="#99cccc" stroke-width="1.51"/><path d="M663,119L469,112L406,273Z" fill="#66c5bf" stroke="#66c5bf" stroke-width="1.51"/><path d="M1085,570L1112,292L829,517Z" fill="#8ecfcd" stroke="#8ecfcd" stroke-width="1.51"/><path d="M406,273L339,626L588,405Z" fill="#70cdc7" stroke="#70cdc7" stroke-width="1.51"/><path d="M866,754L996,767L1085,570Z" fill="#a4c9cb" stroke="#a4c9cb" stroke-width="1.51"/><path d="M671,715L880,946L866,754Z" fill="#a3c9cb" stroke="#a3c9cb" stroke-width="1.51"/><path d="M866,754L880,946L996,767Z" fill="#abc7ca" stroke="#abc7ca" stroke-width="1.51"/><path d="M339,626L424,755L577,552Z" fill="#87c9c6" stroke="#87c9c6" stroke-width="1.51"/><path d="M987,155L754,-42L847,177Z" fill="#73c6c1" stroke="#73c6c1" stroke-width="1.51"/><path d="M556,-116L419,-30L469,112Z" fill="#5cbfb8" stroke="#5cbfb8" stroke-width="1.51"/><path d="M996,767L1199,617L1085,570Z" fill="#a6c8cb" stroke="#a6c8cb" stroke-width="1.51"/><path d="M1085,570L1325,341L1112,292Z" fill="#96cbca" stroke="#96cbca" stroke-width="1.51"/><path d="M617,1046L880,946L671,715Z" fill="#a7c8cb" stroke="#a7c8cb" stroke-width="1.51"/><path d="M996,767L1307,790L1199,617Z" fill="#b0c5ca" stroke="#b0c5ca" stroke-width="1.51"/><path d="M406,273L183,399L339,626Z" fill="#6ccac4" stroke="#6ccac4" stroke-width="1.51"/><path d="M339,626L142,748L424,755Z" fill="#8ac4c3" stroke="#8ac4c3" stroke-width="1.51"/><path d="M250,134L183,399L406,273Z" fill="#63c4bd" stroke="#63c4bd" stroke-width="1.51"/><path d="M469,112L250,134L406,273Z" fill="#61c3bc" stroke="#61c3bc" stroke-width="1.51"/><path d="M556,-116L469,112L663,119Z" fill="#60c2bc" stroke="#60c2bc" stroke-width="1.51"/><path d="M419,-30L250,134L469,112Z" fill="#5cbfb9" stroke="#5cbfb9" stroke-width="1.51"/><path d="M754,-42L556,-116L663,119Z" fill="#61c3bc" stroke="#61c3bc" stroke-width="1.51"/><path d="M-8,523L140,548L183,399Z" fill="#6cc5c0" stroke="#6cc5c0" stroke-width="1.51"/><path d="M183,399L140,548L339,626Z" fill="#73c7c2" stroke="#73c7c2" stroke-width="1.51"/><path d="M987,155L1103,-59L754,-42Z" fill="#76c1bd" stroke="#76c1bd" stroke-width="1.51"/><path d="M1112,292L1261,178L987,155Z" fill="#8ac5c4" stroke="#8ac5c4" stroke-width="1.51"/><path d="M1325,341L1261,178L1112,292Z" fill="#94c5c5" stroke="#94c5c5" stroke-width="1.51"/><path d="M1199,617L1325,341L1085,570Z" fill="#9fcacb" stroke="#9fcacb" stroke-width="1.51"/><path d="M1261,178L1103,-59L987,155Z" fill="#85c1bf" stroke="#85c1bf" stroke-width="1.51"/><path d="M754,-42L661,-347L556,-116Z" fill="#61c3bc" stroke="#61c3bc" stroke-width="1.51"/><path d="M424,755L617,1046L671,715Z" fill="#9dc7c8" stroke="#9dc7c8" stroke-width="1.51"/><path d="M338,989L617,1046L424,755Z" fill="#a0c2c5" stroke="#a0c2c5" stroke-width="1.51"/><path d="M880,946L971,1014L996,767Z" fill="#b3c3ca" stroke="#b3c3ca" stroke-width="1.51"/><path d="M765,1218L971,1014L880,946Z" fill="#afc5ca" stroke="#afc5ca" stroke-width="1.51"/><path d="M140,548L142,748L339,626Z" fill="#80c4c1" stroke="#80c4c1" stroke-width="1.51"/><path d="M142,748L338,989L424,755Z" fill="#96c1c2" stroke="#96c1c2" stroke-width="1.51"/><path d="M1199,617L1494,628L1325,341Z" fill="#a8c7cb" stroke="#a8c7cb" stroke-width="1.51"/><path d="M1247,963L1307,790L996,767Z" fill="#bac1c9" stroke="#bac1c9" stroke-width="1.51"/><path d="M1325,341L1402,276L1261,178Z" fill="#99c3c5" stroke="#99c3c5" stroke-width="1.51"/><path d="M1261,178L1221,-159L1103,-59Z" fill="#85bdbc" stroke="#85bdbc" stroke-width="1.51"/><path d="M1621,333L1402,276L1325,341Z" fill="#a1c3c6" stroke="#a1c3c6" stroke-width="1.51"/><path d="M339,-291L225,-58L419,-30Z" fill="#57bcb5" stroke="#57bcb5" stroke-width="1.51"/><path d="M419,-30L225,-58L250,134Z" fill="#57bcb5" stroke="#57bcb5" stroke-width="1.51"/><path d="M-104,391L-8,523L183,399Z" fill="#64c4be" stroke="#64c4be" stroke-width="1.51"/><path d="M1402,276L1407,184L1261,178Z" fill="#98c1c3" stroke="#98c1c3" stroke-width="1.51"/><path d="M29,125L183,399L250,134Z" fill="#5dc0b9" stroke="#5dc0b9" stroke-width="1.51"/><path d="M140,548L-8,523L142,748Z" fill="#79c3bf" stroke="#79c3bf" stroke-width="1.51"/><path d="M971,1014L1247,963L996,767Z" fill="#b9c1c9" stroke="#b9c1c9" stroke-width="1.51"/><path d="M225,-58L29,125L250,134Z" fill="#55bbb4" stroke="#55bbb4" stroke-width="1.51"/><path d="M1221,-159L1081,-239L1103,-59Z" fill="#82bebc" stroke="#82bebc" stroke-width="1.51"/><path d="M1103,-59L1081,-239L754,-42Z" fill="#78c0bd" stroke="#78c0bd" stroke-width="1.51"/><path d="M556,-116L339,-291L419,-30Z" fill="#5abeb7" stroke="#5abeb7" stroke-width="1.51"/><path d="M377,1252L604,1269L617,1046Z" fill="#a2c4c7" stroke="#a2c4c7" stroke-width="1.51"/><path d="M142,748L253,1038L338,989Z" fill="#9abdc0" stroke="#9abdc0" stroke-width="1.51"/><path d="M-56,1056L253,1038L142,748Z" fill="#97bbbd" stroke="#97bbbd" stroke-width="1.51"/><path d="M1407,184L1221,-159L1261,178Z" fill="#8fbebe" stroke="#8fbebe" stroke-width="1.51"/><path d="M783,-373L661,-347L754,-42Z" fill="#64c4be" stroke="#64c4be" stroke-width="1.51"/><path d="M1543,1003L1450,721L1307,790Z" fill="#c5bcc8" stroke="#c5bcc8" stroke-width="1.51"/><path d="M1307,790L1450,721L1199,617Z" fill="#b6c3ca" stroke="#b6c3ca" stroke-width="1.51"/><path d="M1402,276L1621,333L1407,184Z" fill="#9fc1c4" stroke="#9fc1c4" stroke-width="1.51"/><path d="M971,1014L1270,1145L1247,963Z" fill="#bdc0c9" stroke="#bdc0c9" stroke-width="1.51"/><path d="M617,1046L765,1218L880,946Z" fill="#a9c7cb" stroke="#a9c7cb" stroke-width="1.51"/><path d="M604,1269L765,1218L617,1046Z" fill="#a5c6c9" stroke="#a5c6c9" stroke-width="1.51"/><path d="M1450,721L1494,628L1199,617Z" fill="#b5c3c9" stroke="#b5c3c9" stroke-width="1.51"/><path d="M1081,-239L783,-373L754,-42Z" fill="#70c2bd" stroke="#70c2bd" stroke-width="1.51"/><path d="M225,-58L7,-82L29,125Z" fill="#4fb7b0" stroke="#4fb7b0" stroke-width="1.51"/><path d="M661,-347L339,-291L556,-116Z" fill="#5dc0b9" stroke="#5dc0b9" stroke-width="1.51"/><path d="M205,-314L339,-291L661,-347Z" fill="#59bdb7" stroke="#59bdb7" stroke-width="1.51"/><path d="M29,125L-104,391L183,399Z" fill="#5dc0ba" stroke="#5dc0ba" stroke-width="1.51"/><path d="M-8,523L-103,834L142,748Z" fill="#81bebc" stroke="#81bebc" stroke-width="1.51"/><path d="M377,1252L617,1046L338,989Z" fill="#9fc2c5" stroke="#9fc2c5" stroke-width="1.51"/><path d="M29,125L-251,337L-104,391Z" fill="#5bbfb8" stroke="#5bbfb8" stroke-width="1.51"/><path d="M205,-314L7,-82L225,-58Z" fill="#51b8b1" stroke="#51b8b1" stroke-width="1.51"/><path d="M253,1038L377,1252L338,989Z" fill="#9cbfc2" stroke="#9cbfc2" stroke-width="1.51"/><path d="M765,1218L1115,1236L971,1014Z" fill="#b3c3ca" stroke="#b3c3ca" stroke-width="1.51"/><path d="M1247,963L1543,1003L1307,790Z" fill="#c7bcc8" stroke="#c7bcc8" stroke-width="1.51"/><path d="M604,1269L1115,1236L765,1218Z" fill="#adc6ca" stroke="#adc6ca" stroke-width="1.51"/><path d="M1730,756L1765,570L1494,628Z" fill="#b8c2c9" stroke="#b8c2c9" stroke-width="1.51"/><path d="M1115,1236L1270,1145L971,1014Z" fill="#bbc0c9" stroke="#bbc0c9" stroke-width="1.51"/><path d="M1494,628L1621,333L1325,341Z" fill="#a6c7ca" stroke="#a6c7ca" stroke-width="1.51"/><path d="M1442,-252L1233,-371L1221,-159Z" fill="#8cbbbb" stroke="#8cbbbb" stroke-width="1.51"/><path d="M339,-291L205,-314L225,-58Z" fill="#55bab3" stroke="#55bab3" stroke-width="1.51"/><path d="M0,-350L205,-314L661,-347Z" fill="#56bbb4" stroke="#56bbb4" stroke-width="1.51"/><path d="M-283,594L-103,834L-8,523Z" fill="#7cbfbc" stroke="#7cbfbc" stroke-width="1.51"/><path d="M253,1038L223,1265L377,1252Z" fill="#9bbec1" stroke="#9bbec1" stroke-width="1.51"/><path d="M1081,-239L1233,-371L783,-373Z" fill="#7bbfbc" stroke="#7bbfbc" stroke-width="1.51"/><path d="M1221,-159L1233,-371L1081,-239Z" fill="#84bdbc" stroke="#84bdbc" stroke-width="1.51"/><path d="M1507,-119L1221,-159L1407,184Z" fill="#90b9bb" stroke="#90b9bb" stroke-width="1.51"/><path d="M1683,-31L1507,-119L1407,184Z" fill="#94b9bb" stroke="#94b9bb" stroke-width="1.51"/><path d="M-26,1197L223,1265L253,1038Z" fill="#98bbbe" stroke="#98bbbe" stroke-width="1.51"/><path d="M377,1252L223,1265L604,1269Z" fill="#9ec1c4" stroke="#9ec1c4" stroke-width="1.51"/><path d="M-104,391L-283,594L-8,523Z" fill="#6ac3bd" stroke="#6ac3bd" stroke-width="1.51"/><path d="M-306,102L-251,337L29,125Z" fill="#56bbb4" stroke="#56bbb4" stroke-width="1.51"/><path d="M1507,-119L1442,-252L1221,-159Z" fill="#91b9bb" stroke="#91b9bb" stroke-width="1.51"/><path d="M1270,1145L1425,1131L1247,963Z" fill="#c4bdc8" stroke="#c4bdc8" stroke-width="1.51"/><path d="M1494,628L1765,570L1621,333Z" fill="#acc6ca" stroke="#acc6ca" stroke-width="1.51"/><path d="M1115,1236L1425,1131L1270,1145Z" fill="#c2bec8" stroke="#c2bec8" stroke-width="1.51"/><path d="M-192,923L-56,1056L-103,834Z" fill="#94b9bb" stroke="#94b9bb" stroke-width="1.51"/><path d="M-103,834L-56,1056L142,748Z" fill="#92b9bb" stroke="#92b9bb" stroke-width="1.51"/><path d="M1425,1131L1543,1003L1247,963Z" fill="#c9bbc8" stroke="#c9bbc8" stroke-width="1.51"/><path d="M-251,337L-283,594L-104,391Z" fill="#63c4bd" stroke="#63c4bd" stroke-width="1.51"/><path d="M-320,745L-192,923L-103,834Z" fill="#8ebabb" stroke="#8ebabb" stroke-width="1.51"/><path d="M1749,52L1683,-31L1407,184Z" fill="#97bbbd" stroke="#97bbbd" stroke-width="1.51"/><path d="M1730,756L1494,628L1450,721Z" fill="#bbc0c9" stroke="#bbc0c9" stroke-width="1.51"/><path d="M1543,1003L1730,756L1450,721Z" fill="#c5bdc8" stroke="#c5bdc8" stroke-width="1.51"/><path d="M205,-314L0,-350L7,-82Z" fill="#4fb6af" stroke="#4fb6af" stroke-width="1.51"/><path d="M-253,-97L-306,102L29,125Z" fill="#4fb6af" stroke="#4fb6af" stroke-width="1.51"/><path d="M783,-373L0,-350L661,-347Z" fill="#5cbfb8" stroke="#5cbfb8" stroke-width="1.51"/><path d="M1507,-119L1674,-336L1442,-252Z" fill="#94b9bb" stroke="#94b9bb" stroke-width="1.51"/><path d="M1749,52L1407,184L1621,333Z" fill="#9cbfc1" stroke="#9cbfc1" stroke-width="1.51"/><path d="M-56,1056L-26,1197L253,1038Z" fill="#95babc" stroke="#95babc" stroke-width="1.51"/><path d="M-266,1233L-26,1197L-56,1056Z" fill="#94b9bb" stroke="#94b9bb" stroke-width="1.51"/><path d="M-251,337L-306,102L-283,594Z" fill="#5ec1ba" stroke="#5ec1ba" stroke-width="1.51"/><path d="M-253,-97L29,125L7,-82Z" fill="#4cb5ae" stroke="#4cb5ae" stroke-width="1.51"/><path d="M-192,923L-266,1233L-56,1056Z" fill="#94b9bb" stroke="#94b9bb" stroke-width="1.51"/><path d="M-283,594L-320,745L-103,834Z" fill="#83bdbc" stroke="#83bdbc" stroke-width="1.51"/><path d="M-306,102L-320,745L-283,594Z" fill="#67c3be" stroke="#67c3be" stroke-width="1.51"/><path d="M1765,570L1749,52L1621,333Z" fill="#a1c3c6" stroke="#a1c3c6" stroke-width="1.51"/><path d="M1543,1003L1674,979L1730,756Z" fill="#cabac8" stroke="#cabac8" stroke-width="1.51"/><path d="M1711,1155L1674,979L1543,1003Z" fill="#cabac8" stroke="#cabac8" stroke-width="1.51"/><path d="M0,-350L-253,-97L7,-82Z" fill="#4cb5ae" stroke="#4cb5ae" stroke-width="1.51"/><path d="M1749,52L1674,-336L1683,-31Z" fill="#94b9bb" stroke="#94b9bb" stroke-width="1.51"/><path d="M1683,-31L1674,-336L1507,-119Z" fill="#94b9bb" stroke="#94b9bb" stroke-width="1.51"/><path d="M1442,-252L1674,-336L1233,-371Z" fill="#94b9bb" stroke="#94b9bb" stroke-width="1.51"/><path d="M1425,1131L1711,1155L1543,1003Z" fill="#cabac8" stroke="#cabac8" stroke-width="1.51"/><path d="M1674,979L1711,1155L1730,756Z" fill="#cabac8" stroke="#cabac8" stroke-width="1.51"/><path d="M1730,756L1711,1155L1765,570Z" fill="#c5bdc8" stroke="#c5bdc8" stroke-width="1.51"/><path d="M1115,1236L1711,1155L1425,1131Z" fill="#c9bbc8" stroke="#c9bbc8" stroke-width="1.51"/><path d="M-253,-97L-315,-239L-306,102Z" fill="#4cb5ae" stroke="#4cb5ae" stroke-width="1.51"/><path d="M-306,102L-315,-239L-320,745Z" fill="#57bcb5" stroke="#57bcb5" stroke-width="1.51"/><path d="M0,-350L-315,-239L-253,-97Z" fill="#4cb5ae" stroke="#4cb5ae" stroke-width="1.51"/><path d="M-26,1197L-266,1233L223,1265Z" fill="#94b9bb" stroke="#94b9bb" stroke-width="1.51"/><path d="M-320,745L-266,1233L-192,923Z" fill="#94b9bb" stroke="#94b9bb" stroke-width="1.51"/></svg>