<svg xmlns="http://www.w3.org/2000/svg" width="1440" height="900"><path d="M790,348L862,326L717,179Z" fill="#d26c51" stroke="#d26c51" stroke-width="1.51"/><path d="M862,326L890,122L717,179Z" fill="#d2755f" stroke="#d2755f" stroke-width="1.51"/><path d="M717,179L553,328L790,348Z" fill="#d46d51" stroke="#d46d51" stroke-width="1.51"/><path d="M717,43L602,183L717,179Z" fill="#d57e6a" stroke="#d57e6a" stroke-width="1.51"/><path d="M890,122L717,43L717,179Z" fill="#d47f6c" stroke="#d47f6c" stroke-width="1.51"/><path d="M602,183L553,328L717,179Z" fill="#d57760" stroke="#d57760" stroke-width="1.51"/><path d="M890,122L929,-2L717,43Z" fill="#d28679" stroke="#d28679" stroke-width="1.51"/><path d="M1078,14L929,-2L890,122Z" fill="#d08a81" stroke="#d08a81" stroke-width="1.51"/><path d="M862,326L1097,211L890,122Z" fill="#d07763" stroke="#d07763" stroke-width="1.51"/><path d="M862,326L1147,344L1097,211Z" fill="#ce715b" stroke="#ce715b" stroke-width="1.51"/><path d="M790,348L975,523L862,326Z" fill="#ce6143" stroke="#ce6143" stroke-width="1.51"/><path d="M769,588L975,523L790,348Z" fill="#cd5c3c" stroke="#cd5c3c" stroke-width="1.51"/><path d="M553,328L769,588L790,348Z" fill="#d15c39" stroke="#d15c39" stroke-width="1.51"/><path d="M1097,211L1078,14L890,122Z" fill="#ce8377" stroke="#ce8377" stroke-width="1.51"/><path d="M975,523L1147,344L862,326Z" fill="#cd6449" stroke="#cd6449" stroke-width="1.51"/><path d="M1097,211L1260,186L1078,14Z" fill="#cb847a" stroke="#cb847a" stroke-width="1.51"/><path d="M1124,-198L862,-135L929,-2Z" fill="#cf8f88" stroke="#cf8f88" stroke-width="1.51"/><path d="M929,-2L862,-135L717,43Z" fill="#d28c81" stroke="#d28c81" stroke-width="1.51"/><path d="M717,43L497,-56L602,183Z" fill="#d58c7e" stroke="#d58c7e" stroke-width="1.51"/><path d="M553,328L510,544L769,588Z" fill="#d16141" stroke="#d16141" stroke-width="1.51"/><path d="M975,523L1033,596L1147,344Z" fill="#ca6146" stroke="#ca6146" stroke-width="1.51"/><path d="M917,721L1033,596L975,523Z" fill="#c8644c" stroke="#c8644c" stroke-width="1.51"/><path d="M698,-273L497,-56L717,43Z" fill="#d58f84" stroke="#d58f84" stroke-width="1.51"/><path d="M602,183L358,134L553,328Z" fill="#d5816e" stroke="#d5816e" stroke-width="1.51"/><path d="M553,328L377,566L510,544Z" fill="#d36a4d" stroke="#d36a4d" stroke-width="1.51"/><path d="M497,-56L358,134L602,183Z" fill="#d59185" stroke="#d59185" stroke-width="1.51"/><path d="M1147,344L1260,186L1097,211Z" fill="#cb7869" stroke="#cb7869" stroke-width="1.51"/><path d="M1351,308L1260,186L1147,344Z" fill="#c97668" stroke="#c97668" stroke-width="1.51"/><path d="M358,134L310,292L553,328Z" fill="#d58473" stroke="#d58473" stroke-width="1.51"/><path d="M771,742L917,721L769,588Z" fill="#c9634a" stroke="#c9634a" stroke-width="1.51"/><path d="M769,588L917,721L975,523Z" fill="#ca6148" stroke="#ca6148" stroke-width="1.51"/><path d="M556,694L771,742L769,588Z" fill="#cb6146" stroke="#cb6146" stroke-width="1.51"/><path d="M510,544L556,694L769,588Z" fill="#cd654b" stroke="#cd654b" stroke-width="1.51"/><path d="M377,566L556,694L510,544Z" fill="#cf6e56" stroke="#cf6e56" stroke-width="1.51"/><path d="M862,-135L698,-273L717,43Z" fill="#d48b7e" stroke="#d48b7e" stroke-width="1.51"/><path d="M1124,-198L698,-273L862,-135Z" fill="#d18e84" stroke="#d18e84" stroke-width="1.51"/><path d="M310,292L377,566L553,328Z" fill="#d4745b" stroke="#d4745b" stroke-width="1.51"/><path d="M917,721L1136,663L1033,596Z" fill="#c66752" stroke="#c66752" stroke-width="1.51"/><path d="M1033,596L1308,549L1147,344Z" fill="#c8644c" stroke="#c8644c" stroke-width="1.51"/><path d="M1078,14L1124,-198L929,-2Z" fill="#cd908b" stroke="#cd908b" stroke-width="1.51"/><path d="M1270,-136L1124,-198L1078,14Z" fill="#ca9391" stroke="#ca9391" stroke-width="1.51"/><path d="M358,134L142,111L310,292Z" fill="#d4958c" stroke="#d4958c" stroke-width="1.51"/><path d="M497,-56L322,-45L358,134Z" fill="#d39f9c" stroke="#d39f9c" stroke-width="1.51"/><path d="M350,-237L322,-45L497,-56Z" fill="#d2a09e" stroke="#d2a09e" stroke-width="1.51"/><path d="M1308,549L1351,308L1147,344Z" fill="#c86a55" stroke="#c86a55" stroke-width="1.51"/><path d="M1260,186L1326,33L1078,14Z" fill="#c98c87" stroke="#c98c87" stroke-width="1.51"/><path d="M1454,135L1326,33L1260,186Z" fill="#c68a86" stroke="#c68a86" stroke-width="1.51"/><path d="M1136,663L1308,549L1033,596Z" fill="#c66754" stroke="#c66754" stroke-width="1.51"/><path d="M698,-273L490,-278L497,-56Z" fill="#d4958c" stroke="#d4958c" stroke-width="1.51"/><path d="M1326,33L1270,-136L1078,14Z" fill="#c89494" stroke="#c89494" stroke-width="1.51"/><path d="M377,566L346,665L556,694Z" fill="#ce745f" stroke="#ce745f" stroke-width="1.51"/><path d="M556,694L516,847L771,742Z" fill="#c96b55" stroke="#c96b55" stroke-width="1.51"/><path d="M97,523L346,665L377,566Z" fill="#d17c6a" stroke="#d17c6a" stroke-width="1.51"/><path d="M322,-45L229,0L358,134Z" fill="#d2a3a3" stroke="#d2a3a3" stroke-width="1.51"/><path d="M310,292L97,523L377,566Z" fill="#d57862" stroke="#d57862" stroke-width="1.51"/><path d="M93,-199L229,0L322,-45Z" fill="#cfacb1" stroke="#cfacb1" stroke-width="1.51"/><path d="M490,-278L350,-237L497,-56Z" fill="#d39c98" stroke="#d39c98" stroke-width="1.51"/><path d="M1136,663L1231,743L1308,549Z" fill="#c36a5b" stroke="#c36a5b" stroke-width="1.51"/><path d="M1125,851L1231,743L1136,663Z" fill="#c16d5f" stroke="#c16d5f" stroke-width="1.51"/><path d="M1125,851L1136,663L917,721Z" fill="#c36a5a" stroke="#c36a5a" stroke-width="1.51"/><path d="M346,665L516,847L556,694Z" fill="#cb7361" stroke="#cb7361" stroke-width="1.51"/><path d="M906,960L1125,851L917,721Z" fill="#c16c5e" stroke="#c16c5e" stroke-width="1.51"/><path d="M1326,33L1454,-135L1270,-136Z" fill="#c4969a" stroke="#c4969a" stroke-width="1.51"/><path d="M1351,308L1454,135L1260,186Z" fill="#c78078" stroke="#c78078" stroke-width="1.51"/><path d="M1494,311L1454,135L1351,308Z" fill="#c57d75" stroke="#c57d75" stroke-width="1.51"/><path d="M229,0L142,111L358,134Z" fill="#d2a2a0" stroke="#d2a2a0" stroke-width="1.51"/><path d="M-14,-39L142,111L229,0Z" fill="#ceb0b7" stroke="#ceb0b7" stroke-width="1.51"/><path d="M142,111L117,322L310,292Z" fill="#d4948a" stroke="#d4948a" stroke-width="1.51"/><path d="M906,960L917,721L771,742Z" fill="#c56855" stroke="#c56855" stroke-width="1.51"/><path d="M1461,485L1494,311L1351,308Z" fill="#c57163" stroke="#c57163" stroke-width="1.51"/><path d="M1461,485L1351,308L1308,549Z" fill="#c66753" stroke="#c66753" stroke-width="1.51"/><path d="M1587,583L1461,485L1515,786Z" fill="#bf6e62" stroke="#bf6e62" stroke-width="1.51"/><path d="M771,989L906,960L771,742Z" fill="#c36a5a" stroke="#c36a5a" stroke-width="1.51"/><path d="M1454,135L1475,-34L1326,33Z" fill="#c39396" stroke="#c39396" stroke-width="1.51"/><path d="M1691,43L1475,-34L1454,135Z" fill="#c29396" stroke="#c29396" stroke-width="1.51"/><path d="M516,847L771,989L771,742Z" fill="#c66956" stroke="#c66956" stroke-width="1.51"/><path d="M117,322L97,523L310,292Z" fill="#d58675" stroke="#d58675" stroke-width="1.51"/><path d="M346,665L375,884L516,847Z" fill="#c9796c" stroke="#c9796c" stroke-width="1.51"/><path d="M1475,-34L1454,-135L1326,33Z" fill="#c2989e" stroke="#c2989e" stroke-width="1.51"/><path d="M1270,-136L1454,-135L1124,-198Z" fill="#c69597" stroke="#c69597" stroke-width="1.51"/><path d="M516,847L556,1053L771,989Z" fill="#c56f60" stroke="#c56f60" stroke-width="1.51"/><path d="M102,733L375,884L346,665Z" fill="#ca8178" stroke="#ca8178" stroke-width="1.51"/><path d="M-59,169L19,350L117,322Z" fill="#d49b95" stroke="#d49b95" stroke-width="1.51"/><path d="M117,322L19,350L97,523Z" fill="#d58a7c" stroke="#d58a7c" stroke-width="1.51"/><path d="M771,989L918,1052L906,960Z" fill="#c26b5c" stroke="#c26b5c" stroke-width="1.51"/><path d="M906,960L1087,1048L1125,851Z" fill="#be6f64" stroke="#be6f64" stroke-width="1.51"/><path d="M665,1117L918,1052L771,989Z" fill="#c36958" stroke="#c36958" stroke-width="1.51"/><path d="M142,111L-59,169L117,322Z" fill="#d3a09f" stroke="#d3a09f" stroke-width="1.51"/><path d="M350,-237L93,-199L322,-45Z" fill="#d0a9ad" stroke="#d0a9ad" stroke-width="1.51"/><path d="M-67,-269L93,-199L350,-237Z" fill="#cdb2ba" stroke="#cdb2ba" stroke-width="1.51"/><path d="M375,884L556,1053L516,847Z" fill="#c5786d" stroke="#c5786d" stroke-width="1.51"/><path d="M19,350L25,591L97,523Z" fill="#d4887a" stroke="#d4887a" stroke-width="1.51"/><path d="M97,523L102,733L346,665Z" fill="#cf8478" stroke="#cf8478" stroke-width="1.51"/><path d="M375,884L295,1148L556,1053Z" fill="#c57d75" stroke="#c57d75" stroke-width="1.51"/><path d="M25,591L102,733L97,523Z" fill="#cf8a81" stroke="#cf8a81" stroke-width="1.51"/><path d="M1515,786L1461,485L1308,549Z" fill="#c06d61" stroke="#c06d61" stroke-width="1.51"/><path d="M1125,851L1246,986L1231,743Z" fill="#bc7169" stroke="#bc7169" stroke-width="1.51"/><path d="M918,1052L1087,1048L906,960Z" fill="#bf6d61" stroke="#bf6d61" stroke-width="1.51"/><path d="M1494,311L1682,212L1454,135Z" fill="#c5817b" stroke="#c5817b" stroke-width="1.51"/><path d="M1461,485L1698,353L1494,311Z" fill="#c56f60" stroke="#c56f60" stroke-width="1.51"/><path d="M1515,786L1308,549L1231,743Z" fill="#be6e64" stroke="#be6e64" stroke-width="1.51"/><path d="M93,-199L-14,-39L229,0Z" fill="#cdb3bd" stroke="#cdb3bd" stroke-width="1.51"/><path d="M-264,483L-21,680L25,591Z" fill="#d08e86" stroke="#d08e86" stroke-width="1.51"/><path d="M-14,-39L-59,169L142,111Z" fill="#ceb0b7" stroke="#ceb0b7" stroke-width="1.51"/><path d="M1087,1048L1246,986L1125,851Z" fill="#bc7169" stroke="#bc7169" stroke-width="1.51"/><path d="M918,1052L1336,1160L1087,1048Z" fill="#bd7068" stroke="#bd7068" stroke-width="1.51"/><path d="M556,1053L665,1117L771,989Z" fill="#c56c5b" stroke="#c56c5b" stroke-width="1.51"/><path d="M1475,-34L1710,-155L1454,-135Z" fill="#c1989f" stroke="#c1989f" stroke-width="1.51"/><path d="M1698,353L1682,212L1494,311Z" fill="#c5796f" stroke="#c5796f" stroke-width="1.51"/><path d="M1469,961L1515,786L1231,743Z" fill="#b97470" stroke="#b97470" stroke-width="1.51"/><path d="M1587,583L1698,353L1461,485Z" fill="#c46957" stroke="#c46957" stroke-width="1.51"/><path d="M1716,744L1698,353L1587,583Z" fill="#c16c5e" stroke="#c16c5e" stroke-width="1.51"/><path d="M1682,212L1691,43L1454,135Z" fill="#c48a89" stroke="#c48a89" stroke-width="1.51"/><path d="M1698,353L1691,43L1682,212Z" fill="#c5837d" stroke="#c5837d" stroke-width="1.51"/><path d="M25,591L-21,680L102,733Z" fill="#cc8e89" stroke="#cc8e89" stroke-width="1.51"/><path d="M102,733L115,985L375,884Z" fill="#c58a88" stroke="#c58a88" stroke-width="1.51"/><path d="M-264,483L25,591L19,350Z" fill="#d48b7e" stroke="#d48b7e" stroke-width="1.51"/><path d="M1515,786L1716,744L1587,583Z" fill="#bc7168" stroke="#bc7168" stroke-width="1.51"/><path d="M1246,986L1469,961L1231,743Z" fill="#b87571" stroke="#b87571" stroke-width="1.51"/><path d="M1482,1081L1469,961L1246,986Z" fill="#b67675" stroke="#b67675" stroke-width="1.51"/><path d="M1691,43L1710,-155L1475,-34Z" fill="#c1989f" stroke="#c1989f" stroke-width="1.51"/><path d="M1454,-135L1710,-155L1124,-198Z" fill="#c2989e" stroke="#c2989e" stroke-width="1.51"/><path d="M1124,-198L1710,-155L698,-273Z" fill="#c99392" stroke="#c99392" stroke-width="1.51"/><path d="M1698,353L1710,-155L1691,43Z" fill="#c39091" stroke="#c39091" stroke-width="1.51"/><path d="M490,-278L-67,-269L350,-237Z" fill="#d0a9ac" stroke="#d0a9ac" stroke-width="1.51"/><path d="M93,-199L-67,-269L-14,-39Z" fill="#cabac7" stroke="#cabac7" stroke-width="1.51"/><path d="M-14,-39L-206,149L-59,169Z" fill="#ceb0b8" stroke="#ceb0b8" stroke-width="1.51"/><path d="M556,1053L295,1148L665,1117Z" fill="#c5776b" stroke="#c5776b" stroke-width="1.51"/><path d="M-63,912L115,985L102,733Z" fill="#c39498" stroke="#c39498" stroke-width="1.51"/><path d="M-269,22L-206,149L-14,-39Z" fill="#ccb6c0" stroke="#ccb6c0" stroke-width="1.51"/><path d="M-59,169L-280,388L19,350Z" fill="#d49a94" stroke="#d49a94" stroke-width="1.51"/><path d="M115,985L295,1148L375,884Z" fill="#c48783" stroke="#c48783" stroke-width="1.51"/><path d="M1698,353L1716,744L1710,-155Z" fill="#c5776b" stroke="#c5776b" stroke-width="1.51"/><path d="M1656,955L1716,744L1515,786Z" fill="#b87571" stroke="#b87571" stroke-width="1.51"/><path d="M1469,961L1656,955L1515,786Z" fill="#b57777" stroke="#b57777" stroke-width="1.51"/><path d="M1087,1048L1336,1160L1246,986Z" fill="#ba736d" stroke="#ba736d" stroke-width="1.51"/><path d="M665,1117L1336,1160L918,1052Z" fill="#bf6d61" stroke="#bf6d61" stroke-width="1.51"/><path d="M295,1148L1336,1160L665,1117Z" fill="#c46958" stroke="#c46958" stroke-width="1.51"/><path d="M1336,1160L1482,1081L1246,986Z" fill="#b77673" stroke="#b77673" stroke-width="1.51"/><path d="M-21,680L-63,912L102,733Z" fill="#c79494" stroke="#c79494" stroke-width="1.51"/><path d="M-206,149L-280,388L-59,169Z" fill="#d2a19f" stroke="#d2a19f" stroke-width="1.51"/><path d="M-280,388L-264,483L19,350Z" fill="#d58e83" stroke="#d58e83" stroke-width="1.51"/><path d="M-203,725L-63,912L-21,680Z" fill="#c79495" stroke="#c79495" stroke-width="1.51"/><path d="M115,985L107,1087L295,1148Z" fill="#c48d8d" stroke="#c48d8d" stroke-width="1.51"/><path d="M-78,1063L107,1087L115,985Z" fill="#c2959a" stroke="#c2959a" stroke-width="1.51"/><path d="M-206,149L-269,22L-280,388Z" fill="#d1a6a8" stroke="#d1a6a8" stroke-width="1.51"/><path d="M-251,-193L-269,22L-14,-39Z" fill="#cabac8" stroke="#cabac8" stroke-width="1.51"/><path d="M-264,483L-203,725L-21,680Z" fill="#ce908a" stroke="#ce908a" stroke-width="1.51"/><path d="M1482,1081L1656,955L1469,961Z" fill="#b57777" stroke="#b57777" stroke-width="1.51"/><path d="M-67,-269L-251,-193L-14,-39Z" fill="#cabac8" stroke="#cabac8" stroke-width="1.51"/><path d="M-63,912L-78,1063L115,985Z" fill="#c1989f" stroke="#c1989f" stroke-width="1.51"/><path d="M107,1087L-78,1063L295,1148Z" fill="#c39193" stroke="#c39193" stroke-width="1.51"/><path d="M-184,965L-78,1063L-63,912Z" fill="#c1989f" stroke="#c1989f" stroke-width="1.51"/><path d="M-227,1058L-203,725L-264,483Z" fill="#c99493" stroke="#c99493" stroke-width="1.51"/><path d="M-227,1058L-184,965L-203,725Z" fill="#c1989f" stroke="#c1989f" stroke-width="1.51"/><path d="M-203,725L-184,965L-63,912Z" fill="#c3979c" stroke="#c3979c" stroke-width="1.51"/><path d="M1482,1081L1634,1130L1656,955Z" fill="#b57777" stroke="#b57777" stroke-width="1.51"/><path d="M1656,955L1634,1130L1716,744Z" fill="#b57777" stroke="#b57777" stroke-width="1.51"/><path d="M1336,1160L1634,1130L1482,1081Z" fill="#b57777" stroke="#b57777" stroke-width="1.51"/><path d="M-184,965L-227,1058L-78,1063Z" fill="#c1989f" stroke="#c1989f" stroke-width="1.51"/><path d="M-78,1063L-227,1058L295,1148Z" fill="#c1989f" stroke="#c1989f" stroke-width="1.51"/><path d="M-280,388L-227,1058L-264,483Z" fill="#cd908b" stroke="#cd908b" stroke-width="1.51"/></svg>