<svg xmlns="http://www.w3.org/2000/svg" width="1440" height="900"><path d="M642,505L902,618L826,370Z" fill="#62a9a3" stroke="#62a9a3" stroke-width="1.51"/><path d="M902,618L1109,363L826,370Z" fill="#63aba6" stroke="#63aba6" stroke-width="1.51"/><path d="M642,505L744,795L902,618Z" fill="#65afaa" stroke="#65afaa" stroke-width="1.51"/><path d="M902,618L1018,718L985,636Z" fill="#69b7b1" stroke="#69b7b1" stroke-width="1.51"/><path d="M744,795L1018,718L902,618Z" fill="#69b7b2" stroke="#69b7b2" stroke-width="1.51"/><path d="M826,370L531,268L642,505Z" fill="#77a59f" stroke="#77a59f" stroke-width="1.51"/><path d="M1046,158L751,194L826,370Z" fill="#90aaa4" stroke="#90aaa4" stroke-width="1.51"/><path d="M744,795L866,924L1018,718Z" fill="#6cbcb7" stroke="#6cbcb7" stroke-width="1.51"/><path d="M642,505L684,830L744,795Z" fill="#6bb1ac" stroke="#6bb1ac" stroke-width="1.51"/><path d="M985,636L1109,363L902,618Z" fill="#66b1ac" stroke="#66b1ac" stroke-width="1.51"/><path d="M1175,632L1109,363L985,636Z" fill="#68b5b0" stroke="#68b5b0" stroke-width="1.51"/><path d="M751,194L531,268L826,370Z" fill="#88a59f" stroke="#88a59f" stroke-width="1.51"/><path d="M642,505L445,781L684,830Z" fill="#7bb2ac" stroke="#7bb2ac" stroke-width="1.51"/><path d="M1018,718L1175,632L985,636Z" fill="#6bbab5" stroke="#6bbab5" stroke-width="1.51"/><path d="M684,830L866,924L744,795Z" fill="#6bbbb5" stroke="#6bbbb5" stroke-width="1.51"/><path d="M1018,718L1196,720L1175,632Z" fill="#6ebeb8" stroke="#6ebeb8" stroke-width="1.51"/><path d="M334,571L445,781L642,505Z" fill="#87aea8" stroke="#87aea8" stroke-width="1.51"/><path d="M684,830L583,1030L866,924Z" fill="#6dbcb6" stroke="#6dbcb6" stroke-width="1.51"/><path d="M1109,363L1046,158L826,370Z" fill="#87aea8" stroke="#87aea8" stroke-width="1.51"/><path d="M991,1063L1196,720L1018,718Z" fill="#70c4be" stroke="#70c4be" stroke-width="1.51"/><path d="M531,268L388,309L642,505Z" fill="#8ea59f" stroke="#8ea59f" stroke-width="1.51"/><path d="M378,60L388,309L531,268Z" fill="#b3a5a0" stroke="#b3a5a0" stroke-width="1.51"/><path d="M388,309L334,571L642,505Z" fill="#85a5a0" stroke="#85a5a0" stroke-width="1.51"/><path d="M751,194L655,63L531,268Z" fill="#a2a69f" stroke="#a2a69f" stroke-width="1.51"/><path d="M1033,-42L655,63L751,194Z" fill="#aea8a3" stroke="#aea8a3" stroke-width="1.51"/><path d="M445,781L583,1030L684,830Z" fill="#83bbb5" stroke="#83bbb5" stroke-width="1.51"/><path d="M1477,587L1341,359L1175,632Z" fill="#6cbcb7" stroke="#6cbcb7" stroke-width="1.51"/><path d="M1175,632L1341,359L1109,363Z" fill="#68b4af" stroke="#68b4af" stroke-width="1.51"/><path d="M1109,363L1243,71L1046,158Z" fill="#9eb3ad" stroke="#9eb3ad" stroke-width="1.51"/><path d="M866,924L991,1063L1018,718Z" fill="#70c4be" stroke="#70c4be" stroke-width="1.51"/><path d="M782,1265L991,1063L866,924Z" fill="#6fc1bb" stroke="#6fc1bb" stroke-width="1.51"/><path d="M655,63L378,60L531,268Z" fill="#b7a5a0" stroke="#b7a5a0" stroke-width="1.51"/><path d="M743,-144L593,-52L655,63Z" fill="#bea5a0" stroke="#bea5a0" stroke-width="1.51"/><path d="M1046,158L1033,-42L751,194Z" fill="#abada6" stroke="#abada6" stroke-width="1.51"/><path d="M1243,71L1033,-42L1046,158Z" fill="#b6b3ac" stroke="#b6b3ac" stroke-width="1.51"/><path d="M593,-52L378,60L655,63Z" fill="#c7a5a0" stroke="#c7a5a0" stroke-width="1.51"/><path d="M388,309L161,372L334,571Z" fill="#9ea59f" stroke="#9ea59f" stroke-width="1.51"/><path d="M1341,359L1243,71L1109,363Z" fill="#93b6b0" stroke="#93b6b0" stroke-width="1.51"/><path d="M131,92L161,372L388,309Z" fill="#c0a5a0" stroke="#c0a5a0" stroke-width="1.51"/><path d="M105,794L347,1005L445,781Z" fill="#a6bbb5" stroke="#a6bbb5" stroke-width="1.51"/><path d="M445,781L347,1005L583,1030Z" fill="#93bdb7" stroke="#93bdb7" stroke-width="1.51"/><path d="M105,794L445,781L334,571Z" fill="#a1b3ad" stroke="#a1b3ad" stroke-width="1.51"/><path d="M1033,-42L743,-144L655,63Z" fill="#baa8a3" stroke="#baa8a3" stroke-width="1.51"/><path d="M593,-52L364,-69L378,60Z" fill="#d4a4a0" stroke="#d4a4a0" stroke-width="1.51"/><path d="M161,372L112,600L334,571Z" fill="#a5a9a3" stroke="#a5a9a3" stroke-width="1.51"/><path d="M1474,693L1477,587L1175,632Z" fill="#70c4be" stroke="#70c4be" stroke-width="1.51"/><path d="M1501,188L1327,-10L1243,71Z" fill="#b9bab4" stroke="#b9bab4" stroke-width="1.51"/><path d="M1474,693L1175,632L1196,720Z" fill="#6fc2bd" stroke="#6fc2bd" stroke-width="1.51"/><path d="M1429,1046L1474,693L1196,720Z" fill="#75cdc7" stroke="#75cdc7" stroke-width="1.51"/><path d="M991,1063L1261,1060L1196,720Z" fill="#73cac4" stroke="#73cac4" stroke-width="1.51"/><path d="M378,60L131,92L388,309Z" fill="#caa5a0" stroke="#caa5a0" stroke-width="1.51"/><path d="M586,-254L364,-69L593,-52Z" fill="#cda4a0" stroke="#cda4a0" stroke-width="1.51"/><path d="M1650,273L1511,415L1711,512Z" fill="#79bcb6" stroke="#79bcb6" stroke-width="1.51"/><path d="M1477,587L1511,415L1341,359Z" fill="#6cbcb6" stroke="#6cbcb6" stroke-width="1.51"/><path d="M112,600L105,794L334,571Z" fill="#acb0aa" stroke="#acb0aa" stroke-width="1.51"/><path d="M991,1063L1090,1216L1261,1060Z" fill="#73c9c3" stroke="#73c9c3" stroke-width="1.51"/><path d="M583,1030L782,1265L866,924Z" fill="#6cbdb7" stroke="#6cbdb7" stroke-width="1.51"/><path d="M578,1279L782,1265L583,1030Z" fill="#78bcb6" stroke="#78bcb6" stroke-width="1.51"/><path d="M1501,188L1243,71L1341,359Z" fill="#a1bbb4" stroke="#a1bbb4" stroke-width="1.51"/><path d="M1243,71L1327,-10L1033,-42Z" fill="#c2b5af" stroke="#c2b5af" stroke-width="1.51"/><path d="M1033,-42L753,-269L743,-144Z" fill="#bba9a4" stroke="#bba9a4" stroke-width="1.51"/><path d="M782,1265L1090,1216L991,1063Z" fill="#70c3be" stroke="#70c3be" stroke-width="1.51"/><path d="M1511,415L1501,188L1341,359Z" fill="#8bbcb7" stroke="#8bbcb7" stroke-width="1.51"/><path d="M-42,387L-14,617L112,600Z" fill="#b9aaa4" stroke="#b9aaa4" stroke-width="1.51"/><path d="M177,-33L131,92L378,60Z" fill="#e3a3a0" stroke="#e3a3a0" stroke-width="1.51"/><path d="M743,-144L586,-254L593,-52Z" fill="#c0a5a0" stroke="#c0a5a0" stroke-width="1.51"/><path d="M1120,-275L753,-269L1033,-42Z" fill="#beada8" stroke="#beada8" stroke-width="1.51"/><path d="M374,1254L578,1279L583,1030Z" fill="#8cbcb7" stroke="#8cbcb7" stroke-width="1.51"/><path d="M374,1254L583,1030L347,1005Z" fill="#96bdb7" stroke="#96bdb7" stroke-width="1.51"/><path d="M364,-69L177,-33L378,60Z" fill="#e2a4a0" stroke="#e2a4a0" stroke-width="1.51"/><path d="M753,-269L586,-254L743,-144Z" fill="#bba5a0" stroke="#bba5a0" stroke-width="1.51"/><path d="M-42,387L112,600L161,372Z" fill="#b0a5a0" stroke="#b0a5a0" stroke-width="1.51"/><path d="M112,600L-14,617L105,794Z" fill="#b9b1ab" stroke="#b9b1ab" stroke-width="1.51"/><path d="M314,-337L177,-33L364,-69Z" fill="#e4a4a0" stroke="#e4a4a0" stroke-width="1.51"/><path d="M1261,1060L1429,1046L1196,720Z" fill="#76cfc9" stroke="#76cfc9" stroke-width="1.51"/><path d="M1711,512L1511,415L1477,587Z" fill="#6dbfb9" stroke="#6dbfb9" stroke-width="1.51"/><path d="M1421,1233L1429,1046L1261,1060Z" fill="#77d1cb" stroke="#77d1cb" stroke-width="1.51"/><path d="M-24,990L129,1017L105,794Z" fill="#c2bdb7" stroke="#c2bdb7" stroke-width="1.51"/><path d="M105,794L129,1017L347,1005Z" fill="#b4bdb7" stroke="#b4bdb7" stroke-width="1.51"/><path d="M-48,168L-42,387L161,372Z" fill="#cda4a0" stroke="#cda4a0" stroke-width="1.51"/><path d="M-48,168L161,372L131,92Z" fill="#d7a4a0" stroke="#d7a4a0" stroke-width="1.51"/><path d="M187,1241L374,1254L347,1005Z" fill="#a6bdb7" stroke="#a6bdb7" stroke-width="1.51"/><path d="M1292,-273L1120,-275L1327,-10Z" fill="#c5b7b1" stroke="#c5b7b1" stroke-width="1.51"/><path d="M1327,-10L1120,-275L1033,-42Z" fill="#c3b4ae" stroke="#c3b4ae" stroke-width="1.51"/><path d="M-254,636L-61,690L-14,617Z" fill="#bfb0aa" stroke="#bfb0aa" stroke-width="1.51"/><path d="M-14,617L-61,690L105,794Z" fill="#c0b2ad" stroke="#c0b2ad" stroke-width="1.51"/><path d="M1511,415L1650,273L1501,188Z" fill="#92bdb7" stroke="#92bdb7" stroke-width="1.51"/><path d="M1484,-138L1292,-273L1327,-10Z" fill="#c7bbb5" stroke="#c7bbb5" stroke-width="1.51"/><path d="M1711,512L1477,587L1474,693Z" fill="#70c3be" stroke="#70c3be" stroke-width="1.51"/><path d="M578,1279L1301,1269L782,1265Z" fill="#6fc1bc" stroke="#6fc1bc" stroke-width="1.51"/><path d="M782,1265L1301,1269L1090,1216Z" fill="#72c7c1" stroke="#72c7c1" stroke-width="1.51"/><path d="M1090,1216L1301,1269L1261,1060Z" fill="#75ccc6" stroke="#75ccc6" stroke-width="1.51"/><path d="M-42,387L-254,636L-14,617Z" fill="#bcaaa5" stroke="#bcaaa5" stroke-width="1.51"/><path d="M-5,-153L-48,168L131,92Z" fill="#f7a2a1" stroke="#f7a2a1" stroke-width="1.51"/><path d="M1730,786L1711,512L1474,693Z" fill="#72c7c1" stroke="#72c7c1" stroke-width="1.51"/><path d="M1616,56L1327,-10L1501,188Z" fill="#bbbdb7" stroke="#bbbdb7" stroke-width="1.51"/><path d="M1429,1046L1615,971L1474,693Z" fill="#79d4ce" stroke="#79d4ce" stroke-width="1.51"/><path d="M1695,1239L1615,971L1429,1046Z" fill="#79d4ce" stroke="#79d4ce" stroke-width="1.51"/><path d="M-61,690L-24,990L105,794Z" fill="#c6b9b3" stroke="#c6b9b3" stroke-width="1.51"/><path d="M129,1017L187,1241L347,1005Z" fill="#b0bdb7" stroke="#b0bdb7" stroke-width="1.51"/><path d="M-44,1269L187,1241L129,1017Z" fill="#bfbeb7" stroke="#bfbeb7" stroke-width="1.51"/><path d="M374,1254L-44,1269L578,1279Z" fill="#a6bdb7" stroke="#a6bdb7" stroke-width="1.51"/><path d="M1733,-143L1616,56L1650,273Z" fill="#bebdb7" stroke="#bebdb7" stroke-width="1.51"/><path d="M1650,273L1616,56L1501,188Z" fill="#a9bdb7" stroke="#a9bdb7" stroke-width="1.51"/><path d="M1616,56L1484,-138L1327,-10Z" fill="#c9bdb7" stroke="#c9bdb7" stroke-width="1.51"/><path d="M1301,1269L1421,1233L1261,1060Z" fill="#77d0ca" stroke="#77d0ca" stroke-width="1.51"/><path d="M1615,971L1730,786L1474,693Z" fill="#76cfc9" stroke="#76cfc9" stroke-width="1.51"/><path d="M177,-33L-5,-153L131,92Z" fill="#f6a2a1" stroke="#f6a2a1" stroke-width="1.51"/><path d="M586,-254L314,-337L364,-69Z" fill="#d6a4a0" stroke="#d6a4a0" stroke-width="1.51"/><path d="M753,-269L314,-337L586,-254Z" fill="#c9a5a0" stroke="#c9a5a0" stroke-width="1.51"/><path d="M1120,-275L314,-337L753,-269Z" fill="#b8a6a0" stroke="#b8a6a0" stroke-width="1.51"/><path d="M1536,-318L314,-337L1120,-275Z" fill="#bfaea8" stroke="#bfaea8" stroke-width="1.51"/><path d="M171,-340L-5,-153L177,-33Z" fill="#f4a2a1" stroke="#f4a2a1" stroke-width="1.51"/><path d="M-282,346L-42,387L-48,168Z" fill="#d1a4a0" stroke="#d1a4a0" stroke-width="1.51"/><path d="M-282,346L-254,636L-42,387Z" fill="#b8a6a0" stroke="#b8a6a0" stroke-width="1.51"/><path d="M-61,690L-267,739L-24,990Z" fill="#c6b8b2" stroke="#c6b8b2" stroke-width="1.51"/><path d="M-5,-153L-179,107L-48,168Z" fill="#f9a2a1" stroke="#f9a2a1" stroke-width="1.51"/><path d="M314,-337L171,-340L177,-33Z" fill="#eaa3a0" stroke="#eaa3a0" stroke-width="1.51"/><path d="M-254,636L-267,739L-61,690Z" fill="#c1b2ac" stroke="#c1b2ac" stroke-width="1.51"/><path d="M-24,990L-44,1269L129,1017Z" fill="#c7bdb7" stroke="#c7bdb7" stroke-width="1.51"/><path d="M-179,107L-282,346L-48,168Z" fill="#dfa4a0" stroke="#dfa4a0" stroke-width="1.51"/><path d="M-254,636L-282,346L-267,739Z" fill="#bdaca6" stroke="#bdaca6" stroke-width="1.51"/><path d="M1292,-273L1536,-318L1120,-275Z" fill="#c6b9b3" stroke="#c6b9b3" stroke-width="1.51"/><path d="M314,-337L-307,-357L171,-340Z" fill="#faa2a1" stroke="#faa2a1" stroke-width="1.51"/><path d="M1484,-138L1536,-318L1292,-273Z" fill="#c9bdb7" stroke="#c9bdb7" stroke-width="1.51"/><path d="M1733,-143L1536,-318L1484,-138Z" fill="#c9bdb7" stroke="#c9bdb7" stroke-width="1.51"/><path d="M187,1241L-44,1269L374,1254Z" fill="#b6bdb7" stroke="#b6bdb7" stroke-width="1.51"/><path d="M-166,1257L-44,1269L-24,990Z" fill="#c9bdb7" stroke="#c9bdb7" stroke-width="1.51"/><path d="M1616,56L1733,-143L1484,-138Z" fill="#c9bdb7" stroke="#c9bdb7" stroke-width="1.51"/><path d="M1711,512L1733,-143L1650,273Z" fill="#a2bdb7" stroke="#a2bdb7" stroke-width="1.51"/><path d="M1730,786L1733,-143L1711,512Z" fill="#7cbcb6" stroke="#7cbcb6" stroke-width="1.51"/><path d="M1301,1269L1695,1239L1421,1233Z" fill="#79d4ce" stroke="#79d4ce" stroke-width="1.51"/><path d="M1421,1233L1695,1239L1429,1046Z" fill="#79d4ce" stroke="#79d4ce" stroke-width="1.51"/><path d="M1615,971L1695,1239L1730,786Z" fill="#79d4ce" stroke="#79d4ce" stroke-width="1.51"/><path d="M171,-340L-37,-298L-5,-153Z" fill="#fba2a1" stroke="#fba2a1" stroke-width="1.51"/><path d="M-5,-153L-312,-42L-179,107Z" fill="#ffa1a1" stroke="#ffa1a1" stroke-width="1.51"/><path d="M-179,107L-312,-42L-282,346Z" fill="#eaa3a0" stroke="#eaa3a0" stroke-width="1.51"/><path d="M-328,1042L-166,1257L-24,990Z" fill="#c9bdb7" stroke="#c9bdb7" stroke-width="1.51"/><path d="M-37,-298L-312,-42L-5,-153Z" fill="#ffa1a1" stroke="#ffa1a1" stroke-width="1.51"/><path d="M-282,346L-328,1042L-267,739Z" fill="#c2b3ad" stroke="#c2b3ad" stroke-width="1.51"/><path d="M-267,739L-328,1042L-24,990Z" fill="#c9bdb7" stroke="#c9bdb7" stroke-width="1.51"/><path d="M-312,-42L-328,1042L-282,346Z" fill="#b8a5a0" stroke="#b8a5a0" stroke-width="1.51"/><path d="M1733,-143L1738,-343L1536,-318Z" fill="#c9bdb7" stroke="#c9bdb7" stroke-width="1.51"/><path d="M1536,-318L1738,-343L314,-337Z" fill="#c3b5af" stroke="#c3b5af" stroke-width="1.51"/><path d="M1730,786L1738,-343L1733,-143Z" fill="#b7bdb7" stroke="#b7bdb7" stroke-width="1.51"/><path d="M1738,-343L-307,-357L314,-337Z" fill="#c6a5a0" stroke="#c6a5a0" stroke-width="1.51"/><path d="M171,-340L-307,-357L-37,-298Z" fill="#ffa1a1" stroke="#ffa1a1" stroke-width="1.51"/><path d="M-37,-298L-307,-357L-312,-42Z" fill="#ffa1a1" stroke="#ffa1a1" stroke-width="1.51"/></svg>