<svg xmlns="http://www.w3.org/2000/svg" width="1440" height="900"><path d="M699,568L812,462L644,379Z" fill="#ce8f8e" stroke="#ce8f8e" stroke-width="1.51"/><path d="M812,462L863,375L644,379Z" fill="#cc8d8a" stroke="#cc8d8a" stroke-width="1.51"/><path d="M699,568L873,702L812,462Z" fill="#bf9994" stroke="#bf9994" stroke-width="1.51"/><path d="M812,462L1014,507L863,375Z" fill="#c59592" stroke="#c59592" stroke-width="1.51"/><path d="M873,702L1014,507L812,462Z" fill="#bb9c97" stroke="#bb9c97" stroke-width="1.51"/><path d="M644,379L316,566L699,568Z" fill="#c78a85" stroke="#c78a85" stroke-width="1.51"/><path d="M479,184L447,271L644,379Z" fill="#c4786f" stroke="#c4786f" stroke-width="1.51"/><path d="M520,106L479,184L644,379Z" fill="#c2756b" stroke="#c2756b" stroke-width="1.51"/><path d="M370,757L628,850L699,568Z" fill="#b1998f" stroke="#b1998f" stroke-width="1.51"/><path d="M699,568L628,850L873,702Z" fill="#b59f98" stroke="#b59f98" stroke-width="1.51"/><path d="M913,65L520,106L644,379Z" fill="#c57970" stroke="#c57970" stroke-width="1.51"/><path d="M1014,507L1072,304L863,375Z" fill="#bf958e" stroke="#bf958e" stroke-width="1.51"/><path d="M913,65L644,379L863,375Z" fill="#c5857d" stroke="#c5857d" stroke-width="1.51"/><path d="M447,271L316,566L644,379Z" fill="#c87f78" stroke="#c87f78" stroke-width="1.51"/><path d="M209,265L316,566L447,271Z" fill="#c2756b" stroke="#c2756b" stroke-width="1.51"/><path d="M873,702L954,815L1014,507Z" fill="#aaa59d" stroke="#aaa59d" stroke-width="1.51"/><path d="M1348,377L1188,112L1072,304Z" fill="#ac9487" stroke="#ac9487" stroke-width="1.51"/><path d="M628,850L954,815L873,702Z" fill="#a6a79e" stroke="#a6a79e" stroke-width="1.51"/><path d="M316,566L370,757L699,568Z" fill="#b98e84" stroke="#b98e84" stroke-width="1.51"/><path d="M1036,131L913,65L863,375Z" fill="#ba8478" stroke="#ba8478" stroke-width="1.51"/><path d="M1072,304L1036,131L863,375Z" fill="#ba8d82" stroke="#ba8d82" stroke-width="1.51"/><path d="M311,1006L634,992L628,850Z" fill="#9da294" stroke="#9da294" stroke-width="1.51"/><path d="M628,850L821,1015L954,815Z" fill="#9aada2" stroke="#9aada2" stroke-width="1.51"/><path d="M479,184L209,265L447,271Z" fill="#bf6f62" stroke="#bf6f62" stroke-width="1.51"/><path d="M316,566L187,709L370,757Z" fill="#b18a7b" stroke="#b18a7b" stroke-width="1.51"/><path d="M122,119L209,265L479,184Z" fill="#b96656" stroke="#b96656" stroke-width="1.51"/><path d="M634,992L821,1015L628,850Z" fill="#a0a99f" stroke="#a0a99f" stroke-width="1.51"/><path d="M97,640L187,709L316,566Z" fill="#b38374" stroke="#b38374" stroke-width="1.51"/><path d="M370,757L311,1006L628,850Z" fill="#a09c8d" stroke="#a09c8d" stroke-width="1.51"/><path d="M1121,-93L820,-116L913,65Z" fill="#b27866" stroke="#b27866" stroke-width="1.51"/><path d="M913,65L820,-116L520,106Z" fill="#bd7062" stroke="#bd7062" stroke-width="1.51"/><path d="M520,106L400,-92L479,184Z" fill="#b96757" stroke="#b96757" stroke-width="1.51"/><path d="M1036,131L1121,-93L913,65Z" fill="#af7d6b" stroke="#af7d6b" stroke-width="1.51"/><path d="M1072,304L1188,112L1036,131Z" fill="#b18b7c" stroke="#b18b7c" stroke-width="1.51"/><path d="M1348,377L1072,304L1014,507Z" fill="#b49b93" stroke="#b49b93" stroke-width="1.51"/><path d="M820,-116L692,-152L520,106Z" fill="#bc6b5d" stroke="#bc6b5d" stroke-width="1.51"/><path d="M1208,874L1346,526L1014,507Z" fill="#9caca2" stroke="#9caca2" stroke-width="1.51"/><path d="M821,1015L1066,972L954,815Z" fill="#8cb2a7" stroke="#8cb2a7" stroke-width="1.51"/><path d="M692,-152L400,-92L520,106Z" fill="#b86554" stroke="#b86554" stroke-width="1.51"/><path d="M44,504L97,640L316,566Z" fill="#b77c6e" stroke="#b77c6e" stroke-width="1.51"/><path d="M1208,874L1014,507L954,815Z" fill="#9aada2" stroke="#9aada2" stroke-width="1.51"/><path d="M1346,526L1348,377L1014,507Z" fill="#ada49c" stroke="#ada49c" stroke-width="1.51"/><path d="M1066,972L1208,874L954,815Z" fill="#82b6aa" stroke="#82b6aa" stroke-width="1.51"/><path d="M-58,390L44,504L209,265Z" fill="#bc6c5d" stroke="#bc6c5d" stroke-width="1.51"/><path d="M209,265L44,504L316,566Z" fill="#c3756b" stroke="#c3756b" stroke-width="1.51"/><path d="M634,992L792,1219L821,1015Z" fill="#9eaca2" stroke="#9eaca2" stroke-width="1.51"/><path d="M187,709L311,1006L370,757Z" fill="#a29381" stroke="#a29381" stroke-width="1.51"/><path d="M54,825L311,1006L187,709Z" fill="#9e907b" stroke="#9e907b" stroke-width="1.51"/><path d="M400,-92L122,119L479,184Z" fill="#b6614e" stroke="#b6614e" stroke-width="1.51"/><path d="M1188,112L1121,-93L1036,131Z" fill="#aa826f" stroke="#aa826f" stroke-width="1.51"/><path d="M820,-116L828,-226L692,-152Z" fill="#ba7061" stroke="#ba7061" stroke-width="1.51"/><path d="M1265,-142L1121,-93L1188,112Z" fill="#a4826c" stroke="#a4826c" stroke-width="1.51"/><path d="M692,-152L670,-315L400,-92Z" fill="#b96757" stroke="#b96757" stroke-width="1.51"/><path d="M1121,-93L828,-226L820,-116Z" fill="#b37665" stroke="#b37665" stroke-width="1.51"/><path d="M311,1006L380,1134L634,992Z" fill="#9c9e8f" stroke="#9c9e8f" stroke-width="1.51"/><path d="M821,1015L946,1274L1066,972Z" fill="#8cb2a7" stroke="#8cb2a7" stroke-width="1.51"/><path d="M203,1077L380,1134L311,1006Z" fill="#9a9885" stroke="#9a9885" stroke-width="1.51"/><path d="M97,640L54,825L187,709Z" fill="#a98572" stroke="#a98572" stroke-width="1.51"/><path d="M-229,537L54,825L97,640Z" fill="#ab7d68" stroke="#ab7d68" stroke-width="1.51"/><path d="M400,-92L200,-90L122,119Z" fill="#b05842" stroke="#b05842" stroke-width="1.51"/><path d="M323,-279L200,-90L400,-92Z" fill="#b15c46" stroke="#b15c46" stroke-width="1.51"/><path d="M520,1299L792,1219L634,992Z" fill="#9fa79c" stroke="#9fa79c" stroke-width="1.51"/><path d="M1066,972L1225,1080L1208,874Z" fill="#75baad" stroke="#75baad" stroke-width="1.51"/><path d="M-65,152L-58,390L209,265Z" fill="#b6614f" stroke="#b6614f" stroke-width="1.51"/><path d="M44,504L-229,537L97,640Z" fill="#b47564" stroke="#b47564" stroke-width="1.51"/><path d="M-65,152L209,265L122,119Z" fill="#b45f4a" stroke="#b45f4a" stroke-width="1.51"/><path d="M828,-226L670,-315L692,-152Z" fill="#bd6e60" stroke="#bd6e60" stroke-width="1.51"/><path d="M1114,-304L670,-315L828,-226Z" fill="#b67463" stroke="#b67463" stroke-width="1.51"/><path d="M54,825L203,1077L311,1006Z" fill="#98937e" stroke="#98937e" stroke-width="1.51"/><path d="M1560,512L1348,377L1346,526Z" fill="#9faba1" stroke="#9faba1" stroke-width="1.51"/><path d="M1550,272L1467,223L1348,377Z" fill="#9c9f90" stroke="#9c9f90" stroke-width="1.51"/><path d="M1348,377L1467,223L1188,112Z" fill="#a29888" stroke="#a29888" stroke-width="1.51"/><path d="M1208,874L1416,853L1346,526Z" fill="#7eb7aa" stroke="#7eb7aa" stroke-width="1.51"/><path d="M946,1274L1225,1080L1066,972Z" fill="#7fb7ab" stroke="#7fb7ab" stroke-width="1.51"/><path d="M1225,1080L1416,853L1208,874Z" fill="#66beb0" stroke="#66beb0" stroke-width="1.51"/><path d="M1383,-106L1265,-142L1188,112Z" fill="#9f856e" stroke="#9f856e" stroke-width="1.51"/><path d="M1121,-93L1114,-304L828,-226Z" fill="#ae7b67" stroke="#ae7b67" stroke-width="1.51"/><path d="M-52,-32L-65,152L122,119Z" fill="#ac543b" stroke="#ac543b" stroke-width="1.51"/><path d="M200,-90L-52,-32L122,119Z" fill="#ab5239" stroke="#ab5239" stroke-width="1.51"/><path d="M670,-315L323,-279L400,-92Z" fill="#b66250" stroke="#b66250" stroke-width="1.51"/><path d="M792,1219L946,1274L821,1015Z" fill="#95afa4" stroke="#95afa4" stroke-width="1.51"/><path d="M520,1299L946,1274L792,1219Z" fill="#9daca2" stroke="#9daca2" stroke-width="1.51"/><path d="M1416,853L1560,512L1346,526Z" fill="#86b5a9" stroke="#86b5a9" stroke-width="1.51"/><path d="M380,1134L520,1299L634,992Z" fill="#9da293" stroke="#9da293" stroke-width="1.51"/><path d="M251,1280L520,1299L380,1134Z" fill="#9c9c8a" stroke="#9c9c8a" stroke-width="1.51"/><path d="M1612,431L1550,272L1348,377Z" fill="#9ea497" stroke="#9ea497" stroke-width="1.51"/><path d="M1467,223L1383,-106L1188,112Z" fill="#9e8d78" stroke="#9e8d78" stroke-width="1.51"/><path d="M1265,-142L1114,-304L1121,-93Z" fill="#a6816b" stroke="#a6816b" stroke-width="1.51"/><path d="M1265,-142L1259,-274L1114,-304Z" fill="#a3836c" stroke="#a3836c" stroke-width="1.51"/><path d="M1674,145L1383,-106L1467,223Z" fill="#98917b" stroke="#98917b" stroke-width="1.51"/><path d="M1719,635L1612,431L1560,512Z" fill="#95afa4" stroke="#95afa4" stroke-width="1.51"/><path d="M1560,512L1612,431L1348,377Z" fill="#a0aaa0" stroke="#a0aaa0" stroke-width="1.51"/><path d="M-62,-241L-52,-32L200,-90Z" fill="#a94f36" stroke="#a94f36" stroke-width="1.51"/><path d="M54,825L-37,989L203,1077Z" fill="#968e77" stroke="#968e77" stroke-width="1.51"/><path d="M203,1077L251,1280L380,1134Z" fill="#9a9784" stroke="#9a9784" stroke-width="1.51"/><path d="M-289,873L-37,989L54,825Z" fill="#958b72" stroke="#958b72" stroke-width="1.51"/><path d="M1383,-106L1259,-274L1265,-142Z" fill="#9e866e" stroke="#9e866e" stroke-width="1.51"/><path d="M-13,1243L251,1280L203,1077Z" fill="#97927c" stroke="#97927c" stroke-width="1.51"/><path d="M-286,266L-58,390L-65,152Z" fill="#b5604e" stroke="#b5604e" stroke-width="1.51"/><path d="M-286,266L-229,537L-58,390Z" fill="#bb6a5a" stroke="#bb6a5a" stroke-width="1.51"/><path d="M-58,390L-229,537L44,504Z" fill="#bb6f60" stroke="#bb6f60" stroke-width="1.51"/><path d="M323,-279L226,-362L200,-90Z" fill="#b05943" stroke="#b05943" stroke-width="1.51"/><path d="M670,-315L226,-362L323,-279Z" fill="#b45f4c" stroke="#b45f4c" stroke-width="1.51"/><path d="M1114,-304L226,-362L670,-315Z" fill="#bc6b5d" stroke="#bc6b5d" stroke-width="1.51"/><path d="M1416,853L1719,635L1560,512Z" fill="#80b6aa" stroke="#80b6aa" stroke-width="1.51"/><path d="M1225,1080L1484,1050L1416,853Z" fill="#57c1b3" stroke="#57c1b3" stroke-width="1.51"/><path d="M946,1274L1237,1264L1225,1080Z" fill="#79b9ac" stroke="#79b9ac" stroke-width="1.51"/><path d="M520,1299L1237,1264L946,1274Z" fill="#90b1a6" stroke="#90b1a6" stroke-width="1.51"/><path d="M1483,1250L1484,1050L1225,1080Z" fill="#53c2b4" stroke="#53c2b4" stroke-width="1.51"/><path d="M1484,1050L1612,903L1416,853Z" fill="#4bc3b5" stroke="#4bc3b5" stroke-width="1.51"/><path d="M-268,151L-286,266L-65,152Z" fill="#b15b46" stroke="#b15b46" stroke-width="1.51"/><path d="M1719,635L1674,145L1612,431Z" fill="#9fa79c" stroke="#9fa79c" stroke-width="1.51"/><path d="M1612,431L1674,145L1550,272Z" fill="#9c9f8f" stroke="#9c9f8f" stroke-width="1.51"/><path d="M1550,272L1674,145L1467,223Z" fill="#9a9a88" stroke="#9a9a88" stroke-width="1.51"/><path d="M1383,-106L1496,-270L1259,-274Z" fill="#998971" stroke="#998971" stroke-width="1.51"/><path d="M-52,-32L-268,151L-65,152Z" fill="#ad553c" stroke="#ad553c" stroke-width="1.51"/><path d="M-280,-170L-268,151L-52,-32Z" fill="#a84e34" stroke="#a84e34" stroke-width="1.51"/><path d="M1729,774L1719,635L1416,853Z" fill="#70bbae" stroke="#70bbae" stroke-width="1.51"/><path d="M226,-362L-62,-241L200,-90Z" fill="#ac543b" stroke="#ac543b" stroke-width="1.51"/><path d="M-240,1243L-13,1243L-37,989Z" fill="#958b72" stroke="#958b72" stroke-width="1.51"/><path d="M-37,989L-13,1243L203,1077Z" fill="#968d75" stroke="#968d75" stroke-width="1.51"/><path d="M1612,903L1729,774L1416,853Z" fill="#5cc0b2" stroke="#5cc0b2" stroke-width="1.51"/><path d="M1612,1121L1729,774L1612,903Z" fill="#4bc3b5" stroke="#4bc3b5" stroke-width="1.51"/><path d="M-229,537L-289,873L54,825Z" fill="#a4826c" stroke="#a4826c" stroke-width="1.51"/><path d="M-286,266L-289,873L-229,537Z" fill="#b57564" stroke="#b57564" stroke-width="1.51"/><path d="M1648,-165L1496,-270L1383,-106Z" fill="#958b72" stroke="#958b72" stroke-width="1.51"/><path d="M1259,-274L1496,-270L1114,-304Z" fill="#9e866e" stroke="#9e866e" stroke-width="1.51"/><path d="M1484,1050L1612,1121L1612,903Z" fill="#4bc3b5" stroke="#4bc3b5" stroke-width="1.51"/><path d="M1237,1264L1483,1250L1225,1080Z" fill="#61bfb1" stroke="#61bfb1" stroke-width="1.51"/><path d="M1483,1250L1612,1121L1484,1050Z" fill="#4bc3b5" stroke="#4bc3b5" stroke-width="1.51"/><path d="M226,-362L-203,-207L-62,-241Z" fill="#a84e34" stroke="#a84e34" stroke-width="1.51"/><path d="M-62,-241L-203,-207L-52,-32Z" fill="#a84e34" stroke="#a84e34" stroke-width="1.51"/><path d="M1674,145L1648,-165L1383,-106Z" fill="#958b72" stroke="#958b72" stroke-width="1.51"/><path d="M1718,-298L1648,-165L1674,145Z" fill="#958b72" stroke="#958b72" stroke-width="1.51"/><path d="M-289,873L-332,978L-37,989Z" fill="#958b72" stroke="#958b72" stroke-width="1.51"/><path d="M-286,266L-332,978L-289,873Z" fill="#a87f6a" stroke="#a87f6a" stroke-width="1.51"/><path d="M-286,266L-280,-170L-332,978Z" fill="#b96756" stroke="#b96756" stroke-width="1.51"/><path d="M-268,151L-280,-170L-286,266Z" fill="#ac543c" stroke="#ac543c" stroke-width="1.51"/><path d="M-203,-207L-280,-170L-52,-32Z" fill="#a84e34" stroke="#a84e34" stroke-width="1.51"/><path d="M-13,1243L-240,1243L251,1280Z" fill="#958b72" stroke="#958b72" stroke-width="1.51"/><path d="M-332,978L-240,1243L-37,989Z" fill="#958b72" stroke="#958b72" stroke-width="1.51"/><path d="M1648,-165L1718,-298L1496,-270Z" fill="#958b72" stroke="#958b72" stroke-width="1.51"/><path d="M1496,-270L1718,-298L1114,-304Z" fill="#958b72" stroke="#958b72" stroke-width="1.51"/><path d="M1114,-304L1718,-298L226,-362Z" fill="#ae7b67" stroke="#ae7b67" stroke-width="1.51"/><path d="M1719,635L1718,-298L1674,145Z" fill="#9a9682" stroke="#9a9682" stroke-width="1.51"/><path d="M1729,774L1718,-298L1719,635Z" fill="#9ea598" stroke="#9ea598" stroke-width="1.51"/></svg>