<svg xmlns="http://www.w3.org/2000/svg" width="1440" height="900"><path d="M712,554L587,718L732,719Z" fill="#a8dbf0" stroke="#a8dbf0" stroke-width="1.51"/><path d="M712,554L476,480L587,718Z" fill="#aed9ef" stroke="#aed9ef" stroke-width="1.51"/><path d="M587,718L566,882L732,719Z" fill="#a4d9ed" stroke="#a4d9ed" stroke-width="1.51"/><path d="M302,766L566,882L587,718Z" fill="#a6d5e7" stroke="#a6d5e7" stroke-width="1.51"/><path d="M732,719L959,610L712,554Z" fill="#a7dbf2" stroke="#a7dbf2" stroke-width="1.51"/><path d="M857,870L934,757L732,719Z" fill="#9ddaee" stroke="#9ddaee" stroke-width="1.51"/><path d="M671,949L857,870L732,719Z" fill="#9cdaed" stroke="#9cdaed" stroke-width="1.51"/><path d="M934,757L959,610L732,719Z" fill="#a0dbef" stroke="#a0dbef" stroke-width="1.51"/><path d="M712,554L508,332L476,480Z" fill="#b5daf2" stroke="#b5daf2" stroke-width="1.51"/><path d="M566,882L671,949L732,719Z" fill="#9fd9ec" stroke="#9fd9ec" stroke-width="1.51"/><path d="M771,301L508,332L712,554Z" fill="#b5daf2" stroke="#b5daf2" stroke-width="1.51"/><path d="M941,396L771,301L712,554Z" fill="#b0dbf4" stroke="#b0dbf4" stroke-width="1.51"/><path d="M959,610L941,396L712,554Z" fill="#aadcf3" stroke="#aadcf3" stroke-width="1.51"/><path d="M277,605L587,718L476,480Z" fill="#b0d6ea" stroke="#b0d6ea" stroke-width="1.51"/><path d="M277,605L302,766L587,718Z" fill="#add3e6" stroke="#add3e6" stroke-width="1.51"/><path d="M495,1090L683,1107L671,949Z" fill="#9dd7e9" stroke="#9dd7e9" stroke-width="1.51"/><path d="M328,422L277,605L476,480Z" fill="#b7d4ea" stroke="#b7d4ea" stroke-width="1.51"/><path d="M508,332L328,422L476,480Z" fill="#b9d5eb" stroke="#b9d5eb" stroke-width="1.51"/><path d="M302,766L313,856L566,882Z" fill="#a6d2e3" stroke="#a6d2e3" stroke-width="1.51"/><path d="M184,747L313,856L302,766Z" fill="#abd0e0" stroke="#abd0e0" stroke-width="1.51"/><path d="M975,177L728,231L771,301Z" fill="#b6d4ea" stroke="#b6d4ea" stroke-width="1.51"/><path d="M771,301L728,231L508,332Z" fill="#b8d6ed" stroke="#b8d6ed" stroke-width="1.51"/><path d="M959,610L1097,555L941,396Z" fill="#a6dbf1" stroke="#a6dbf1" stroke-width="1.51"/><path d="M1137,705L1097,555L959,610Z" fill="#9edaee" stroke="#9edaee" stroke-width="1.51"/><path d="M1137,705L959,610L934,757Z" fill="#9cdaed" stroke="#9cdaed" stroke-width="1.51"/><path d="M857,870L1064,873L934,757Z" fill="#96d9eb" stroke="#96d9eb" stroke-width="1.51"/><path d="M671,949L858,1057L857,870Z" fill="#98d9ec" stroke="#98d9ec" stroke-width="1.51"/><path d="M683,1107L858,1057L671,949Z" fill="#9adaed" stroke="#9adaed" stroke-width="1.51"/><path d="M277,605L184,747L302,766Z" fill="#afd0e2" stroke="#afd0e2" stroke-width="1.51"/><path d="M328,422L205,581L277,605Z" fill="#b7d2e6" stroke="#b7d2e6" stroke-width="1.51"/><path d="M495,1090L671,949L566,882Z" fill="#9ed6e8" stroke="#9ed6e8" stroke-width="1.51"/><path d="M858,1057L1064,873L857,870Z" fill="#94d9ea" stroke="#94d9ea" stroke-width="1.51"/><path d="M313,856L495,1090L566,882Z" fill="#a1d3e4" stroke="#a1d3e4" stroke-width="1.51"/><path d="M1064,873L1137,705L934,757Z" fill="#96d9eb" stroke="#96d9eb" stroke-width="1.51"/><path d="M313,856L284,1092L495,1090Z" fill="#a3d1e1" stroke="#a3d1e1" stroke-width="1.51"/><path d="M205,581L184,747L277,605Z" fill="#b3d0e2" stroke="#b3d0e2" stroke-width="1.51"/><path d="M1097,555L1092,408L941,396Z" fill="#a8dcf2" stroke="#a8dcf2" stroke-width="1.51"/><path d="M941,396L975,177L771,301Z" fill="#b2d6ec" stroke="#b2d6ec" stroke-width="1.51"/><path d="M1222,400L1092,408L1097,555Z" fill="#a5dbf1" stroke="#a5dbf1" stroke-width="1.51"/><path d="M728,231L572,127L508,332Z" fill="#bcd2e7" stroke="#bcd2e7" stroke-width="1.51"/><path d="M508,332L280,138L328,422Z" fill="#becfe3" stroke="#becfe3" stroke-width="1.51"/><path d="M785,-23L572,127L728,231Z" fill="#bdd0e4" stroke="#bdd0e4" stroke-width="1.51"/><path d="M1092,408L975,177L941,396Z" fill="#aed7ec" stroke="#aed7ec" stroke-width="1.51"/><path d="M184,747L116,856L313,856Z" fill="#abcede" stroke="#abcede" stroke-width="1.51"/><path d="M-38,779L116,856L184,747Z" fill="#aecbdb" stroke="#aecbdb" stroke-width="1.51"/><path d="M495,1090L131,1130L683,1107Z" fill="#a1d3e3" stroke="#a1d3e3" stroke-width="1.51"/><path d="M116,856L284,1092L313,856Z" fill="#a6cedd" stroke="#a6cedd" stroke-width="1.51"/><path d="M858,1057L1120,1038L1064,873Z" fill="#90d8e9" stroke="#90d8e9" stroke-width="1.51"/><path d="M1328,978L1298,665L1137,705Z" fill="#8fd8e8" stroke="#8fd8e8" stroke-width="1.51"/><path d="M1225,1082L1120,1038L858,1057Z" fill="#8ed8e8" stroke="#8ed8e8" stroke-width="1.51"/><path d="M1092,408L1122,175L975,177Z" fill="#aed4e7" stroke="#aed4e7" stroke-width="1.51"/><path d="M1330,586L1222,400L1097,555Z" fill="#9fdaee" stroke="#9fdaee" stroke-width="1.51"/><path d="M1298,665L1097,555L1137,705Z" fill="#99daec" stroke="#99daec" stroke-width="1.51"/><path d="M205,581L14,568L184,747Z" fill="#b5cee0" stroke="#b5cee0" stroke-width="1.51"/><path d="M328,422L102,355L205,581Z" fill="#bcd1e6" stroke="#bcd1e6" stroke-width="1.51"/><path d="M183,195L102,355L328,422Z" fill="#c0ccdf" stroke="#c0ccdf" stroke-width="1.51"/><path d="M572,127L280,138L508,332Z" fill="#bfcde1" stroke="#bfcde1" stroke-width="1.51"/><path d="M1328,978L1137,705L1064,873Z" fill="#8ed8e7" stroke="#8ed8e7" stroke-width="1.51"/><path d="M102,355L14,568L205,581Z" fill="#bccee2" stroke="#bccee2" stroke-width="1.51"/><path d="M280,138L183,195L328,422Z" fill="#c1cbdd" stroke="#c1cbdd" stroke-width="1.51"/><path d="M837,-25L785,-23L728,231Z" fill="#bdcee1" stroke="#bdcee1" stroke-width="1.51"/><path d="M1222,400L1122,175L1092,408Z" fill="#a9d7ea" stroke="#a9d7ea" stroke-width="1.51"/><path d="M1222,400L1244,136L1122,175Z" fill="#abd2e5" stroke="#abd2e5" stroke-width="1.51"/><path d="M1298,665L1330,586L1097,555Z" fill="#99daec" stroke="#99daec" stroke-width="1.51"/><path d="M572,127L367,-3L280,138Z" fill="#c2c8d9" stroke="#c2c8d9" stroke-width="1.51"/><path d="M837,-25L728,231L975,177Z" fill="#b9d0e4" stroke="#b9d0e4" stroke-width="1.51"/><path d="M1068,20L837,-25L975,177Z" fill="#b8cddf" stroke="#b8cddf" stroke-width="1.51"/><path d="M280,138L221,7L183,195Z" fill="#c5c4d5" stroke="#c5c4d5" stroke-width="1.51"/><path d="M504,-58L367,-3L572,127Z" fill="#c3c7d8" stroke="#c3c7d8" stroke-width="1.51"/><path d="M116,856L131,1130L284,1092Z" fill="#a7cddb" stroke="#a7cddb" stroke-width="1.51"/><path d="M14,568L-38,779L184,747Z" fill="#b4cbdb" stroke="#b4cbdb" stroke-width="1.51"/><path d="M1120,1038L1328,978L1064,873Z" fill="#8bd8e6" stroke="#8bd8e6" stroke-width="1.51"/><path d="M1459,746L1426,529L1330,586Z" fill="#92d8e9" stroke="#92d8e9" stroke-width="1.51"/><path d="M683,1107L1225,1082L858,1057Z" fill="#94d9ea" stroke="#94d9ea" stroke-width="1.51"/><path d="M284,1092L131,1130L495,1090Z" fill="#a5d0df" stroke="#a5d0df" stroke-width="1.51"/><path d="M18,1120L131,1130L116,856Z" fill="#a9cad8" stroke="#a9cad8" stroke-width="1.51"/><path d="M785,-23L504,-58L572,127Z" fill="#c1cadd" stroke="#c1cadd" stroke-width="1.51"/><path d="M322,-151L504,-58L517,-227Z" fill="#c4c5d6" stroke="#c4c5d6" stroke-width="1.51"/><path d="M-197,801L-158,871L-38,779Z" fill="#afc9d7" stroke="#afc9d7" stroke-width="1.51"/><path d="M102,355L-21,404L14,568Z" fill="#c0cce0" stroke="#c0cce0" stroke-width="1.51"/><path d="M-11,233L-21,404L102,355Z" fill="#c2c8d9" stroke="#c2c8d9" stroke-width="1.51"/><path d="M-11,233L102,355L183,195Z" fill="#c3c6d8" stroke="#c3c6d8" stroke-width="1.51"/><path d="M1244,136L1068,20L1122,175Z" fill="#b0cedf" stroke="#b0cedf" stroke-width="1.51"/><path d="M1122,175L1068,20L975,177Z" fill="#b3cfe1" stroke="#b3cfe1" stroke-width="1.51"/><path d="M1225,1082L1328,978L1120,1038Z" fill="#89d7e6" stroke="#89d7e6" stroke-width="1.51"/><path d="M367,-3L221,7L280,138Z" fill="#c5c3d4" stroke="#c5c3d4" stroke-width="1.51"/><path d="M322,-151L221,7L367,-3Z" fill="#c6c2d2" stroke="#c6c2d2" stroke-width="1.51"/><path d="M1419,168L1244,136L1222,400Z" fill="#a8d2e3" stroke="#a8d2e3" stroke-width="1.51"/><path d="M1330,586L1426,529L1222,400Z" fill="#9bdaed" stroke="#9bdaed" stroke-width="1.51"/><path d="M1459,746L1330,586L1298,665Z" fill="#92d9e9" stroke="#92d9e9" stroke-width="1.51"/><path d="M-46,-39L-11,233L183,195Z" fill="#c7c0d0" stroke="#c7c0d0" stroke-width="1.51"/><path d="M-38,779L-85,907L116,856Z" fill="#adc9d6" stroke="#adc9d6" stroke-width="1.51"/><path d="M-158,871L-85,907L-38,779Z" fill="#adc9d6" stroke="#adc9d6" stroke-width="1.51"/><path d="M-38,779L-233,529L-197,801Z" fill="#b4cada" stroke="#b4cada" stroke-width="1.51"/><path d="M-85,907L18,1120L116,856Z" fill="#abc9d6" stroke="#abc9d6" stroke-width="1.51"/><path d="M1328,978L1459,746L1298,665Z" fill="#8ad8e6" stroke="#8ad8e6" stroke-width="1.51"/><path d="M-85,907L-174,1059L18,1120Z" fill="#abc9d5" stroke="#abc9d5" stroke-width="1.51"/><path d="M-38,779L14,568L-233,529Z" fill="#b8cadb" stroke="#b8cadb" stroke-width="1.51"/><path d="M-46,-39L-165,132L-11,233Z" fill="#c8becd" stroke="#c8becd" stroke-width="1.51"/><path d="M504,-58L322,-151L367,-3Z" fill="#c5c4d5" stroke="#c5c4d5" stroke-width="1.51"/><path d="M686,-238L504,-58L785,-23Z" fill="#c1cadd" stroke="#c1cadd" stroke-width="1.51"/><path d="M686,-238L785,-23L837,-25Z" fill="#bfccdf" stroke="#bfccdf" stroke-width="1.51"/><path d="M1068,20L975,-170L837,-25Z" fill="#b9cbdc" stroke="#b9cbdc" stroke-width="1.51"/><path d="M1244,136L1243,-1L1068,20Z" fill="#b1ccdb" stroke="#b1ccdb" stroke-width="1.51"/><path d="M1458,32L1243,-1L1244,136Z" fill="#adcbda" stroke="#adcbda" stroke-width="1.51"/><path d="M-233,529L14,568L-21,404Z" fill="#becbde" stroke="#becbde" stroke-width="1.51"/><path d="M1084,-202L975,-170L1068,20Z" fill="#b7cadb" stroke="#b7cadb" stroke-width="1.51"/><path d="M1426,529L1463,291L1222,400Z" fill="#9fd9eb" stroke="#9fd9eb" stroke-width="1.51"/><path d="M1594,312L1463,291L1426,529Z" fill="#9ed7e9" stroke="#9ed7e9" stroke-width="1.51"/><path d="M975,-170L686,-238L837,-25Z" fill="#bdcbde" stroke="#bdcbde" stroke-width="1.51"/><path d="M686,-238L517,-227L504,-58Z" fill="#c2c8da" stroke="#c2c8da" stroke-width="1.51"/><path d="M1463,291L1419,168L1222,400Z" fill="#a4d4e5" stroke="#a4d4e5" stroke-width="1.51"/><path d="M1683,514L1594,312L1426,529Z" fill="#9bdaed" stroke="#9bdaed" stroke-width="1.51"/><path d="M1328,978L1529,870L1459,746Z" fill="#83d7e4" stroke="#83d7e4" stroke-width="1.51"/><path d="M1537,1063L1529,870L1328,978Z" fill="#81d6e3" stroke="#81d6e3" stroke-width="1.51"/><path d="M-279,399L-233,529L-21,404Z" fill="#c0ccdf" stroke="#c0ccdf" stroke-width="1.51"/><path d="M-197,801L-174,1059L-158,871Z" fill="#abc9d5" stroke="#abc9d5" stroke-width="1.51"/><path d="M-158,871L-174,1059L-85,907Z" fill="#abc9d5" stroke="#abc9d5" stroke-width="1.51"/><path d="M-279,399L-174,1059L-197,801Z" fill="#b2c9d8" stroke="#b2c9d8" stroke-width="1.51"/><path d="M975,-170L1084,-202L686,-238Z" fill="#bacbdd" stroke="#bacbdd" stroke-width="1.51"/><path d="M1243,-1L1084,-202L1068,20Z" fill="#b4cada" stroke="#b4cada" stroke-width="1.51"/><path d="M1280,-154L1084,-202L1243,-1Z" fill="#b2c9d9" stroke="#b2c9d9" stroke-width="1.51"/><path d="M-233,529L-279,399L-197,801Z" fill="#bacbdc" stroke="#bacbdc" stroke-width="1.51"/><path d="M-11,233L-279,399L-21,404Z" fill="#c3c8da" stroke="#c3c8da" stroke-width="1.51"/><path d="M-165,132L-279,399L-11,233Z" fill="#c5c4d5" stroke="#c5c4d5" stroke-width="1.51"/><path d="M-46,-39L183,195L221,7Z" fill="#c8bfcf" stroke="#c8bfcf" stroke-width="1.51"/><path d="M1225,1082L1537,1063L1328,978Z" fill="#84d7e4" stroke="#84d7e4" stroke-width="1.51"/><path d="M110,-264L-46,-39L221,7Z" fill="#c9bdcb" stroke="#c9bdcb" stroke-width="1.51"/><path d="M110,-264L221,7L322,-151Z" fill="#c7c0cf" stroke="#c7c0cf" stroke-width="1.51"/><path d="M1419,168L1458,32L1244,136Z" fill="#a9cddc" stroke="#a9cddc" stroke-width="1.51"/><path d="M1463,291L1653,151L1419,168Z" fill="#a4d0e0" stroke="#a4d0e0" stroke-width="1.51"/><path d="M1683,514L1426,529L1459,746Z" fill="#93d9e9" stroke="#93d9e9" stroke-width="1.51"/><path d="M1683,514L1459,746L1722,774Z" fill="#8ed8e8" stroke="#8ed8e8" stroke-width="1.51"/><path d="M1653,151L1458,32L1419,168Z" fill="#a7cddb" stroke="#a7cddb" stroke-width="1.51"/><path d="M1458,32L1280,-154L1243,-1Z" fill="#aec9d7" stroke="#aec9d7" stroke-width="1.51"/><path d="M1537,1063L1620,969L1529,870Z" fill="#81d6e3" stroke="#81d6e3" stroke-width="1.51"/><path d="M1722,774L1459,746L1529,870Z" fill="#87d7e5" stroke="#87d7e5" stroke-width="1.51"/><path d="M-46,-39L-217,-29L-165,132Z" fill="#cabbc9" stroke="#cabbc9" stroke-width="1.51"/><path d="M517,-227L110,-264L322,-151Z" fill="#c6c2d2" stroke="#c6c2d2" stroke-width="1.51"/><path d="M686,-238L110,-264L517,-227Z" fill="#c4c5d6" stroke="#c4c5d6" stroke-width="1.51"/><path d="M1620,969L1722,774L1529,870Z" fill="#83d6e3" stroke="#83d6e3" stroke-width="1.51"/><path d="M-246,-179L-217,-29L-46,-39Z" fill="#cabac8" stroke="#cabac8" stroke-width="1.51"/><path d="M-165,132L-217,-29L-279,399Z" fill="#c7c1d0" stroke="#c7c1d0" stroke-width="1.51"/><path d="M1683,514L1653,151L1594,312Z" fill="#a0d5e6" stroke="#a0d5e6" stroke-width="1.51"/><path d="M1594,312L1653,151L1463,291Z" fill="#a3d2e2" stroke="#a3d2e2" stroke-width="1.51"/><path d="M1458,32L1517,-261L1280,-154Z" fill="#acc8d6" stroke="#acc8d6" stroke-width="1.51"/><path d="M1722,774L1653,151L1683,514Z" fill="#99daec" stroke="#99daec" stroke-width="1.51"/><path d="M110,-264L-39,-273L-46,-39Z" fill="#cabac8" stroke="#cabac8" stroke-width="1.51"/><path d="M1517,-261L-39,-273L110,-264Z" fill="#c3c7d9" stroke="#c3c7d9" stroke-width="1.51"/><path d="M131,1130L1720,1113L683,1107Z" fill="#96d9eb" stroke="#96d9eb" stroke-width="1.51"/><path d="M683,1107L1720,1113L1225,1082Z" fill="#8ad7e6" stroke="#8ad7e6" stroke-width="1.51"/><path d="M1225,1082L1720,1113L1537,1063Z" fill="#81d6e3" stroke="#81d6e3" stroke-width="1.51"/><path d="M1537,1063L1720,1113L1620,969Z" fill="#81d6e3" stroke="#81d6e3" stroke-width="1.51"/><path d="M1620,969L1720,1113L1722,774Z" fill="#81d6e3" stroke="#81d6e3" stroke-width="1.51"/><path d="M1653,151L1644,-81L1458,32Z" fill="#aacad7" stroke="#aacad7" stroke-width="1.51"/><path d="M1280,-154L1517,-261L1084,-202Z" fill="#afc9d7" stroke="#afc9d7" stroke-width="1.51"/><path d="M1722,774L1644,-81L1653,151Z" fill="#a1d3e4" stroke="#a1d3e4" stroke-width="1.51"/><path d="M-39,-273L-246,-179L-46,-39Z" fill="#cabac8" stroke="#cabac8" stroke-width="1.51"/><path d="M-217,-29L-246,-179L-279,399Z" fill="#c9bdcb" stroke="#c9bdcb" stroke-width="1.51"/><path d="M1644,-81L1517,-261L1458,32Z" fill="#abc9d5" stroke="#abc9d5" stroke-width="1.51"/><path d="M1084,-202L1517,-261L686,-238Z" fill="#b5cada" stroke="#b5cada" stroke-width="1.51"/><path d="M686,-238L1517,-261L110,-264Z" fill="#bfccdf" stroke="#bfccdf" stroke-width="1.51"/><path d="M1644,-81L1621,-235L1517,-261Z" fill="#abc9d5" stroke="#abc9d5" stroke-width="1.51"/></svg>