<svg xmlns="http://www.w3.org/2000/svg" width="1440" height="900"><path d="M770,408L847,528L863,342Z" fill="#7fd4df" stroke="#7fd4df" stroke-width="1.51"/><path d="M770,408L736,539L847,528Z" fill="#7cd3de" stroke="#7cd3de" stroke-width="1.51"/><path d="M847,528L1048,487L863,342Z" fill="#7ad1db" stroke="#7ad1db" stroke-width="1.51"/><path d="M863,342L741,211L770,408Z" fill="#86d6e3" stroke="#86d6e3" stroke-width="1.51"/><path d="M770,408L573,498L736,539Z" fill="#80d5e1" stroke="#80d5e1" stroke-width="1.51"/><path d="M874,168L741,211L863,342Z" fill="#8ad5e3" stroke="#8ad5e3" stroke-width="1.51"/><path d="M1093,142L874,168L863,342Z" fill="#87d3df" stroke="#87d3df" stroke-width="1.51"/><path d="M1048,487L1130,378L863,342Z" fill="#7acfd9" stroke="#7acfd9" stroke-width="1.51"/><path d="M575,310L573,498L770,408Z" fill="#87d7e5" stroke="#87d7e5" stroke-width="1.51"/><path d="M741,211L575,310L770,408Z" fill="#8ad7e6" stroke="#8ad7e6" stroke-width="1.51"/><path d="M847,528L1050,711L1048,487Z" fill="#71cbd1" stroke="#71cbd1" stroke-width="1.51"/><path d="M1048,487L1255,573L1130,378Z" fill="#71cbd1" stroke="#71cbd1" stroke-width="1.51"/><path d="M737,743L939,756L847,528Z" fill="#70cad1" stroke="#70cad1" stroke-width="1.51"/><path d="M737,743L847,528L736,539Z" fill="#77cfd8" stroke="#77cfd8" stroke-width="1.51"/><path d="M573,498L737,743L736,539Z" fill="#7bd0db" stroke="#7bd0db" stroke-width="1.51"/><path d="M939,756L1050,711L847,528Z" fill="#6dc9cd" stroke="#6dc9cd" stroke-width="1.51"/><path d="M1130,378L1093,142L863,342Z" fill="#80d1db" stroke="#80d1db" stroke-width="1.51"/><path d="M874,168L718,-28L741,211Z" fill="#92d7e8" stroke="#92d7e8" stroke-width="1.51"/><path d="M741,211L499,117L575,310Z" fill="#93d9ea" stroke="#93d9ea" stroke-width="1.51"/><path d="M1056,31L907,22L874,168Z" fill="#8fd4e3" stroke="#8fd4e3" stroke-width="1.51"/><path d="M1050,711L1255,573L1048,487Z" fill="#6bc8cb" stroke="#6bc8cb" stroke-width="1.51"/><path d="M1130,378L1272,297L1093,142Z" fill="#7cced6" stroke="#7cced6" stroke-width="1.51"/><path d="M1255,573L1272,297L1130,378Z" fill="#71cbd1" stroke="#71cbd1" stroke-width="1.51"/><path d="M1093,142L1056,31L874,168Z" fill="#8bd2e0" stroke="#8bd2e0" stroke-width="1.51"/><path d="M1278,35L1056,31L1093,142Z" fill="#89d0dc" stroke="#89d0dc" stroke-width="1.51"/><path d="M323,551L474,717L573,498Z" fill="#83d3de" stroke="#83d3de" stroke-width="1.51"/><path d="M573,498L474,717L737,743Z" fill="#7acfd8" stroke="#7acfd8" stroke-width="1.51"/><path d="M718,-28L499,117L741,211Z" fill="#98daec" stroke="#98daec" stroke-width="1.51"/><path d="M575,310L339,381L573,498Z" fill="#8cd8e7" stroke="#8cd8e7" stroke-width="1.51"/><path d="M1050,711L1230,789L1255,573Z" fill="#63c3c3" stroke="#63c3c3" stroke-width="1.51"/><path d="M939,756L1050,879L1050,711Z" fill="#64c3c4" stroke="#64c3c4" stroke-width="1.51"/><path d="M909,918L1050,879L939,756Z" fill="#61c2c2" stroke="#61c2c2" stroke-width="1.51"/><path d="M909,918L939,756L737,743Z" fill="#68c5c8" stroke="#68c5c8" stroke-width="1.51"/><path d="M856,-168L718,-28L907,22Z" fill="#97d7e9" stroke="#97d7e9" stroke-width="1.51"/><path d="M907,22L718,-28L874,168Z" fill="#94d7e8" stroke="#94d7e8" stroke-width="1.51"/><path d="M764,937L909,918L737,743Z" fill="#66c4c7" stroke="#66c4c7" stroke-width="1.51"/><path d="M560,961L764,937L737,743Z" fill="#6ac6ca" stroke="#6ac6ca" stroke-width="1.51"/><path d="M1050,879L1230,789L1050,711Z" fill="#5fc0c0" stroke="#5fc0c0" stroke-width="1.51"/><path d="M350,174L339,381L575,310Z" fill="#95d9ea" stroke="#95d9ea" stroke-width="1.51"/><path d="M1272,297L1317,147L1093,142Z" fill="#7ecdd5" stroke="#7ecdd5" stroke-width="1.51"/><path d="M1423,141L1317,147L1272,297Z" fill="#7bcad1" stroke="#7bcad1" stroke-width="1.51"/><path d="M1423,141L1272,297L1499,369Z" fill="#74c8ce" stroke="#74c8ce" stroke-width="1.51"/><path d="M339,381L323,551L573,498Z" fill="#8bd7e6" stroke="#8bd7e6" stroke-width="1.51"/><path d="M339,381L125,540L323,551Z" fill="#8fd7e7" stroke="#8fd7e7" stroke-width="1.51"/><path d="M499,117L350,174L575,310Z" fill="#98d9ec" stroke="#98d9ec" stroke-width="1.51"/><path d="M325,-76L350,174L499,117Z" fill="#a2dbf0" stroke="#a2dbf0" stroke-width="1.51"/><path d="M1056,31L856,-168L907,22Z" fill="#93d5e5" stroke="#93d5e5" stroke-width="1.51"/><path d="M1317,147L1278,35L1093,142Z" fill="#83cdd7" stroke="#83cdd7" stroke-width="1.51"/><path d="M718,-28L527,-51L499,117Z" fill="#9fdaee" stroke="#9fdaee" stroke-width="1.51"/><path d="M574,-225L527,-51L718,-28Z" fill="#9edaee" stroke="#9edaee" stroke-width="1.51"/><path d="M323,551L351,752L474,717Z" fill="#81d0da" stroke="#81d0da" stroke-width="1.51"/><path d="M474,717L560,961L737,743Z" fill="#72c9d0" stroke="#72c9d0" stroke-width="1.51"/><path d="M1094,-240L856,-168L1056,31Z" fill="#91d3e2" stroke="#91d3e2" stroke-width="1.51"/><path d="M360,896L560,961L474,717Z" fill="#73c9ce" stroke="#73c9ce" stroke-width="1.51"/><path d="M856,-168L757,-169L718,-28Z" fill="#99d8eb" stroke="#99d8eb" stroke-width="1.51"/><path d="M1317,147L1423,141L1278,35Z" fill="#80cbd3" stroke="#80cbd3" stroke-width="1.51"/><path d="M1499,369L1272,297L1255,573Z" fill="#6dc8cd" stroke="#6dc8cd" stroke-width="1.51"/><path d="M1230,789L1429,720L1255,573Z" fill="#5ebfbf" stroke="#5ebfbf" stroke-width="1.51"/><path d="M1473,904L1429,720L1230,789Z" fill="#55bab6" stroke="#55bab6" stroke-width="1.51"/><path d="M1518,501L1499,369L1255,573Z" fill="#66c5c7" stroke="#66c5c7" stroke-width="1.51"/><path d="M1050,879L1298,971L1230,789Z" fill="#57bbb8" stroke="#57bbb8" stroke-width="1.51"/><path d="M909,918L1053,1049L1050,879Z" fill="#5dbfbe" stroke="#5dbfbe" stroke-width="1.51"/><path d="M959,1123L1053,1049L909,918Z" fill="#5ebfbf" stroke="#5ebfbf" stroke-width="1.51"/><path d="M959,1123L909,918L764,937Z" fill="#62c2c2" stroke="#62c2c2" stroke-width="1.51"/><path d="M1429,720L1518,501L1255,573Z" fill="#60c1c1" stroke="#60c1c1" stroke-width="1.51"/><path d="M560,961L709,1087L764,937Z" fill="#69c5c9" stroke="#69c5c9" stroke-width="1.51"/><path d="M560,961L477,1098L709,1087Z" fill="#6dc6ca" stroke="#6dc6ca" stroke-width="1.51"/><path d="M351,752L360,896L474,717Z" fill="#7acbd3" stroke="#7acbd3" stroke-width="1.51"/><path d="M109,763L360,896L351,752Z" fill="#7ecbd4" stroke="#7ecbd4" stroke-width="1.51"/><path d="M1053,1049L1298,971L1050,879Z" fill="#58bcb9" stroke="#58bcb9" stroke-width="1.51"/><path d="M709,1087L959,1123L764,937Z" fill="#64c3c5" stroke="#64c3c5" stroke-width="1.51"/><path d="M1053,1049L1240,1098L1298,971Z" fill="#56bab7" stroke="#56bab7" stroke-width="1.51"/><path d="M1278,35L1094,-240L1056,31Z" fill="#8cd0dd" stroke="#8cd0dd" stroke-width="1.51"/><path d="M856,-168L574,-225L757,-169Z" fill="#9adaec" stroke="#9adaec" stroke-width="1.51"/><path d="M1248,-260L1094,-240L1278,35Z" fill="#8acfdb" stroke="#8acfdb" stroke-width="1.51"/><path d="M527,-51L325,-76L499,117Z" fill="#a3dbf0" stroke="#a3dbf0" stroke-width="1.51"/><path d="M757,-169L574,-225L718,-28Z" fill="#9cdaed" stroke="#9cdaed" stroke-width="1.51"/><path d="M1094,-240L574,-225L856,-168Z" fill="#96d7e8" stroke="#96d7e8" stroke-width="1.51"/><path d="M364,-155L325,-76L527,-51Z" fill="#a5dbf1" stroke="#a5dbf1" stroke-width="1.51"/><path d="M101,324L125,540L339,381Z" fill="#96d9eb" stroke="#96d9eb" stroke-width="1.51"/><path d="M323,551L109,763L351,752Z" fill="#85d0db" stroke="#85d0db" stroke-width="1.51"/><path d="M101,324L339,381L350,174Z" fill="#9adaed" stroke="#9adaed" stroke-width="1.51"/><path d="M959,1123L1240,1098L1053,1049Z" fill="#5abdbb" stroke="#5abdbb" stroke-width="1.51"/><path d="M1298,971L1473,904L1230,789Z" fill="#51b8b2" stroke="#51b8b2" stroke-width="1.51"/><path d="M360,896L477,1098L560,961Z" fill="#71c7cc" stroke="#71c7cc" stroke-width="1.51"/><path d="M709,1087L384,1132L959,1123Z" fill="#69c5c9" stroke="#69c5c9" stroke-width="1.51"/><path d="M384,1132L477,1098L360,896Z" fill="#73c7cd" stroke="#73c7cd" stroke-width="1.51"/><path d="M129,122L101,324L350,174Z" fill="#a2dbf0" stroke="#a2dbf0" stroke-width="1.51"/><path d="M201,-57L129,122L350,174Z" fill="#a7dcf2" stroke="#a7dcf2" stroke-width="1.51"/><path d="M574,-225L364,-155L527,-51Z" fill="#a2dbf0" stroke="#a2dbf0" stroke-width="1.51"/><path d="M1454,1106L1473,904L1298,971Z" fill="#4eb6af" stroke="#4eb6af" stroke-width="1.51"/><path d="M1429,720L1656,530L1518,501Z" fill="#60c0c0" stroke="#60c0c0" stroke-width="1.51"/><path d="M1631,109L1423,141L1499,369Z" fill="#77c8ce" stroke="#77c8ce" stroke-width="1.51"/><path d="M1631,109L1455,-59L1423,141Z" fill="#7fc9d0" stroke="#7fc9d0" stroke-width="1.51"/><path d="M1423,141L1455,-59L1278,35Z" fill="#82cad3" stroke="#82cad3" stroke-width="1.51"/><path d="M201,-57L350,174L325,-76Z" fill="#a8dcf2" stroke="#a8dcf2" stroke-width="1.51"/><path d="M1455,-59L1248,-260L1278,35Z" fill="#86ccd6" stroke="#86ccd6" stroke-width="1.51"/><path d="M1094,-240L1248,-260L574,-225Z" fill="#92d4e3" stroke="#92d4e3" stroke-width="1.51"/><path d="M1518,501L1664,407L1499,369Z" fill="#69c5c9" stroke="#69c5c9" stroke-width="1.51"/><path d="M1710,773L1656,530L1429,720Z" fill="#5abdbb" stroke="#5abdbb" stroke-width="1.51"/><path d="M1656,530L1664,407L1518,501Z" fill="#66c4c6" stroke="#66c4c6" stroke-width="1.51"/><path d="M125,540L109,763L323,551Z" fill="#8bd3e0" stroke="#8bd3e0" stroke-width="1.51"/><path d="M-12,561L109,763L125,540Z" fill="#8fd3e2" stroke="#8fd3e2" stroke-width="1.51"/><path d="M364,-155L201,-57L325,-76Z" fill="#a9dcf3" stroke="#a9dcf3" stroke-width="1.51"/><path d="M1664,407L1631,109L1499,369Z" fill="#71c7cc" stroke="#71c7cc" stroke-width="1.51"/><path d="M1455,-59L1516,-149L1248,-260Z" fill="#84cad3" stroke="#84cad3" stroke-width="1.51"/><path d="M477,1098L384,1132L709,1087Z" fill="#6fc6cb" stroke="#6fc6cb" stroke-width="1.51"/><path d="M127,1084L384,1132L360,896Z" fill="#78c8ce" stroke="#78c8ce" stroke-width="1.51"/><path d="M-28,385L-12,561L125,540Z" fill="#97d8ea" stroke="#97d8ea" stroke-width="1.51"/><path d="M129,122L28,217L101,324Z" fill="#a4dbf1" stroke="#a4dbf1" stroke-width="1.51"/><path d="M-9,25L28,217L129,122Z" fill="#abdcf4" stroke="#abdcf4" stroke-width="1.51"/><path d="M1645,-66L1516,-149L1455,-59Z" fill="#82c9d2" stroke="#82c9d2" stroke-width="1.51"/><path d="M-28,385L125,540L101,324Z" fill="#9adaec" stroke="#9adaec" stroke-width="1.51"/><path d="M28,217L-28,385L101,324Z" fill="#a1dbef" stroke="#a1dbef" stroke-width="1.51"/><path d="M1473,904L1710,773L1429,720Z" fill="#53b8b4" stroke="#53b8b4" stroke-width="1.51"/><path d="M1240,1098L1454,1106L1298,971Z" fill="#51b7b2" stroke="#51b7b2" stroke-width="1.51"/><path d="M959,1123L1454,1106L1240,1098Z" fill="#55bab6" stroke="#55bab6" stroke-width="1.51"/><path d="M1656,530L1710,773L1664,407Z" fill="#60c1c1" stroke="#60c1c1" stroke-width="1.51"/><path d="M1664,407L1645,-66L1631,109Z" fill="#7ac8cf" stroke="#7ac8cf" stroke-width="1.51"/><path d="M1648,950L1710,773L1473,904Z" fill="#4eb6af" stroke="#4eb6af" stroke-width="1.51"/><path d="M-18,941L111,965L109,763Z" fill="#81c9d1" stroke="#81c9d1" stroke-width="1.51"/><path d="M109,763L111,965L360,896Z" fill="#7dc9d1" stroke="#7dc9d1" stroke-width="1.51"/><path d="M1631,109L1645,-66L1455,-59Z" fill="#82c9d2" stroke="#82c9d2" stroke-width="1.51"/><path d="M1710,773L1645,-66L1664,407Z" fill="#6cc6ca" stroke="#6cc6ca" stroke-width="1.51"/><path d="M201,-57L-9,25L129,122Z" fill="#adddf5" stroke="#adddf5" stroke-width="1.51"/><path d="M28,217L-185,180L-28,385Z" fill="#a5dbf1" stroke="#a5dbf1" stroke-width="1.51"/><path d="M364,-155L132,-162L201,-57Z" fill="#abdcf4" stroke="#abdcf4" stroke-width="1.51"/><path d="M574,-225L132,-162L364,-155Z" fill="#a7dcf2" stroke="#a7dcf2" stroke-width="1.51"/><path d="M1616,1093L1648,950L1473,904Z" fill="#4cb5ae" stroke="#4cb5ae" stroke-width="1.51"/><path d="M-12,561L-50,733L109,763Z" fill="#8dd1df" stroke="#8dd1df" stroke-width="1.51"/><path d="M-211,565L-50,733L-12,561Z" fill="#92d4e3" stroke="#92d4e3" stroke-width="1.51"/><path d="M-28,385L-211,565L-12,561Z" fill="#98d8ea" stroke="#98d8ea" stroke-width="1.51"/><path d="M132,-162L-9,25L201,-57Z" fill="#afddf5" stroke="#afddf5" stroke-width="1.51"/><path d="M111,965L127,1084L360,896Z" fill="#7bc8cf" stroke="#7bc8cf" stroke-width="1.51"/><path d="M-18,941L127,1084L111,965Z" fill="#80c9d1" stroke="#80c9d1" stroke-width="1.51"/><path d="M1454,1106L1616,1093L1473,904Z" fill="#4cb5ae" stroke="#4cb5ae" stroke-width="1.51"/><path d="M1648,950L1616,1093L1710,773Z" fill="#4cb5ae" stroke="#4cb5ae" stroke-width="1.51"/><path d="M-50,733L-18,941L109,763Z" fill="#86ccd7" stroke="#86ccd7" stroke-width="1.51"/><path d="M1516,-149L1617,-262L1248,-260Z" fill="#82c9d2" stroke="#82c9d2" stroke-width="1.51"/><path d="M1645,-66L1617,-262L1516,-149Z" fill="#82c9d2" stroke="#82c9d2" stroke-width="1.51"/><path d="M132,-162L0,-147L-9,25Z" fill="#b1ddf6" stroke="#b1ddf6" stroke-width="1.51"/><path d="M-9,25L-185,180L28,217Z" fill="#abdcf4" stroke="#abdcf4" stroke-width="1.51"/><path d="M-168,-175L0,-147L132,-162Z" fill="#b2ddf7" stroke="#b2ddf7" stroke-width="1.51"/><path d="M-266,-42L-185,180L-9,25Z" fill="#afddf6" stroke="#afddf6" stroke-width="1.51"/><path d="M-50,733L-225,896L-18,941Z" fill="#85cbd5" stroke="#85cbd5" stroke-width="1.51"/><path d="M-245,369L-211,565L-28,385Z" fill="#9bdaed" stroke="#9bdaed" stroke-width="1.51"/><path d="M127,1084L27,1152L384,1132Z" fill="#7cc8d0" stroke="#7cc8d0" stroke-width="1.51"/><path d="M384,1132L27,1152L959,1123Z" fill="#72c7cc" stroke="#72c7cc" stroke-width="1.51"/><path d="M-18,941L27,1152L127,1084Z" fill="#81c9d1" stroke="#81c9d1" stroke-width="1.51"/><path d="M-228,1047L27,1152L-18,941Z" fill="#82c9d2" stroke="#82c9d2" stroke-width="1.51"/><path d="M-185,180L-245,369L-28,385Z" fill="#a2dbf0" stroke="#a2dbf0" stroke-width="1.51"/><path d="M-211,565L-276,694L-50,733Z" fill="#8fd2e0" stroke="#8fd2e0" stroke-width="1.51"/><path d="M-245,369L-276,694L-211,565Z" fill="#96d6e7" stroke="#96d6e7" stroke-width="1.51"/><path d="M-276,694L-225,896L-50,733Z" fill="#89ceda" stroke="#89ceda" stroke-width="1.51"/><path d="M574,-225L-168,-175L132,-162Z" fill="#addcf4" stroke="#addcf4" stroke-width="1.51"/><path d="M0,-147L-168,-175L-9,25Z" fill="#b2ddf7" stroke="#b2ddf7" stroke-width="1.51"/><path d="M-185,180L-266,-42L-245,369Z" fill="#aadcf3" stroke="#aadcf3" stroke-width="1.51"/><path d="M-168,-175L-266,-42L-9,25Z" fill="#b2ddf7" stroke="#b2ddf7" stroke-width="1.51"/><path d="M-245,369L-266,-42L-276,694Z" fill="#a1dbef" stroke="#a1dbef" stroke-width="1.51"/><path d="M-276,694L-228,1047L-225,896Z" fill="#84cad3" stroke="#84cad3" stroke-width="1.51"/><path d="M-225,896L-228,1047L-18,941Z" fill="#82c9d2" stroke="#82c9d2" stroke-width="1.51"/></svg>